<svg width="432" height="75" viewBox="0 0 432 75" fill="none" xmlns="http://www.w3.org/2000/svg">
<g clip-path="url(#clip0_328_3532)">
<path fill-rule="evenodd" clip-rule="evenodd" d="M80.8139 28.7411C81.7227 28.7411 82.1771 29.4227 82.1771 30.1042V54.4123C82.1771 55.0939 81.4955 55.7754 80.8139 55.7754H80.5867C79.9051 55.7754 79.2235 55.0939 79.2235 54.4123V35.7837V35.3293L73.5434 44.6437C73.089 45.3252 72.8618 45.5524 72.4074 45.5524C71.953 45.5524 71.4985 45.3252 71.2713 44.6437L65.5913 35.3293V54.4123C65.5913 54.4123 65.5913 54.4123 65.5913 54.6395C65.5913 55.3211 64.9096 55.7754 64.228 55.7754H61.956C61.2744 55.7754 60.5928 55.0939 60.5928 54.4123V30.1042C60.5928 29.4227 61.2744 28.7411 61.956 28.7411H64.228C64.9096 28.7411 65.364 29.1955 65.5913 29.877L72.4074 41.236L79.4507 29.4227C79.9051 28.9683 80.3595 28.7411 80.8139 28.7411Z" fill="#EF7C00"/>
<path fill-rule="evenodd" clip-rule="evenodd" d="M54.6858 3.29713C26.967 10.1125 6.51868 23.0617 0.611384 42.5991C-0.297431 45.3252 2.42901 46.4611 3.79223 44.4165C16.97 26.9237 34.9191 13.7474 55.5946 6.25046C57.8667 5.34174 57.1851 2.6156 54.6858 3.29713Z" fill="#EF7C00"/>
<path fill-rule="evenodd" clip-rule="evenodd" d="M203.731 55.7754C204.185 55.7754 204.412 55.5482 204.64 55.321C205.094 55.0939 205.094 54.6395 205.094 54.4123C205.094 53.958 204.867 53.7308 204.867 53.5036C204.64 53.2764 204.185 53.0493 203.958 53.0493H194.643C193.961 53.0493 193.28 52.8221 192.825 52.3677C192.371 51.9134 192.144 51.2318 192.144 50.3231V42.1447H201.459C201.913 42.1447 202.14 41.9175 202.368 41.6903C202.595 41.4631 202.595 41.0088 202.595 40.7816C202.595 40.3273 202.595 40.1001 202.368 39.8729C202.14 39.6457 201.913 39.4185 201.459 39.4185H192.144V33.9662C192.144 33.2847 192.371 32.6032 192.825 32.1488C193.28 31.6945 193.961 31.4673 194.643 31.4673H203.958C204.412 31.4673 204.64 31.2401 204.867 31.0129C205.094 30.7857 205.321 30.3314 205.321 30.1042C205.321 29.6499 205.094 29.4227 205.094 29.1955C204.867 28.9683 204.412 28.7411 204.185 28.7411H192.598C191.007 28.7411 189.871 29.1955 188.735 30.3314C187.599 31.4673 187.145 32.6032 187.145 34.1934V50.3231C187.145 51.9134 187.599 53.2764 188.735 54.1852C189.871 55.321 191.007 55.7754 192.598 55.7754H203.731Z" fill="#EF7C00"/>
<path fill-rule="evenodd" clip-rule="evenodd" d="M40.826 63.4995C-3.93312 89.1707 -14.6117 50.5503 43.5524 15.5648C56.7302 7.61352 73.0889 2.38841 81.7226 0.11662C84.2219 -0.564917 84.9035 1.93405 82.4042 2.61559C59.2295 10.5668 35.8275 23.9704 23.7857 46.0067C17.424 57.5928 21.7409 64.8626 39.4628 60.319C42.6436 59.4103 44.234 61.6821 40.826 63.4995Z" fill="#878786"/>
<path fill-rule="evenodd" clip-rule="evenodd" d="M215.546 47.597L219.636 41.236C219.863 41.0088 219.863 40.7816 219.863 40.5544C219.863 40.3272 219.636 39.8729 219.408 39.6457C219.181 39.4185 218.954 39.4185 218.5 39.4185C218.045 39.4185 217.818 39.6457 217.591 39.8729L214.183 45.5524L210.547 40.1001C210.32 39.8729 210.093 39.6457 209.639 39.6457C209.411 39.6457 208.957 39.6457 208.73 39.8729C208.503 40.1001 208.275 40.3272 208.275 40.7816V41.0088C208.275 41.236 208.275 41.236 208.503 41.4631L212.592 47.8241L208.503 54.1852C208.275 54.4123 208.275 54.6395 208.275 54.8667C208.275 55.0939 208.503 55.5482 208.73 55.7754C208.957 56.0026 209.184 56.2298 209.639 56.2298C210.093 56.2298 210.32 56.0026 210.547 55.7754L214.183 50.3231L217.818 55.7754C218.045 56.0026 218.272 56.2298 218.727 56.2298C218.954 56.2298 219.408 56.2298 219.636 56.0026C219.863 55.7754 220.09 55.5482 220.09 55.0939C220.09 54.8667 220.09 54.6395 219.863 54.4123L215.546 47.597ZM225.997 39.4185V35.7837C225.997 35.3293 225.77 35.1021 225.543 34.875C225.316 34.6478 225.088 34.6478 224.861 34.6478C224.634 34.6478 224.18 34.6478 223.952 34.875C223.725 35.1021 223.725 35.3293 223.725 35.7837V54.4123C223.725 54.8667 223.952 55.0939 224.18 55.321C224.407 55.5482 224.634 55.5482 225.088 55.5482C225.316 55.5482 225.77 55.5482 225.997 55.321C226.224 55.0939 226.224 54.8667 226.224 54.4123V41.6903H230.769C231.45 41.6903 231.905 41.9175 232.359 42.3719C232.813 42.8262 233.041 43.2806 233.041 43.9621V54.4123C233.041 54.8667 233.268 55.0939 233.268 55.321C233.495 55.5482 233.722 55.5482 234.177 55.5482C234.404 55.5482 234.858 55.5482 235.085 55.321C235.313 55.0939 235.313 54.8667 235.313 54.4123V43.9621C235.313 42.599 234.858 41.6903 233.949 40.7816C233.041 39.8729 231.905 39.4185 230.769 39.4185H225.997ZM241.447 54.6395V40.7816C241.447 40.3272 241.22 40.1001 240.993 39.8729C240.766 39.6457 240.538 39.6457 240.084 39.6457C239.857 39.6457 239.402 39.6457 239.175 39.8729C238.948 40.1001 238.948 40.3272 238.948 40.7816V54.6395C238.948 55.0939 239.175 55.321 239.402 55.5482C239.629 55.7754 239.857 55.7754 240.311 55.7754C240.538 55.7754 240.993 55.7754 241.22 55.5482C241.22 55.321 241.447 54.8667 241.447 54.6395ZM238.948 35.7837C238.948 36.0109 239.175 36.4652 239.175 36.6924C239.402 36.9196 239.629 36.9196 240.084 36.9196C240.311 36.9196 240.766 36.9196 240.993 36.6924C241.22 36.4652 241.22 36.238 241.22 35.7837C241.22 35.5565 241.22 35.1021 240.993 34.875C240.766 34.6478 240.538 34.6478 240.084 34.6478C239.857 34.6478 239.402 34.875 239.175 34.875C239.175 35.1021 238.948 35.5565 238.948 35.7837ZM247.582 41.9175H252.126C252.807 41.9175 253.262 42.1447 253.716 42.599C254.171 43.0534 254.398 43.5078 254.398 44.1893V51.2318C254.398 51.9134 254.171 52.3677 253.716 52.8221C253.262 53.2764 252.807 53.5036 252.126 53.5036H247.582V41.9175ZM247.582 39.4185V35.7837C247.582 35.3293 247.354 35.1021 247.127 34.875C246.9 34.6478 246.673 34.6478 246.218 34.6478C245.991 34.6478 245.537 34.6478 245.31 34.875C245.082 35.1021 245.082 35.3293 245.082 35.7837V54.4123C245.082 55.0939 245.537 55.5482 246.218 55.5482H251.898C253.262 55.5482 254.398 55.0939 255.079 54.1852C255.988 53.2764 256.443 52.1405 256.443 50.7775V43.7349C256.443 42.3719 255.988 41.4631 255.079 40.5544C254.171 39.6457 253.034 39.1914 251.898 39.1914H247.582V39.4185ZM263.031 54.6395V40.7816C263.031 40.3272 262.804 40.1001 262.577 39.8729C262.35 39.6457 262.123 39.6457 261.668 39.6457C261.441 39.6457 260.987 39.6457 260.759 39.8729C260.532 40.1001 260.532 40.3272 260.532 40.7816V54.6395C260.532 55.0939 260.759 55.321 260.987 55.5482C261.214 55.7754 261.441 55.7754 261.895 55.7754C262.123 55.7754 262.577 55.7754 262.804 55.5482C262.804 55.321 263.031 54.8667 263.031 54.6395ZM260.532 35.7837C260.532 36.0109 260.759 36.4652 260.759 36.6924C260.987 36.9196 261.214 36.9196 261.668 36.9196C261.895 36.9196 262.35 36.9196 262.577 36.6924C262.804 36.4652 262.804 36.238 262.804 35.7837C262.804 35.5565 262.804 35.1021 262.577 34.875C262.35 34.6478 262.123 34.6478 261.668 34.6478C261.441 34.6478 260.987 34.875 260.759 34.875C260.759 35.1021 260.532 35.5565 260.532 35.7837ZM271.211 39.4185V35.7837C271.211 35.3293 270.984 35.1021 270.984 34.875C270.756 34.6478 270.529 34.6478 270.075 34.6478C269.848 34.6478 269.393 34.6478 269.166 34.875C268.939 35.1021 268.939 35.3293 268.939 35.7837V39.4185H267.803C267.348 39.4185 267.121 39.6457 266.894 39.6457C266.667 39.8729 266.667 40.1001 266.667 40.5544C266.667 40.7816 266.667 41.236 266.894 41.4631C267.121 41.6903 267.348 41.6903 267.803 41.6903H268.939V54.4123C268.939 54.8667 269.166 55.0939 269.166 55.321C269.393 55.5482 269.62 55.5482 270.075 55.5482C270.302 55.5482 270.756 55.5482 270.984 55.321C271.211 55.0939 271.211 54.8667 271.211 54.4123V41.6903H274.619C275.073 41.6903 275.3 41.4631 275.528 41.236C275.755 41.0088 275.755 40.7816 275.755 40.3272C275.755 40.1001 275.755 39.6457 275.528 39.4185C275.3 39.1914 275.073 39.1914 274.619 39.1914H271.211V39.4185ZM281.662 54.6395V40.7816C281.662 40.3272 281.435 40.1001 281.208 39.8729C280.981 39.6457 280.753 39.6457 280.526 39.6457C280.299 39.6457 279.845 39.6457 279.617 39.8729C279.39 40.1001 279.39 40.3272 279.39 40.7816V54.6395C279.39 55.0939 279.617 55.321 279.845 55.5482C280.072 55.7754 280.299 55.7754 280.753 55.7754C280.981 55.7754 281.435 55.7754 281.662 55.5482C281.662 55.321 281.662 54.8667 281.662 54.6395ZM279.39 35.7837C279.39 36.0109 279.617 36.4652 279.617 36.6924C279.845 36.9196 280.072 36.9196 280.526 36.9196C280.753 36.9196 281.208 36.9196 281.435 36.6924C281.662 36.4652 281.662 36.238 281.662 35.7837C281.662 35.5565 281.662 35.1021 281.435 34.875C281.208 34.6478 280.981 34.6478 280.526 34.6478C280.299 34.6478 279.845 34.875 279.617 34.875C279.39 35.1021 279.39 35.5565 279.39 35.7837ZM297.112 50.5503V44.4165C297.112 43.0534 296.658 41.9175 295.522 40.7816C294.613 39.8729 293.25 39.1914 291.886 39.1914H290.523C289.16 39.1914 288.024 39.6457 286.888 40.7816C285.979 41.6903 285.297 43.0534 285.297 44.4165V50.5503C285.297 51.9134 285.752 53.2764 286.888 54.1852C287.797 55.0939 289.16 55.5482 290.523 55.5482H291.886C293.25 55.5482 294.613 55.0939 295.522 54.1852C296.658 53.2764 297.112 52.1405 297.112 50.5503ZM294.84 50.5503C294.84 51.2318 294.613 51.9134 293.931 52.5949C293.25 53.2764 292.795 53.5036 291.886 53.5036H290.523C289.841 53.5036 289.16 53.2764 288.478 52.5949C288.024 52.1405 287.569 51.459 287.569 50.5503V44.4165C287.569 43.7349 287.797 43.0534 288.478 42.3719C288.933 41.9175 289.614 41.4631 290.523 41.4631H291.886C292.568 41.4631 293.25 41.6903 293.931 42.3719C294.386 42.8262 294.84 43.5078 294.84 44.4165V50.5503ZM312.562 54.6395V44.1893C312.562 42.8262 312.107 41.9175 311.199 41.0088C310.29 40.1001 309.154 39.6457 308.018 39.6457H302.338C301.656 39.6457 301.202 40.1001 301.202 40.7816V54.6395C301.202 55.0939 301.429 55.321 301.656 55.5482C301.883 55.7754 302.11 55.7754 302.565 55.7754C302.792 55.7754 303.246 55.7754 303.474 55.5482C303.701 55.321 303.701 55.0939 303.701 54.6395V41.9175H308.245C308.927 41.9175 309.381 42.1447 309.835 42.599C310.29 43.0534 310.517 43.5078 310.517 44.1893V54.6395C310.517 55.0939 310.744 55.321 310.744 55.5482C310.971 55.7754 311.199 55.7754 311.653 55.7754C311.88 55.7754 312.335 55.7754 312.562 55.5482C312.335 55.321 312.562 54.8667 312.562 54.6395ZM345.279 54.6395V40.7816C345.279 40.3272 345.052 40.1001 344.825 39.8729C344.598 39.6457 344.37 39.6457 343.916 39.6457C343.689 39.6457 343.234 39.6457 343.007 39.8729C342.78 40.1001 342.78 40.3272 342.78 40.7816V54.6395C342.78 55.0939 343.007 55.321 343.234 55.5482C343.462 55.7754 343.689 55.7754 344.143 55.7754C344.37 55.7754 344.825 55.7754 345.052 55.5482C345.052 55.321 345.279 54.8667 345.279 54.6395ZM342.78 35.7837C342.78 36.0109 343.007 36.4652 343.007 36.6924C343.234 36.9196 343.462 36.9196 343.916 36.9196C344.143 36.9196 344.598 36.9196 344.825 36.6924C345.052 36.4652 345.052 36.238 345.052 35.7837C345.052 35.5565 345.052 35.1021 344.825 34.875C344.598 34.6478 344.37 34.6478 343.916 34.6478C343.689 34.6478 343.234 34.875 343.007 34.875C343.007 35.1021 342.78 35.5565 342.78 35.7837ZM356.185 47.597L360.275 41.236C360.502 41.0088 360.502 40.7816 360.502 40.5544C360.502 40.3272 360.275 39.8729 360.047 39.6457C359.82 39.4185 359.593 39.4185 359.139 39.4185C358.684 39.4185 358.457 39.6457 358.23 39.8729L354.594 45.3252L350.959 39.8729C350.732 39.4185 350.505 39.4185 350.05 39.4185C349.823 39.4185 349.369 39.6457 349.142 39.6457C348.914 39.8729 348.687 40.1001 348.687 40.5544V40.7816C348.687 41.0088 348.687 41.0088 348.914 41.236L353.004 47.597L348.914 53.958C348.687 54.1852 348.687 54.4123 348.687 54.6395C348.687 54.8667 348.914 55.321 349.142 55.5482C349.369 55.7754 349.596 56.0026 350.05 56.0026C350.505 56.0026 350.732 55.7754 350.959 55.5482L354.594 50.0959L358.23 55.5482C358.457 55.7754 358.684 56.0026 359.139 56.0026C359.366 56.0026 359.82 55.7754 360.047 55.7754C360.275 55.5482 360.502 55.321 360.502 54.8667C360.502 54.6395 360.502 54.4123 360.275 54.1852L356.185 47.597ZM368.681 39.4185V35.7837C368.681 35.3293 368.454 35.1021 368.454 34.875C368.227 34.6478 367.999 34.6478 367.545 34.6478C367.318 34.6478 366.863 34.6478 366.636 34.875C366.409 35.1021 366.409 35.3293 366.409 35.7837V39.4185H365.273C364.819 39.4185 364.591 39.6457 364.364 39.6457C364.137 39.8729 364.137 40.1001 364.137 40.5544C364.137 40.7816 364.364 41.236 364.364 41.4631C364.591 41.6903 364.819 41.6903 365.273 41.6903H366.409V54.4123C366.409 54.6395 366.636 55.0939 366.636 55.321C366.863 55.5482 367.091 55.5482 367.545 55.5482C367.772 55.5482 368.227 55.5482 368.454 55.321C368.681 55.0939 368.681 54.8667 368.681 54.4123V41.6903H372.089C372.544 41.6903 372.771 41.4631 372.998 41.236C373.225 41.0088 373.225 40.7816 373.225 40.3272C373.225 40.1001 373.225 39.6457 372.998 39.4185C372.771 39.1914 372.544 39.1914 372.089 39.1914H368.681V39.4185ZM388.675 54.6395V40.7816C388.675 40.3272 388.448 40.1001 388.448 39.8729C388.221 39.6457 387.993 39.6457 387.539 39.6457C387.312 39.6457 386.857 39.8729 386.63 39.8729C386.403 40.1001 386.403 40.3272 386.403 40.7816V53.5036H381.859C381.177 53.5036 380.723 53.2764 380.268 52.8221C379.814 52.3677 379.587 51.9134 379.587 51.2318V40.7816C379.587 40.3272 379.36 40.1001 379.132 39.8729C378.905 39.6457 378.678 39.6457 378.224 39.6457C377.996 39.6457 377.542 39.8729 377.315 39.8729C377.088 40.1001 377.088 40.3272 377.088 40.7816V51.2318C377.088 52.5949 377.542 53.7308 378.451 54.6395C379.36 55.5482 380.496 56.0026 381.632 56.0026H387.312C388.221 55.7754 388.675 55.321 388.675 54.6395ZM401.626 43.0534C401.626 42.599 401.626 42.1447 401.398 41.6903C401.171 41.236 400.944 40.7816 400.717 40.5544C400.49 40.3272 400.035 39.8729 399.581 39.8729C399.126 39.6457 398.672 39.6457 398.218 39.6457H393.673C392.992 39.6457 392.537 40.1001 392.537 40.7816V54.6395C392.537 54.8667 392.765 55.321 392.992 55.5482C393.219 55.7754 393.446 55.7754 393.901 55.7754C394.128 55.7754 394.582 55.7754 394.81 55.5482C395.037 55.321 395.037 55.0939 395.037 54.6395V41.9175H398.445C398.672 41.9175 399.126 42.1447 399.354 42.1447C399.581 42.3719 399.581 42.599 399.581 43.0534C399.581 43.5078 399.808 43.7349 400.035 43.9621C400.262 44.1893 400.49 44.1893 400.944 44.1893C401.171 44.1893 401.626 44.1893 401.853 43.9621C401.626 43.7349 401.626 43.2806 401.626 43.0534ZM407.306 46.4611V44.1893C407.306 43.5078 407.533 43.0534 407.987 42.599C408.442 42.1447 408.896 41.9175 409.578 41.9175H411.85C412.531 41.9175 412.986 42.1447 413.44 42.599C413.895 43.0534 414.122 43.7349 414.122 44.1893V46.4611H407.306ZM407.306 48.7329H415.485C416.167 48.7329 416.621 48.2785 416.621 47.597V44.1893C416.621 42.8262 416.167 41.9175 415.258 41.0088C414.349 40.1001 413.213 39.6457 412.077 39.6457H409.805C408.669 39.6457 407.306 40.1001 406.624 41.0088C405.715 41.9175 405.261 43.0534 405.261 44.1893V51.2318C405.261 52.5949 405.715 53.7308 406.624 54.6395C407.533 55.5482 408.669 56.0026 409.805 56.0026H415.485C415.939 56.0026 416.167 55.7754 416.394 55.5482C416.621 55.321 416.621 55.0939 416.621 54.6395C416.621 54.4123 416.394 53.958 416.394 53.7308C416.167 53.5036 415.939 53.5036 415.485 53.5036H409.578C408.896 53.5036 408.442 53.2764 407.987 52.8221C407.533 52.3677 407.306 51.9134 407.306 51.2318V48.7329ZM431.389 40.7816C431.844 41.0088 432.071 41.236 432.071 41.6903C432.071 41.9175 431.844 42.3719 431.844 42.599C431.617 42.8262 431.389 43.0534 430.935 43.0534C430.708 43.0534 430.48 43.0534 430.48 42.8262C429.117 42.1447 427.754 41.9175 426.618 41.9175C425.482 41.9175 424.119 42.1447 423.437 42.8262C423.21 43.0534 423.21 43.2806 423.21 43.5078C423.21 43.7349 423.437 43.9621 423.437 44.1893L430.708 48.96C431.162 49.1872 431.617 49.6416 431.844 50.0959C432.071 50.5503 432.071 51.0046 432.071 51.6862C432.071 52.1405 431.844 52.8221 431.616 53.2764C431.389 53.7308 430.935 54.1852 430.48 54.4123C429.117 55.321 427.527 55.7754 425.936 55.7754C424.346 55.7754 422.756 55.321 421.165 54.4123C420.711 54.1852 420.484 53.958 420.484 53.5036C420.484 53.2764 420.484 52.8221 420.711 52.5949C420.938 52.3677 421.165 52.1405 421.62 52.1405C421.847 52.1405 422.074 52.1405 422.301 52.3677C423.437 53.0493 424.8 53.2764 425.936 53.2764C427.072 53.2764 428.208 52.8221 429.117 52.3677C429.344 52.1405 429.572 51.9134 429.572 51.6862C429.572 51.459 429.344 51.0047 429.117 51.0047L421.847 46.2339C421.392 46.0067 421.165 45.5524 420.938 45.098C420.711 44.6436 420.711 44.1893 420.711 43.7349C420.711 43.2806 420.938 42.8262 420.938 42.3719C421.165 41.9175 421.392 41.4631 421.847 41.236C422.983 40.3273 424.573 39.8729 426.391 39.8729C427.981 39.6457 429.799 39.8729 431.389 40.7816Z" fill="#878786"/>
<path fill-rule="evenodd" clip-rule="evenodd" d="M137.842 48.96H147.612L149.657 54.8667C149.884 55.3211 149.884 55.5482 150.338 55.7754C150.566 55.7754 150.793 55.7754 151.02 55.7754C151.475 55.7754 151.702 55.5482 151.929 55.321C152.156 55.0939 152.383 54.8667 152.383 54.4123C152.383 54.1852 152.383 54.1852 152.383 53.958L144.204 29.6499C143.977 28.9683 143.522 28.7411 142.841 28.7411C142.614 28.7411 141.705 28.7411 141.023 28.7411C140.569 28.7411 139.887 29.1955 139.887 29.6499L131.708 53.958C131.481 54.8667 131.935 55.7754 132.844 55.7754C133.298 55.7754 134.207 55.7754 134.434 55.7754C134.889 55.7754 135.57 55.3211 135.57 54.8667L137.842 48.96ZM146.703 46.2339H138.751L142.841 34.1934L143.977 37.8283L146.703 46.2339Z" fill="#878786"/>
<path fill-rule="evenodd" clip-rule="evenodd" d="M171.923 55.7754C172.377 55.7754 172.604 55.5482 172.832 55.321C173.059 55.0939 173.286 54.6395 173.286 54.4123C173.286 53.958 173.059 53.7308 173.059 53.5036C172.832 53.2764 172.377 53.0493 172.15 53.0493H162.835C162.153 53.0493 161.471 52.8221 161.017 52.3677C160.563 51.9134 160.335 51.2318 160.335 50.3231V42.1447H169.651C170.105 42.1447 170.332 41.9175 170.56 41.6903C170.787 41.4631 170.787 41.0088 170.787 40.7816C170.787 40.3273 170.787 40.1001 170.56 39.8729C170.332 39.6457 170.105 39.4185 169.651 39.4185H160.335V33.9662C160.335 33.2847 160.563 32.6032 161.017 32.1488C161.471 31.6945 162.153 31.4673 162.835 31.4673H172.15C172.604 31.4673 172.832 31.2401 173.059 31.0129C173.286 30.7857 173.513 30.3314 173.513 30.1042C173.513 29.6499 173.286 29.4227 173.286 29.1955C173.059 28.9683 172.604 28.7411 172.377 28.7411H160.79C159.199 28.7411 158.063 29.1955 156.927 30.3314C155.791 31.4673 155.337 32.6032 155.337 34.1934V50.3231C155.337 51.9134 155.791 53.2764 156.927 54.1852C158.063 55.321 159.199 55.7754 160.79 55.7754H171.923Z" fill="#878786"/>
<path fill-rule="evenodd" clip-rule="evenodd" d="M111.941 55.7754H114.668C116.485 55.7754 118.076 55.3211 119.666 54.6395C120.802 54.1852 121.484 53.5036 121.938 52.5949C122.393 51.6862 122.62 50.7775 122.62 49.8688C122.62 48.96 122.62 48.2785 122.165 47.597C121.711 46.6883 121.256 46.2339 120.348 45.3252L111.941 36.9196C111.487 36.4652 110.578 35.5565 110.578 34.6478C110.578 33.7391 110.805 32.6032 111.032 32.376C111.714 31.4673 112.396 31.2401 113.304 31.2401H114.44H119.893C120.348 31.2401 120.575 31.0129 120.802 30.7857C121.029 30.5586 121.029 30.1042 121.029 29.877C121.029 29.4227 120.802 29.1955 120.802 28.9683C120.575 28.7411 120.12 28.514 119.893 28.514H116.485H113.759C111.941 28.514 110.351 28.9683 108.76 29.6499C107.624 30.1042 106.943 30.7857 106.488 31.6945C106.034 32.6032 105.807 33.5119 105.807 34.4206C105.807 35.3293 106.034 36.0109 106.261 36.6924C107.17 38.737 116.712 47.3698 116.485 47.3698C116.94 47.8242 117.848 48.7329 117.848 49.6416C117.848 50.5503 117.621 51.6862 117.394 51.9134C116.712 52.8221 116.031 53.0493 115.122 53.0493H113.986H107.17C106.715 53.0493 106.488 53.2764 106.261 53.5036C106.034 53.7308 106.034 54.1852 106.034 54.4123C106.034 54.8667 106.261 55.0939 106.261 55.3211C106.488 55.5482 106.943 55.7754 107.17 55.7754H111.941Z" fill="#878786"/>
<path fill-rule="evenodd" clip-rule="evenodd" d="M102.171 55.7754C102.625 55.7754 102.852 55.5482 103.08 55.321C103.307 55.0939 103.534 54.6395 103.534 54.4123C103.534 53.958 103.307 53.7308 103.307 53.5036C103.08 53.2764 102.625 53.0493 102.398 53.0493H93.0827C92.4011 53.0493 91.7195 52.8221 91.265 52.3677C90.8106 51.9134 90.5834 51.2318 90.5834 50.3231V42.1447H99.8988C100.353 42.1447 100.58 41.9175 100.808 41.6903C101.035 41.4631 101.035 41.0088 101.035 40.7816C101.035 40.3273 101.035 40.1001 100.808 39.8729C100.58 39.6457 100.353 39.4185 99.8988 39.4185H90.5834V33.9662C90.5834 33.2847 90.8106 32.6032 91.265 32.1488C91.7195 31.6945 92.4011 31.4673 93.0827 31.4673H102.398C102.852 31.4673 103.08 31.2401 103.307 31.0129C103.534 30.7857 103.761 30.3314 103.761 30.1042C103.761 29.6499 103.534 29.4227 103.534 29.1955C103.307 28.9683 102.852 28.7411 102.625 28.7411H91.0378C89.4474 28.7411 88.3114 29.1955 87.1754 30.3314C86.0394 31.4673 85.585 32.6032 85.585 34.1934V50.3231C85.585 51.9134 86.0394 53.2764 87.1754 54.1852C88.3114 55.321 89.4474 55.7754 91.0378 55.7754H102.171Z" fill="#878786"/>
<path fill-rule="evenodd" clip-rule="evenodd" d="M126.936 53.0493H125.573C124.891 53.0493 124.437 53.5036 124.437 54.1851V54.6395C124.437 55.321 124.891 55.7754 125.573 55.7754H126.936C127.618 55.7754 128.072 55.321 128.072 54.6395V54.1851C128.299 53.5036 127.618 53.0493 126.936 53.0493Z" fill="#878786"/>
<path fill-rule="evenodd" clip-rule="evenodd" d="M328.693 42.1447H338.008C338.463 42.1447 338.69 41.9175 338.917 41.6903C339.144 41.4631 339.144 41.0088 339.144 40.7816C339.144 40.3273 339.144 40.1001 338.917 39.8729C338.69 39.6457 338.463 39.4185 338.008 39.4185H328.693V33.9662C328.693 33.2847 328.92 32.6032 329.374 32.1488C329.829 31.6945 330.51 31.4673 331.192 31.4673H340.507C340.962 31.4673 341.189 31.2401 341.416 31.0129C341.643 30.7857 341.871 30.3314 341.871 30.1042C341.871 29.6499 341.643 29.4227 341.643 29.1955C341.416 28.9683 340.962 28.7411 340.735 28.7411H329.147C327.557 28.7411 326.421 29.1955 325.285 30.3314C324.149 31.4673 323.694 32.6032 323.694 34.1934V53.5036V54.4123C323.694 55.0939 324.376 55.7754 325.058 55.7754H327.33C328.011 55.7754 328.693 55.0939 328.693 54.4123V53.5036V42.1447Z" fill="#EF7C00"/>
<path fill-rule="evenodd" clip-rule="evenodd" d="M63.0917 65.0897V62.818C63.0917 62.5908 63.0917 62.5908 62.8645 62.3636L62.6373 62.1364C62.4101 62.1364 62.4101 62.1364 62.4101 62.3636C62.4101 62.3636 62.1829 62.5908 62.1829 62.818V65.0897H61.7285C61.5013 65.0897 61.5013 65.0897 61.2741 65.3169L61.0469 65.5441C61.0469 65.7713 61.0469 65.7713 61.2741 65.7713C61.2741 65.7713 61.5013 65.9985 61.7285 65.9985H62.1829V71.2236C62.1829 71.4507 62.1829 71.4508 62.4101 71.6779L62.6373 71.9051C62.8645 71.9051 62.8645 71.9051 62.8645 71.6779C62.8645 71.6779 63.0917 71.4507 63.0917 71.2236V65.9985H64.4549C64.6821 65.9985 64.6821 65.9985 64.6821 65.7713L64.9093 65.5441C64.9093 65.3169 64.9093 65.3169 64.6821 65.3169C64.6821 65.3169 64.4549 65.0897 64.2277 65.0897H63.0917ZM74.4519 65.0897V62.818C74.4519 62.5908 74.4519 62.5908 74.2247 62.3636L73.9975 62.1364C73.7703 62.1364 73.7703 62.1364 73.7703 62.3636C73.7703 62.3636 73.5431 62.5908 73.5431 62.818V71.2236C73.5431 71.4507 73.5431 71.4508 73.7703 71.6779L73.9975 71.9051C74.2247 71.9051 74.2247 71.9051 74.2247 71.6779C74.2247 71.6779 74.4519 71.4507 74.4519 71.2236V65.9985H76.2695C76.4967 65.9985 76.7239 65.9985 76.9511 66.2256C77.1783 66.4528 77.1783 66.68 77.1783 66.9072V70.9964C77.1783 71.2236 77.1783 71.2236 77.4055 71.4508L77.6327 71.6779C77.8599 71.6779 77.8599 71.6779 77.8599 71.4508C77.8599 71.4508 78.0871 71.2236 78.0871 70.9964V66.9072C78.0871 66.4528 77.8599 65.9985 77.6327 65.5441C77.1783 65.0897 76.9511 65.0897 76.2695 65.0897H74.4519ZM87.6297 67.8159V66.9072C87.6297 66.68 87.6297 66.4528 87.8569 66.2256C88.0841 65.9985 88.3113 65.9985 88.5385 65.9985H89.4473C89.6745 65.9985 89.9017 65.9985 90.1289 66.2256C90.3561 66.4528 90.3561 66.68 90.3561 66.9072V67.8159H87.6297ZM87.6297 68.7246H90.8105C91.0377 68.7246 91.2649 68.4974 91.2649 68.2702V66.9072C91.2649 66.4528 91.0377 65.9985 90.8105 65.5441C90.3561 65.0897 90.1289 65.0897 89.4473 65.0897H88.5385C88.0841 65.0897 87.6297 65.3169 87.1753 65.5441C86.7209 65.9985 86.7209 66.2256 86.7209 66.9072V69.6333C86.7209 70.0877 86.9481 70.542 87.1753 70.9964C87.6297 71.4507 88.0841 71.4508 88.5385 71.4508H90.8105C91.0377 71.4508 91.0377 71.4507 91.2649 71.2236L91.4921 70.9964C91.4921 70.7692 91.4922 70.7692 91.2649 70.7692C91.0377 70.7692 91.0377 70.542 90.8105 70.542H88.5385C88.3113 70.542 88.0841 70.542 87.8569 70.3149C87.6297 70.0877 87.6297 69.8605 87.6297 69.6333V68.7246ZM113.304 71.4508C113.531 71.4508 113.531 71.4507 113.758 71.2236L113.985 70.9964C113.985 70.7692 113.985 70.7692 113.758 70.7692C113.758 70.7692 113.531 70.542 113.304 70.542H111.94C111.713 70.542 111.486 70.542 111.259 70.3149C111.032 70.0877 111.032 69.8605 111.032 69.6333V66.9072C111.032 66.68 111.032 66.4528 111.259 66.2256C111.486 65.9985 111.713 65.9985 111.94 65.9985H113.304C113.531 65.9985 113.531 65.9985 113.758 65.7713L113.985 65.5441C113.985 65.3169 113.985 65.3169 113.758 65.3169C113.758 65.3169 113.531 65.0897 113.304 65.0897H111.94C111.486 65.0897 111.032 65.3169 110.577 65.5441C110.123 65.9985 110.123 66.4528 110.123 66.9072V69.6333C110.123 70.0877 110.35 70.542 110.577 70.9964C111.032 71.4507 111.486 71.4508 111.94 71.4508H113.304ZM126.936 69.4061V66.9072C126.936 66.4528 126.709 65.7713 126.254 65.5441C125.8 65.0897 125.345 64.8626 124.891 64.8626H124.437C123.982 64.8626 123.301 65.0897 123.073 65.5441C122.619 65.9985 122.392 66.4528 122.392 66.9072V69.4061C122.392 70.0877 122.619 70.542 123.073 70.7692C123.528 71.2236 123.982 71.4508 124.437 71.4508H124.891C125.573 71.4508 126.027 71.2236 126.254 70.7692C126.709 70.542 126.936 70.0877 126.936 69.4061ZM126.027 69.4061C126.027 69.6333 126.027 70.0877 125.8 70.0877C125.573 70.3149 125.345 70.3149 125.118 70.3149H124.664C124.437 70.3149 123.982 70.3149 123.982 70.0877C123.301 70.0877 123.301 69.8605 123.301 69.4061V66.9072C123.301 66.68 123.301 66.2256 123.528 66.2256C123.755 65.9985 123.982 65.9985 124.209 65.9985H124.664C124.891 65.9985 125.345 65.9985 125.345 66.2256C125.573 66.4528 125.573 66.68 125.573 66.9072V69.4061H126.027ZM138.296 65.9985V71.2236C138.296 71.4507 138.296 71.4508 138.523 71.6779L138.75 71.9051C138.978 71.9051 138.978 71.9051 138.978 71.6779C138.978 71.6779 139.205 71.4507 139.205 71.2236V65.9985H140.114C140.341 65.9985 140.568 65.9985 140.795 66.2256C141.023 66.4528 141.023 66.68 141.023 66.9072V70.9964C141.023 71.2236 141.023 71.2236 141.25 71.4508L141.477 71.6779C141.704 71.6779 141.704 71.6779 141.704 71.4508C141.704 71.4508 141.931 71.2236 141.931 70.9964V66.9072C141.931 66.4528 141.704 65.9985 141.477 65.5441C141.023 65.0897 140.568 65.0897 140.114 65.0897H136.024C135.797 65.0897 135.57 65.3169 135.57 65.5441V71.2236C135.57 71.4507 135.57 71.4508 135.797 71.6779L136.024 71.9051C136.251 71.9051 136.251 71.9051 136.251 71.6779C136.251 71.6779 136.478 71.4507 136.478 71.2236V65.9985H138.296ZM151.474 70.542V65.7713H153.292C153.519 65.7713 153.746 65.7713 153.973 65.9985C154.2 66.2256 154.2 66.4528 154.2 66.68V69.4061C154.2 69.6333 154.2 69.8605 153.973 70.0877C153.746 70.3149 153.519 70.3149 153.292 70.3149H151.474V70.542ZM151.474 71.4508H153.292C153.746 71.4508 154.2 71.2236 154.655 70.9964C155.109 70.542 155.109 70.0877 155.109 69.6333V66.9072C155.109 66.4528 154.882 65.9985 154.655 65.5441C154.2 65.0897 153.973 65.0897 153.292 65.0897H151.019C150.792 65.0897 150.565 65.3169 150.565 65.5441V73.9497C150.565 74.1769 150.565 74.1769 150.792 74.4041L151.019 74.6313C151.247 74.6313 151.247 74.6313 151.247 74.4041C151.247 74.4041 151.474 74.1769 151.474 73.9497V71.4508ZM165.106 71.4508C165.333 71.4508 165.333 71.4507 165.561 71.2236L165.788 70.9964C165.788 70.7692 165.788 70.7692 165.561 70.7692C165.561 70.7692 165.333 70.542 165.106 70.542C164.879 70.542 164.879 70.542 164.879 70.3149L164.652 70.0877V62.5908C164.652 62.3636 164.652 62.3636 164.424 62.1364L164.197 61.9092C163.97 61.9092 163.97 61.9092 163.97 62.1364C163.97 62.1364 163.743 62.3636 163.743 62.5908V70.0877C163.743 70.3149 163.743 70.542 163.743 70.542C163.743 70.7692 163.97 70.7692 163.97 70.9964C164.197 71.2236 164.197 71.2236 164.424 71.2236C164.879 71.4507 165.106 71.4508 165.106 71.4508ZM175.103 67.8159V66.9072C175.103 66.68 175.103 66.4528 175.33 66.2256C175.557 65.9985 175.785 65.9985 176.012 65.9985H176.921C177.148 65.9985 177.375 65.9985 177.602 66.2256C177.829 66.4528 177.829 66.68 177.829 66.9072V67.8159H175.103ZM175.103 68.7246H178.284C178.511 68.7246 178.738 68.4974 178.738 68.2702V66.9072C178.738 66.4528 178.511 65.9985 178.284 65.5441C177.829 65.0897 177.602 65.0897 176.921 65.0897H176.012C175.557 65.0897 175.103 65.3169 174.649 65.5441C174.194 65.9985 174.194 66.2256 174.194 66.9072V69.6333C174.194 70.0877 174.421 70.542 174.649 70.9964C175.103 71.4507 175.557 71.4508 176.012 71.4508H178.284C178.511 71.4508 178.511 71.4507 178.738 71.2236L178.966 70.9964C178.966 70.7692 178.966 70.7692 178.738 70.7692C178.738 70.7692 178.511 70.542 178.284 70.542H176.012C175.785 70.542 175.557 70.542 175.33 70.3149C175.103 70.0877 175.103 69.8605 175.103 69.6333V68.7246ZM189.417 65.0897V62.818C189.417 62.5908 189.417 62.5908 189.19 62.3636L188.962 62.1364C188.735 62.1364 188.735 62.1364 188.735 62.3636C188.735 62.3636 188.508 62.5908 188.508 62.818V65.0897H188.054C187.826 65.0897 187.826 65.0897 187.599 65.3169L187.372 65.5441C187.372 65.7713 187.372 65.7713 187.599 65.7713C187.599 65.7713 187.826 65.9985 188.054 65.9985H188.508V71.2236C188.508 71.4507 188.508 71.4508 188.735 71.6779L188.962 71.9051C189.19 71.9051 189.19 71.9051 189.19 71.6779C189.19 71.6779 189.417 71.4507 189.417 71.2236V65.9985H190.78C191.007 65.9985 191.007 65.9985 191.007 65.7713L191.235 65.5441C191.235 65.3169 191.235 65.3169 191.007 65.3169C191.007 65.3169 190.78 65.0897 190.553 65.0897H189.417ZM200.777 67.8159V66.9072C200.777 66.68 200.777 66.4528 201.004 66.2256C201.231 65.9985 201.459 65.9985 201.686 65.9985H202.595C202.822 65.9985 203.049 65.9985 203.276 66.2256C203.503 66.4528 203.504 66.68 203.504 66.9072V67.8159H200.777ZM200.777 68.7246H203.958C204.185 68.7246 204.412 68.4974 204.412 68.2702V66.9072C204.412 66.4528 204.185 65.9985 203.958 65.5441C203.503 65.0897 203.276 65.0897 202.595 65.0897H201.686C201.231 65.0897 200.777 65.3169 200.323 65.5441C199.868 65.9985 199.868 66.2256 199.868 66.9072V69.6333C199.868 70.0877 200.095 70.542 200.323 70.9964C200.777 71.4507 201.231 71.4508 201.686 71.4508H203.958C204.185 71.4508 204.185 71.4507 204.412 71.2236L204.64 70.9964C204.64 70.7692 204.64 70.7692 204.412 70.7692C204.412 70.7692 204.185 70.542 203.958 70.542H201.686C201.459 70.542 201.231 70.542 201.004 70.3149C200.777 70.0877 200.777 69.8605 200.777 69.6333V68.7246ZM223.952 67.8159V66.9072C223.952 66.68 223.952 66.4528 224.179 66.2256C224.406 65.9985 224.633 65.9985 224.861 65.9985H225.769C225.997 65.9985 226.224 65.9985 226.451 66.2256C226.678 66.4528 226.678 66.68 226.678 66.9072V67.8159H223.952ZM223.952 68.7246H227.133C227.36 68.7246 227.587 68.4974 227.587 68.2702V66.9072C227.587 66.4528 227.36 65.9985 227.133 65.5441C226.678 65.0897 226.451 65.0897 225.769 65.0897H224.861C224.406 65.0897 223.952 65.3169 223.497 65.5441C223.043 65.9985 223.043 66.2256 223.043 66.9072V69.6333C223.043 70.0877 223.27 70.542 223.497 70.9964C223.952 71.4507 224.406 71.4508 224.861 71.4508H227.133C227.36 71.4508 227.36 71.4507 227.587 71.2236L227.814 70.9964C227.814 70.7692 227.814 70.7692 227.587 70.7692C227.587 70.7692 227.36 70.542 227.133 70.542H224.861C224.633 70.542 224.406 70.542 224.179 70.3149C223.952 70.0877 223.952 69.8605 223.952 69.6333V68.7246ZM239.174 68.2702L240.765 65.7713V65.5441C240.765 65.3169 240.765 65.3169 240.538 65.3169L240.31 65.0897C240.083 65.0897 240.083 65.0897 239.856 65.3169L238.493 67.5887L237.13 65.3169C237.13 65.0897 236.902 65.0897 236.675 65.0897C236.448 65.0897 236.448 65.0897 236.448 65.3169L236.221 65.5441C236.221 65.5441 236.221 65.5441 236.221 65.7713C236.221 65.7713 236.221 65.7713 236.221 65.9985L237.811 68.4974L236.221 70.9964V71.2236C236.221 71.4507 236.221 71.4508 236.448 71.4508L236.675 71.6779C236.902 71.6779 236.902 71.6779 237.13 71.4508L238.493 69.179L239.856 71.4508C239.856 71.6779 240.083 71.6779 240.31 71.6779C240.538 71.6779 240.538 71.6779 240.538 71.4508L240.765 71.2236V70.9964L239.174 68.2702ZM250.535 65.0897V62.818C250.535 62.5908 250.535 62.5908 250.307 62.3636L250.08 62.1364C249.853 62.1364 249.853 62.1364 249.626 62.3636C249.626 62.3636 249.399 62.5908 249.399 62.818V71.2236C249.399 71.4507 249.399 71.4508 249.626 71.6779L249.853 71.9051C250.08 71.9051 250.08 71.9051 250.08 71.6779C250.08 71.6779 250.307 71.4507 250.307 71.2236V65.9985H252.125C252.352 65.9985 252.579 65.9985 252.807 66.2256C253.034 66.4528 253.034 66.68 253.034 66.9072V70.9964C253.034 71.2236 253.034 71.2236 253.261 71.4508L253.488 71.6779C253.715 71.6779 253.715 71.6779 253.715 71.4508C253.715 71.4508 253.943 71.2236 253.943 70.9964V66.9072C253.943 66.4528 253.715 65.9985 253.488 65.5441C253.034 65.0897 252.807 65.0897 252.125 65.0897H250.535ZM263.712 70.9964V65.3169C263.712 65.0897 263.712 65.0897 263.485 64.8626L263.258 64.6354C263.031 64.6354 263.031 64.6354 262.804 64.8626L262.576 65.0897V70.7692C262.576 70.9964 262.576 70.9964 262.804 71.2236L263.031 71.4508C263.258 71.4508 263.258 71.4507 263.258 71.2236C263.712 71.4507 263.712 71.2236 263.712 70.9964ZM262.804 62.5908C262.804 62.818 262.804 62.818 263.031 62.818C263.031 62.818 263.258 63.0451 263.485 63.0451C263.712 63.0451 263.712 63.0451 263.712 62.818L263.94 62.5908C263.94 62.3636 263.94 62.3636 263.712 62.3636L263.485 62.1364C263.258 62.1364 263.258 62.1364 263.031 62.3636C262.804 62.3636 262.804 62.5908 262.804 62.5908ZM273.255 65.9985H275.073C275.3 65.9985 275.527 65.9985 275.754 66.2256C275.981 66.4528 275.981 66.68 275.981 66.9072V69.6333C275.981 69.8605 275.981 70.0877 275.754 70.3149C275.527 70.542 275.3 70.542 275.073 70.542H273.255V65.9985ZM273.255 65.0897V62.818C273.255 62.5908 273.255 62.5908 273.028 62.3636L272.801 62.1364C272.573 62.1364 272.573 62.1364 272.573 62.3636C272.573 62.3636 272.346 62.5908 272.346 62.818V71.2236C272.346 71.4507 272.573 71.6779 272.801 71.6779H275.073C275.527 71.6779 275.981 71.4507 276.436 71.2236C276.89 70.7692 276.89 70.3149 276.89 69.8605V67.1344C276.89 66.68 276.663 66.2256 276.436 65.7713C275.981 65.3169 275.754 65.3169 275.073 65.3169H273.255V65.0897ZM286.433 70.9964V65.3169C286.433 65.0897 286.433 65.0897 286.206 64.8626L285.978 64.6354C285.751 64.6354 285.751 64.6354 285.524 64.8626C285.297 65.0897 285.297 65.0897 285.297 65.0897V70.7692C285.297 70.9964 285.297 70.9964 285.524 71.2236L285.751 71.4508C285.978 71.4508 285.978 71.4507 285.978 71.2236C286.433 71.4507 286.433 71.2236 286.433 70.9964ZM285.524 62.5908C285.524 62.818 285.524 62.818 285.751 62.818C285.751 62.818 285.978 63.0451 286.206 63.0451C286.433 63.0451 286.433 63.0451 286.433 62.818L286.66 62.5908C286.66 62.3636 286.66 62.3636 286.433 62.3636L286.206 62.1364C285.978 62.1364 285.978 62.1364 285.751 62.3636C285.524 62.3636 285.524 62.5908 285.524 62.5908ZM296.884 65.0897V62.818C296.884 62.5908 296.884 62.5908 296.657 62.3636L296.43 62.1364C296.203 62.1364 296.203 62.1364 296.203 62.3636C296.203 62.3636 295.975 62.5908 295.975 62.818V65.0897H295.521C295.294 65.0897 295.294 65.0897 295.067 65.3169L294.839 65.5441C294.839 65.7713 294.839 65.7713 295.067 65.7713C295.067 65.7713 295.294 65.9985 295.521 65.9985H295.975V71.2236C295.975 71.4507 295.975 71.4508 296.203 71.6779L296.43 71.9051C296.657 71.9051 296.657 71.9051 296.657 71.6779C296.657 71.6779 296.884 71.4507 296.884 71.2236V65.9985H298.247C298.475 65.9985 298.475 65.9985 298.475 65.7713L298.702 65.5441C298.702 65.3169 298.702 65.3169 298.475 65.3169C298.247 65.3169 298.247 65.0897 298.02 65.0897H296.884ZM308.244 70.9964V65.3169C308.244 65.0897 308.244 65.0897 308.017 64.8626L307.79 64.6354C307.563 64.6354 307.563 64.6354 307.563 64.8626L307.336 65.0897V70.7692C307.336 70.9964 307.336 70.9964 307.563 71.2236L307.79 71.4508C308.017 71.4508 308.017 71.4507 308.017 71.2236C308.244 71.4507 308.244 71.2236 308.244 70.9964ZM307.336 62.5908C307.336 62.818 307.336 62.818 307.563 62.818L307.79 63.0451C308.017 63.0451 308.017 63.0451 308.017 62.818L308.244 62.5908C308.244 62.3636 308.244 62.3636 308.017 62.3636L307.79 62.1364C307.563 62.1364 307.563 62.1364 307.563 62.3636C307.336 62.3636 307.336 62.5908 307.336 62.5908ZM321.422 69.4061V66.9072C321.422 66.4528 321.195 65.7713 320.741 65.5441C320.286 65.0897 319.832 64.8626 319.377 64.8626H318.696C318.241 64.8626 317.56 65.0897 317.332 65.5441C316.878 65.9985 316.651 66.4528 316.651 66.9072V69.4061C316.651 70.0877 316.878 70.542 317.332 70.7692C317.787 71.2236 318.241 71.4508 318.696 71.4508H319.15C319.832 71.4508 320.286 71.2236 320.513 70.7692C321.195 70.542 321.422 70.0877 321.422 69.4061ZM320.513 69.4061C320.513 69.6333 320.513 70.0877 320.286 70.0877C320.059 70.3149 319.832 70.3149 319.604 70.3149H318.696C318.468 70.3149 318.014 70.3149 318.014 70.0877C317.787 69.8605 317.787 69.6333 317.787 69.4061V66.9072C317.787 66.68 317.787 66.2256 318.014 66.2256C318.241 65.9985 318.468 65.9985 318.696 65.9985H319.15C319.377 65.9985 319.832 65.9985 319.832 66.2256C320.059 66.4528 320.059 66.68 320.059 66.9072V69.4061H320.513ZM334.6 70.9964V66.9072C334.6 66.4528 334.373 65.9985 334.146 65.5441C333.691 65.0897 333.464 65.0897 332.782 65.0897H330.51C330.283 65.0897 330.056 65.3169 330.056 65.5441V71.2236C330.056 71.4507 330.056 71.4508 330.283 71.6779L330.51 71.9051C330.737 71.9051 330.737 71.9051 330.737 71.6779C330.737 71.6779 330.965 71.4507 330.965 71.2236V65.9985H332.782C333.009 65.9985 333.237 65.9985 333.464 66.2256C333.691 66.4528 333.691 66.68 333.691 66.9072V70.9964C333.691 71.2236 333.691 71.2236 333.918 71.4508L334.146 71.6779C334.373 71.6779 334.373 71.6779 334.373 71.4508C334.6 71.4508 334.6 71.2236 334.6 70.9964ZM357.547 65.5441C357.775 65.5441 357.775 65.7713 357.775 65.9985C357.775 66.2256 357.775 66.2256 357.547 66.2256L357.32 66.4528H357.093C356.639 66.2256 355.957 65.9985 355.503 65.9985C355.048 65.9985 354.594 66.2256 354.139 66.4528L353.912 66.68C353.912 66.9072 353.912 66.9072 354.139 66.9072L357.093 68.9518C357.32 69.179 357.547 69.179 357.547 69.4061C357.547 69.6333 357.775 69.8605 357.775 70.0877C357.775 70.3149 357.775 70.542 357.547 70.7692C357.547 70.9964 357.32 71.2236 357.093 71.2236C356.639 71.6779 355.957 71.6779 355.275 71.6779C354.594 71.6779 353.912 71.4507 353.458 71.2236C353.231 71.2236 353.231 70.9964 353.231 70.7692C353.231 70.542 353.231 70.542 353.458 70.3149L353.685 70.0877H353.912C354.367 70.3149 354.821 70.542 355.275 70.542C355.73 70.542 356.184 70.3149 356.639 70.0877L356.866 69.8605C356.866 69.6333 356.866 69.6333 356.639 69.6333L353.685 67.5887C353.458 67.3615 353.458 67.3615 353.231 67.1344C353.231 66.9072 353.003 66.68 353.003 66.4528C353.003 66.2256 353.003 65.9985 353.231 65.7713C353.231 65.5441 353.458 65.5441 353.685 65.3169C354.139 64.8626 354.821 64.8626 355.503 64.8626C356.411 65.0897 356.866 65.3169 357.547 65.5441ZM367.317 67.8159V66.9072C367.317 66.68 367.317 66.4528 367.544 66.2256C367.772 65.9985 367.999 65.9985 368.226 65.9985H369.135C369.362 65.9985 369.589 65.9985 369.816 66.2256C370.044 66.4528 370.044 66.68 370.044 66.9072V67.8159H367.317ZM367.317 68.7246H370.498C370.725 68.7246 370.952 68.4974 370.952 68.2702V66.9072C370.952 66.4528 370.725 65.9985 370.498 65.5441C370.044 65.0897 369.816 65.0897 369.135 65.0897H368.226C367.772 65.0897 367.317 65.3169 366.863 65.5441C366.408 65.9985 366.408 66.2256 366.408 66.9072V69.6333C366.408 70.0877 366.636 70.542 366.863 70.9964C367.317 71.4507 367.772 71.4508 368.226 71.4508H370.498C370.725 71.4508 370.725 71.4507 370.952 71.2236L371.18 70.9964C371.18 70.7692 371.18 70.7692 370.952 70.7692C370.952 70.7692 370.725 70.542 370.498 70.542H368.226C367.999 70.542 367.772 70.542 367.544 70.3149C367.317 70.0877 367.317 69.8605 367.317 69.6333V68.7246ZM383.449 66.4528C383.449 66.2256 383.449 65.9985 383.449 65.9985C383.449 65.7713 383.221 65.7713 383.221 65.5441C382.994 65.3169 382.994 65.3169 382.767 65.3169C382.54 65.3169 382.313 65.3169 382.313 65.3169H380.495C380.268 65.3169 380.041 65.5441 380.041 65.7713V71.4508C380.041 71.6779 380.041 71.6779 380.268 71.9051L380.495 72.1323C380.722 72.1323 380.722 72.1323 380.722 71.9051C380.722 71.9051 380.949 71.6779 380.949 71.4508V66.2256H382.313C382.54 66.2256 382.54 66.2256 382.54 66.4528L382.767 66.68C382.767 66.9072 382.767 66.9072 382.994 66.9072L383.221 67.1344C383.449 67.1344 383.449 67.1344 383.449 66.9072C383.449 66.68 383.449 66.68 383.449 66.4528ZM396.626 65.5441C396.626 65.3169 396.626 65.0897 396.399 65.0897L396.172 64.8626H395.945L395.718 65.0897L394.354 69.4061L392.991 65.0897C392.991 64.8626 392.991 64.8626 392.764 64.8626H392.537C392.31 64.8626 392.31 64.8626 392.31 65.0897L392.082 65.3169L393.9 70.9964C393.9 71.2236 394.127 71.4508 394.354 71.4508H394.582L394.809 71.2236L396.626 65.5441ZM406.169 70.9964V65.3169C406.169 65.0897 406.169 65.0897 405.942 64.8626L405.715 64.6354C405.487 64.6354 405.487 64.6354 405.487 64.8626L405.26 65.0897V70.7692C405.26 70.9964 405.26 70.9964 405.487 71.2236L405.715 71.4508C405.942 71.4508 405.942 71.4507 405.942 71.2236C406.169 71.4507 406.169 71.2236 406.169 70.9964ZM405.26 62.5908C405.26 62.818 405.26 62.818 405.487 62.818L405.715 63.0451C405.942 63.0451 405.942 63.0451 405.942 62.818L406.169 62.5908C406.169 62.3636 406.169 62.3636 405.942 62.3636L405.715 62.1364C405.487 62.1364 405.487 62.1364 405.487 62.3636C405.26 62.3636 405.26 62.5908 405.26 62.5908ZM417.984 71.4508C418.211 71.4508 418.211 71.4507 418.211 71.2236L418.438 70.9964C418.438 70.7692 418.438 70.7692 418.211 70.7692C418.211 70.7692 417.984 70.542 417.756 70.542H416.393C416.166 70.542 415.939 70.542 415.712 70.3149C415.484 70.0877 415.484 69.8605 415.484 69.6333V66.9072C415.484 66.68 415.484 66.4528 415.712 66.2256C415.939 65.9985 416.166 65.9985 416.393 65.9985H417.756C417.984 65.9985 417.984 65.9985 417.984 65.7713L418.211 65.5441C418.211 65.3169 418.211 65.3169 417.984 65.3169C417.984 65.3169 417.756 65.0897 417.529 65.0897H416.166C415.712 65.0897 415.257 65.3169 414.803 65.5441C414.348 65.9985 414.348 66.4528 414.348 66.9072V69.6333C414.348 70.0877 414.576 70.542 414.803 70.9964C415.257 71.4507 415.712 71.4508 416.166 71.4508H417.984ZM427.981 67.8159V66.9072C427.981 66.68 427.981 66.4528 428.208 66.2256C428.435 65.9985 428.662 65.9985 428.889 65.9985H429.798C430.025 65.9985 430.253 65.9985 430.48 66.2256C430.707 66.4528 430.707 66.68 430.707 66.9072V67.8159H427.981ZM427.981 68.7246H431.161C431.389 68.7246 431.616 68.4974 431.616 68.2702V66.9072C431.616 66.4528 431.389 65.9985 431.161 65.5441C430.707 65.0897 430.48 65.0897 429.798 65.0897H428.889C428.435 65.0897 427.981 65.3169 427.526 65.5441C427.072 65.9985 427.072 66.2256 427.072 66.9072V69.6333C427.072 70.0877 427.299 70.542 427.526 70.9964C427.981 71.4507 428.435 71.4508 428.889 71.4508H431.161C431.389 71.4508 431.389 71.4507 431.616 71.2236L431.843 70.9964C431.843 70.7692 431.843 70.7692 431.616 70.7692C431.389 70.7692 431.389 70.542 431.161 70.542H428.889C428.662 70.542 428.435 70.542 428.208 70.3149C427.981 70.0877 427.981 69.8605 427.981 69.6333V68.7246Z" fill="#6F6F6E"/>
</g>
<defs>
<clipPath id="clip0_328_3532">
<rect width="432" height="75" fill="white"/>
</clipPath>
</defs>
</svg>
