<svg width="264" height="116" viewBox="0 0 264 116" fill="none" xmlns="http://www.w3.org/2000/svg">
<g clip-path="url(#clip0_293_4905)">
<mask id="mask0_293_4905" style="mask-type:luminance" maskUnits="userSpaceOnUse" x="-457" y="-241" width="780" height="557">
<path d="M322.462 -240.904H-456.293V315.459H322.462V-240.904Z" fill="white"/>
</mask>
<g mask="url(#mask0_293_4905)">
<path d="M116.363 81.2619V80.9942C116.363 77.8716 113.767 75.2843 110.635 75.2843H102.044V94.7338H103.476H104.908V87.061H110.635C110.725 87.061 110.814 87.061 110.904 87.061L114.215 94.7338H117.347L113.588 86.1689C115.289 85.1875 116.363 83.3139 116.363 81.2619ZM113.499 81.2619C113.499 82.8678 112.246 84.1168 110.635 84.1168H104.908V78.1392H110.635C112.246 78.1392 113.499 79.3883 113.499 80.9942V81.2619Z" fill="#444444"/>
</g>
<mask id="mask1_293_4905" style="mask-type:luminance" maskUnits="userSpaceOnUse" x="-457" y="-241" width="780" height="557">
<path d="M322.462 -240.904H-456.293V315.459H322.462V-240.904Z" fill="white"/>
</mask>
<g mask="url(#mask1_293_4905)">
<path d="M128.175 75.2843C122.806 75.2843 118.421 79.6559 118.421 85.009C118.421 90.3621 122.806 94.7338 128.175 94.7338C133.545 94.7338 137.93 90.3621 137.93 85.009C137.93 79.6559 133.545 75.2843 128.175 75.2843ZM128.175 91.7896C124.417 91.7896 121.374 88.7562 121.374 85.009C121.374 81.2619 124.417 78.2285 128.175 78.2285C131.934 78.2285 134.977 81.2619 134.977 85.009C134.977 88.7562 131.934 91.7896 128.175 91.7896Z" fill="#444444"/>
</g>
<mask id="mask2_293_4905" style="mask-type:luminance" maskUnits="userSpaceOnUse" x="-457" y="-241" width="780" height="557">
<path d="M322.462 -240.904H-456.293V315.459H322.462V-240.904Z" fill="white"/>
</mask>
<g mask="url(#mask2_293_4905)">
<path d="M152.965 87.0611C152.965 89.7376 150.727 91.9681 148.043 91.9681C145.358 91.9681 143.121 89.7376 143.121 87.0611V75.3735H140.257V87.0611C140.257 91.3436 143.747 94.8231 148.043 94.8231C152.338 94.8231 155.828 91.3436 155.828 87.0611V75.3735H152.965V87.0611Z" fill="#444444"/>
</g>
<mask id="mask3_293_4905" style="mask-type:luminance" maskUnits="userSpaceOnUse" x="-457" y="-241" width="780" height="557">
<path d="M322.462 -240.904H-456.293V315.459H322.462V-240.904Z" fill="white"/>
</mask>
<g mask="url(#mask3_293_4905)">
<path d="M90.7684 83.8494H99.8071C99.8071 83.8494 99.9861 86.0798 99.6281 87.4181C98.4647 91.9682 94.1691 95.2693 89.1576 94.734C84.683 94.2879 81.0139 90.6299 80.5664 86.2583C79.94 80.3699 84.504 75.4629 90.2315 75.4629C93.6322 75.4629 96.5854 77.2472 98.3752 79.8346L96.1379 81.3513C96.0484 81.4405 95.959 81.3513 95.8695 81.262C94.4376 79.1208 91.7528 77.961 88.9786 78.4963C86.2939 79.0316 84.0566 81.1728 83.6091 83.8494C82.8037 88.1318 86.1149 91.9682 90.321 91.9682C93.4532 91.9682 96.1379 89.827 96.9434 86.8828H90.9474V83.8494H90.7684Z" fill="#444444"/>
</g>
<mask id="mask4_293_4905" style="mask-type:luminance" maskUnits="userSpaceOnUse" x="-457" y="-241" width="780" height="557">
<path d="M322.462 -240.904H-456.293V315.459H322.462V-240.904Z" fill="white"/>
</mask>
<g mask="url(#mask4_293_4905)">
<path d="M166.747 75.3735H158.961V78.6746V94.7338H161.825V90.5406H166.478C171.042 90.5406 174.711 86.7934 174.353 82.3325C173.996 78.4962 170.774 75.3735 166.747 75.3735ZM166.747 87.6856H161.825V79.8344V78.2285H166.568C169.073 78.2285 171.221 80.0129 171.4 82.511C171.669 85.3659 169.521 87.6856 166.747 87.6856Z" fill="#444444"/>
</g>
<mask id="mask5_293_4905" style="mask-type:luminance" maskUnits="userSpaceOnUse" x="-457" y="-241" width="780" height="557">
<path d="M322.462 -240.904H-456.293V315.459H322.462V-240.904Z" fill="white"/>
</mask>
<g mask="url(#mask5_293_4905)">
<path d="M254.269 68.5038V51.9984H251.316V71.3587H263.576V68.5038H254.269Z" fill="#444444"/>
</g>
<mask id="mask6_293_4905" style="mask-type:luminance" maskUnits="userSpaceOnUse" x="-457" y="-241" width="780" height="557">
<path d="M322.462 -240.904H-456.293V315.459H322.462V-240.904Z" fill="white"/>
</mask>
<g mask="url(#mask6_293_4905)">
<path d="M99.9858 71.448H103.566V71.3587L109.293 63.8644H109.382L115.199 71.3587V71.448H118.779V71.3587L111.262 61.5448L118.779 52.0876L118.69 51.9984H115.11L109.382 59.2251H109.293L103.655 51.9984H103.566H99.9858V52.0876L107.503 61.5448L99.9858 71.3587V71.448Z" fill="#444444"/>
</g>
<mask id="mask7_293_4905" style="mask-type:luminance" maskUnits="userSpaceOnUse" x="-457" y="-241" width="780" height="557">
<path d="M322.462 -240.904H-456.293V315.459H322.462V-240.904Z" fill="white"/>
</mask>
<g mask="url(#mask7_293_4905)">
<path d="M229.301 65.8271V65.5594C229.301 63.4182 228.048 61.6338 226.258 60.6524C226.974 59.7603 227.422 58.6004 227.422 57.4406C227.422 54.4964 224.916 52.0875 221.784 52.0875H215.967V71.3586H223.484C226.706 71.3586 229.301 68.8605 229.301 65.8271ZM218.831 54.8533H221.784C223.305 54.8533 224.468 56.0131 224.468 57.4406C224.468 58.7789 223.305 59.9387 221.873 60.0279H218.831V54.8533ZM226.437 65.8271C226.437 67.3438 225.095 68.5928 223.484 68.5928H218.831V62.8829H221.784H221.963H223.574C225.184 62.8829 226.527 64.132 226.527 65.6487V65.8271H226.437Z" fill="#444444"/>
</g>
<mask id="mask8_293_4905" style="mask-type:luminance" maskUnits="userSpaceOnUse" x="-457" y="-241" width="780" height="557">
<path d="M322.462 -240.904H-456.293V315.459H322.462V-240.904Z" fill="white"/>
</mask>
<g mask="url(#mask8_293_4905)">
<path d="M233.418 71.4478L235.655 66.4516H243.978L246.215 71.4478H249.347L240.756 52.0875H238.787L230.196 71.4478H233.418ZM239.772 56.9945L242.725 63.5966H236.908L239.772 56.9945Z" fill="#444444"/>
</g>
<mask id="mask9_293_4905" style="mask-type:luminance" maskUnits="userSpaceOnUse" x="-457" y="-241" width="780" height="557">
<path d="M322.462 -240.904H-456.293V315.459H322.462V-240.904Z" fill="white"/>
</mask>
<g mask="url(#mask9_293_4905)">
<path d="M204.154 51.9984C198.784 51.9984 194.489 56.3701 194.489 61.634C194.489 66.9871 198.874 71.2695 204.154 71.2695C209.523 71.2695 213.819 66.8978 213.819 61.634C213.908 56.2809 209.523 51.9984 204.154 51.9984ZM204.154 68.4146C200.395 68.4146 197.352 65.3811 197.352 61.634C197.352 57.8868 200.395 54.8534 204.154 54.8534C207.912 54.8534 210.955 57.8868 210.955 61.634C210.955 65.3811 207.912 68.4146 204.154 68.4146Z" fill="#444444"/>
</g>
<mask id="mask10_293_4905" style="mask-type:luminance" maskUnits="userSpaceOnUse" x="-457" y="-241" width="780" height="557">
<path d="M322.462 -240.904H-456.293V315.459H322.462V-240.904Z" fill="white"/>
</mask>
<g mask="url(#mask10_293_4905)">
<path d="M129.608 51.9984H121.822V55.2995V71.3587H124.686V67.1655H129.339C133.903 67.1655 137.572 63.4183 137.214 58.9574C136.856 55.0318 133.545 51.9984 129.608 51.9984ZM129.608 64.3105H124.686V56.4593V54.8534H129.429C131.934 54.8534 134.082 56.6378 134.261 59.1359C134.53 61.9909 132.292 64.3105 129.608 64.3105Z" fill="#444444"/>
</g>
<mask id="mask11_293_4905" style="mask-type:luminance" maskUnits="userSpaceOnUse" x="-457" y="-241" width="780" height="557">
<path d="M322.462 -240.904H-456.293V315.459H322.462V-240.904Z" fill="white"/>
</mask>
<g mask="url(#mask11_293_4905)">
<path d="M149.027 51.9984C143.658 51.9984 139.362 56.3701 139.362 61.634C139.362 66.9871 143.747 71.2695 149.027 71.2695C154.397 71.2695 158.692 66.8978 158.692 61.634C158.692 56.2809 154.307 51.9984 149.027 51.9984ZM149.027 68.4146C145.269 68.4146 142.226 65.3811 142.226 61.634C142.226 57.8868 145.269 54.8534 149.027 54.8534C152.786 54.8534 155.829 57.8868 155.829 61.634C155.829 65.3811 152.786 68.4146 149.027 68.4146Z" fill="#444444"/>
</g>
<mask id="mask12_293_4905" style="mask-type:luminance" maskUnits="userSpaceOnUse" x="-457" y="-241" width="780" height="557">
<path d="M322.462 -240.904H-456.293V315.459H322.462V-240.904Z" fill="white"/>
</mask>
<g mask="url(#mask12_293_4905)">
<path d="M128.175 75.2843C122.806 75.2843 118.421 79.6559 118.421 85.009C118.421 90.3621 122.806 94.7338 128.175 94.7338C133.545 94.7338 137.93 90.3621 137.93 85.009C137.93 79.6559 133.545 75.2843 128.175 75.2843ZM128.175 91.7896C124.417 91.7896 121.374 88.7562 121.374 85.009C121.374 81.2619 124.417 78.2285 128.175 78.2285C131.934 78.2285 134.977 81.2619 134.977 85.009C134.977 88.7562 131.934 91.7896 128.175 91.7896Z" fill="#444444"/>
</g>
<mask id="mask13_293_4905" style="mask-type:luminance" maskUnits="userSpaceOnUse" x="-457" y="-241" width="780" height="557">
<path d="M322.462 -240.904H-456.293V315.459H322.462V-240.904Z" fill="white"/>
</mask>
<g mask="url(#mask13_293_4905)">
<path d="M149.027 51.9984C143.658 51.9984 139.362 56.3701 139.362 61.634C139.362 66.9871 143.747 71.2695 149.027 71.2695C154.397 71.2695 158.692 66.8978 158.692 61.634C158.692 56.2809 154.307 51.9984 149.027 51.9984ZM149.027 68.4146C145.269 68.4146 142.226 65.3811 142.226 61.634C142.226 57.8868 145.269 54.8534 149.027 54.8534C152.786 54.8534 155.829 57.8868 155.829 61.634C155.829 65.3811 152.786 68.4146 149.027 68.4146Z" fill="#444444"/>
</g>
<mask id="mask14_293_4905" style="mask-type:luminance" maskUnits="userSpaceOnUse" x="-457" y="-241" width="780" height="557">
<path d="M322.462 -240.904H-456.293V315.459H322.462V-240.904Z" fill="white"/>
</mask>
<g mask="url(#mask14_293_4905)">
<path d="M99.8069 59.3141C98.554 54.4964 93.9004 51.1061 88.5309 52.0875C84.6828 52.8012 81.5506 55.7454 80.7452 59.5818C79.4028 65.9163 84.2353 71.537 90.3208 71.537C93.6319 71.537 96.5852 69.8419 98.375 67.3438L95.9587 65.7379C94.5269 67.8791 91.8421 69.1281 88.9784 68.5928C86.2041 68.0575 83.9669 65.8271 83.5194 63.0613H99.2699H100.075C100.075 62.8829 100.165 60.6524 99.8069 59.3141ZM83.6089 59.9387C84.4143 56.9945 87.0991 54.8532 90.2313 54.8532C93.453 54.8532 96.1377 56.9945 96.8536 59.9387H83.6089Z" fill="#444444"/>
</g>
<mask id="mask15_293_4905" style="mask-type:luminance" maskUnits="userSpaceOnUse" x="-457" y="-241" width="780" height="557">
<path d="M322.462 -240.904H-456.293V315.459H322.462V-240.904Z" fill="white"/>
</mask>
<g mask="url(#mask15_293_4905)">
<path d="M171.042 60.4741H180.081C180.081 60.4741 180.26 62.7045 179.902 64.0428C178.739 68.5929 174.353 71.894 169.342 71.3587C164.867 70.9126 161.198 67.2546 160.661 62.7937C159.945 56.9053 164.599 51.9091 170.416 51.9091C173.817 51.9091 176.859 53.6935 178.649 56.2808L176.233 57.8867C174.801 55.6563 172.116 54.318 169.163 54.8533C166.478 55.3886 164.241 57.5299 163.704 60.2956C162.899 64.6673 166.21 68.4145 170.416 68.4145C173.638 68.4145 176.322 66.2732 177.038 63.329H170.953V60.4741H171.042Z" fill="#444444"/>
</g>
<mask id="mask16_293_4905" style="mask-type:luminance" maskUnits="userSpaceOnUse" x="-457" y="-241" width="780" height="557">
<path d="M322.462 -240.904H-456.293V315.459H322.462V-240.904Z" fill="white"/>
</mask>
<g mask="url(#mask16_293_4905)">
<path d="M185.092 68.593V51.9984H182.229V71.448H194.399V68.593H185.092Z" fill="#444444"/>
</g>
<mask id="mask17_293_4905" style="mask-type:luminance" maskUnits="userSpaceOnUse" x="53" y="93" width="69" height="23">
<path d="M92.8266 112.131C83.9669 115.343 74.7493 115.165 67.411 111.596C61.1466 108.563 56.672 103.299 54.3452 96.2506C54.1663 96.3399 53.9873 96.4291 53.8083 96.5183C53.6293 96.6075 53.5398 96.6967 53.3608 96.6967C55.7771 103.923 60.4307 109.366 66.8741 112.488C70.9012 114.451 75.3758 115.343 80.1188 115.343C84.3249 115.343 88.7995 114.54 93.0951 113.024C103.029 109.455 113.052 101.961 121.911 93.7525C121.553 93.5741 121.285 93.3064 121.016 93.0388C111.888 101.782 102.134 108.741 92.8266 112.131Z" fill="white"/>
</mask>
<g mask="url(#mask17_293_4905)">
<path d="M42.2642 103.477L90.3211 59.1359L133.098 105.172L85.1306 149.514L42.2642 103.477Z" fill="url(#paint0_linear_293_4905)"/>
</g>
<mask id="mask18_293_4905" style="mask-type:luminance" maskUnits="userSpaceOnUse" x="123" y="81" width="11" height="10">
<path d="M123.97 90.3621C124.238 90.6297 124.596 90.8082 124.954 90.9866C127.907 88.1316 130.682 85.1874 133.277 82.3324C133.098 81.9756 132.829 81.7079 132.65 81.351C129.787 84.4737 126.923 87.5071 123.97 90.3621Z" fill="white"/>
</mask>
<g mask="url(#mask18_293_4905)">
<path d="M119.227 85.8119L128.981 76.8009L138.02 86.5256L128.265 95.6259L119.227 85.8119Z" fill="url(#paint1_linear_293_4905)"/>
</g>
<mask id="mask19_293_4905" style="mask-type:luminance" maskUnits="userSpaceOnUse" x="135" y="70" width="9" height="10">
<path d="M135.246 78.3177C135.514 78.5854 135.783 78.853 135.962 79.2099C136.856 78.1393 137.751 77.0687 138.646 76.0873C140.168 74.3029 141.689 72.4293 143.121 70.645C142.763 70.4665 142.494 70.1989 142.226 70.0204C139.989 72.7862 137.662 75.552 135.246 78.3177Z" fill="white"/>
</mask>
<g mask="url(#mask19_293_4905)">
<path d="M130.682 74.2138L139.541 66.0949L147.775 74.9275L138.915 83.1356L130.682 74.2138Z" fill="url(#paint2_linear_293_4905)"/>
</g>
<mask id="mask20_293_4905" style="mask-type:luminance" maskUnits="userSpaceOnUse" x="144" y="56" width="9" height="12">
<path d="M144.642 66.8978C144.911 67.1654 145.269 67.3439 145.537 67.5223C148.132 64.132 150.638 60.8309 152.875 57.5299C152.607 57.2622 152.338 57.0838 152.07 56.8161C149.743 60.1172 147.327 63.4183 144.642 66.8978Z" fill="white"/>
</mask>
<g mask="url(#mask20_293_4905)">
<path d="M139.362 61.723L149.117 52.712L158.245 62.526L148.49 71.537L139.362 61.723Z" fill="url(#paint3_linear_293_4905)"/>
</g>
<mask id="mask21_293_4905" style="mask-type:luminance" maskUnits="userSpaceOnUse" x="0" y="0" width="170" height="98">
<path d="M28.7506 93.1278C17.4746 88.3101 6.73564 75.7303 3.15598 63.1506C1.45564 57.173 0.650219 48.4296 6.1092 40.7569C9.59937 35.8499 14.2529 33.1733 20.0699 30.1399C26.7817 26.5712 33.8516 24.1623 40.9214 23.0025C43.8746 22.5564 47.1858 22.1995 50.497 22.1995C56.4034 22.1995 62.4889 23.2701 67.6794 26.3927C60.2516 31.9243 54.5241 38.6156 51.3024 45.8423C49.4231 50.0355 48.2597 54.1396 47.6333 58.2436C40.9214 57.2622 35.1045 53.2474 30.8984 46.7345C27.3187 41.1137 25.9763 34.5116 27.0502 27.9987C26.6922 28.1771 26.3343 28.2663 25.8868 28.4448C24.9024 35.0469 26.3343 41.649 30.0034 47.2698C34.299 53.9611 40.4739 58.1544 47.4543 59.225C48.7072 59.4034 49.96 59.4926 51.2129 59.4926C52.1973 59.4926 53.2712 59.4034 54.2556 59.3142C62.5784 58.3328 70.5431 54.9425 77.7919 50.7493C76.718 58.2436 73.5858 65.4703 70.3641 72.2508L70.0956 72.6969C66.695 79.6559 63.2048 86.7934 57.3878 91.7004C56.2245 92.6818 54.9716 93.4847 53.7187 94.1985C50.0495 82.8678 47.1858 71.7155 48.4387 60.2956C48.0807 60.2956 47.7228 60.2064 47.3648 60.2064C46.1119 71.894 49.0651 83.2246 52.8238 94.7338C49.8706 96.1613 46.8278 96.7858 43.8746 96.7858C38.5051 96.7858 33.2251 95.0014 28.7506 93.1278ZM39.0421 9.88741C44.9485 6.14025 52.3763 3.82058 61.6834 2.9284C66.9634 2.39309 72.0644 2.12544 77.255 2.12544C82.9824 2.12544 88.7099 2.48231 94.4373 3.10684C98.1065 3.55293 103.297 4.35589 107.235 6.67556C108.577 7.47852 109.74 8.54914 110.546 9.79819C111.351 11.0472 111.888 12.3855 111.978 13.9022C112.873 22.4672 100.97 32.3704 95.9587 36.5636C80.2082 49.6787 66.516 56.8161 54.3451 58.2436C52.4658 58.5113 50.5865 58.5112 48.7967 58.3328C49.4231 54.318 50.5865 50.3032 52.3763 46.2884C55.598 39.1509 61.3255 32.4596 68.7533 26.9281C70.4536 28.0879 71.975 29.4262 73.4068 31.0321C76.6285 34.8685 78.4183 39.6862 78.4183 44.6825C78.4183 45.8423 78.4183 47.0021 78.2394 48.0727C78.5973 47.8943 78.9553 47.6266 79.3133 47.359C79.4028 46.4668 79.4027 45.4854 79.4027 44.5932C79.4027 39.3294 77.5234 34.2439 74.1227 30.2291C65.6211 20.1475 51.3919 20.0583 40.8319 21.7534C36.3573 22.4672 31.9722 23.7162 27.5872 25.3221C29.2875 18.9876 33.3146 13.4561 39.0421 9.88741ZM61.5044 1.76857C52.0183 2.74997 44.4116 5.06964 38.4156 8.90601C32.3302 12.8316 28.0346 18.8092 26.3343 25.8574C24.0075 26.7496 21.7702 27.8202 19.5329 28.9801C13.6265 32.1027 8.88344 34.8685 5.21429 39.9539C0.650219 46.2884 -0.423679 54.4072 2.08208 63.2398C5.75124 76.0872 16.7587 89.0238 28.3031 93.9308C32.8672 95.8936 38.2367 97.7672 43.7851 97.7672C47.0963 97.7672 50.497 97.0534 53.7187 95.3583C55.24 94.5553 56.6719 93.574 58.0143 92.4141C64.0997 87.4179 67.5899 80.102 70.9905 73.0538L71.259 72.6077C74.6597 65.5595 77.8814 57.9759 78.9553 49.9463C85.6672 45.9315 91.6631 41.2029 96.4956 37.1881C105.087 30.0507 113.767 21.6642 112.962 13.6346C112.873 12.2963 112.425 11.0472 111.799 9.97663C118.421 8.90601 125.491 8.19227 132.382 8.19227C140.794 8.19227 149.117 9.17367 156.276 11.6718C162.361 13.7238 166.12 16.5788 167.641 20.2367C169.163 23.8054 168.536 28.2663 165.852 33.8871C163.614 38.6156 159.498 45.5746 154.128 53.4258C154.397 53.6043 154.755 53.8719 155.023 54.0504C160.393 46.1099 164.509 39.0617 166.836 34.3332C169.7 28.4448 170.237 23.7162 168.626 19.7906C166.925 15.7758 162.988 12.8316 156.634 10.6012C146.79 7.30009 130.592 5.51573 111.083 8.90601C110.188 7.65696 109.024 6.49713 107.503 5.60494C103.476 3.19606 98.017 2.30388 94.3478 1.85779C88.5309 1.23326 82.8034 0.876389 77.076 0.876389C71.975 0.965607 66.7844 1.23326 61.5044 1.76857Z" fill="white"/>
</mask>
<g mask="url(#mask21_293_4905)">
<path d="M-48.749 45.7532L91.5737 -83.8807L218.831 53.1583L78.5079 182.703L-48.749 45.7532Z" fill="url(#paint4_linear_293_4905)"/>
</g>
<mask id="mask22_293_4905" style="mask-type:luminance" maskUnits="userSpaceOnUse" x="69" y="9" width="41" height="17">
<path d="M93.8113 13.1887C84.6832 15.9544 76.4499 20.0584 69.5591 24.9654C69.8276 25.1439 70.1855 25.4115 70.454 25.59C77.1659 20.8614 85.2201 16.9358 94.1693 14.2593C98.7333 12.8318 104.013 11.5827 109.741 10.5121C109.562 10.1552 109.293 9.79837 109.025 9.4415C104.013 10.3337 99.0018 11.5827 93.8113 13.1887Z" fill="white"/>
</mask>
<g mask="url(#mask22_293_4905)">
<path d="M61.415 16.8467L91.1262 -10.5433L117.705 18.0957L87.994 45.4856L61.415 16.8467Z" fill="url(#paint5_linear_293_4905)"/>
</g>
</g>
<defs>
<linearGradient id="paint0_linear_293_4905" x1="64.8646" y1="125.38" x2="107.364" y2="85.9078" gradientUnits="userSpaceOnUse">
<stop stop-color="#F08019"/>
<stop offset="0.9981" stop-color="#F7B433"/>
<stop offset="1" stop-color="#F7B433"/>
</linearGradient>
<linearGradient id="paint1_linear_293_4905" x1="122.636" y1="91.7114" x2="132.271" y2="82.7627" gradientUnits="userSpaceOnUse">
<stop stop-color="#F08019"/>
<stop offset="0.9981" stop-color="#F7B433"/>
<stop offset="1" stop-color="#F7B433"/>
</linearGradient>
<linearGradient id="paint2_linear_293_4905" x1="133.887" y1="79.5043" x2="142.471" y2="71.5317" gradientUnits="userSpaceOnUse">
<stop stop-color="#F08019"/>
<stop offset="0.9981" stop-color="#F7B433"/>
<stop offset="1" stop-color="#F7B433"/>
</linearGradient>
<linearGradient id="paint3_linear_293_4905" x1="142.781" y1="67.6737" x2="152.388" y2="58.7507" gradientUnits="userSpaceOnUse">
<stop stop-color="#F08019"/>
<stop offset="0.9981" stop-color="#F7B433"/>
<stop offset="1" stop-color="#F7B433"/>
</linearGradient>
<linearGradient id="paint4_linear_293_4905" x1="11.6902" y1="117.158" x2="133.808" y2="3.73958" gradientUnits="userSpaceOnUse">
<stop stop-color="#F08019"/>
<stop offset="0.9981" stop-color="#F7B433"/>
<stop offset="1" stop-color="#F7B433"/>
</linearGradient>
<linearGradient id="paint5_linear_293_4905" x1="70.5893" y1="35.0279" x2="101.129" y2="6.66369" gradientUnits="userSpaceOnUse">
<stop stop-color="#F08019"/>
<stop offset="0.9981" stop-color="#F7B433"/>
<stop offset="1" stop-color="#F7B433"/>
</linearGradient>
<clipPath id="clip0_293_4905">
<rect width="264" height="116" fill="white"/>
</clipPath>
</defs>
</svg>
