<svg width="317" height="102" viewBox="0 0 317 102" fill="none" xmlns="http://www.w3.org/2000/svg">
<mask id="mask0_293_4891" style="mask-type:luminance" maskUnits="userSpaceOnUse" x="0" y="2" width="317" height="98">
<path d="M316.408 2.37207H0.408203V99.8783H316.408V2.37207Z" fill="white"/>
</mask>
<g mask="url(#mask0_293_4891)">
<path d="M47.396 27.6724C37.9904 27.6831 28.9725 31.4301 22.3189 38.0923C15.6653 44.7544 11.9186 53.7881 11.8999 63.2137V98.2692H26.0377V63.2137C26.0377 57.5452 28.2847 52.1086 32.2845 48.1006C36.2844 44.0922 41.7091 41.8403 47.3655 41.8403C53.0222 41.8403 58.4469 44.0922 62.4467 48.1006C66.4463 52.1086 68.6934 57.5452 68.6934 63.2137V98.2692H82.8312V63.2137C82.8154 53.7979 79.0778 44.7716 72.4366 38.1106C65.7956 31.4497 56.7917 27.6964 47.396 27.6724Z" fill="#333333"/>
<path d="M127.648 25.6484C120.322 25.6484 113.16 27.8255 107.069 31.9043C100.978 35.9831 96.2301 41.7804 93.4265 48.5632C90.6229 55.3461 89.8894 62.8097 91.3188 70.0102C92.7478 77.211 96.2758 83.825 101.456 89.0163C106.636 94.2076 113.236 97.7431 120.422 99.1752C127.607 100.608 135.055 99.8726 141.823 97.063C148.591 94.2534 154.376 89.4959 158.446 83.3915C162.517 77.287 164.689 70.1101 164.689 62.7686C164.678 52.927 160.772 43.4915 153.828 36.5325C146.884 29.5735 137.468 25.6592 127.648 25.6484ZM127.648 85.7004C123.122 85.7004 118.698 84.3556 114.935 81.8355C111.172 79.3159 108.239 75.7346 106.507 71.5443C104.775 67.354 104.322 62.7432 105.205 58.2947C106.088 53.8464 108.267 49.7603 111.467 46.5534C114.667 43.3462 118.745 41.1622 123.184 40.2773C127.623 39.3924 132.224 39.8466 136.405 41.5823C140.586 43.3181 144.16 46.2572 146.675 50.0284C149.189 53.7993 150.531 58.2331 150.531 62.7686C150.52 68.8462 148.106 74.6716 143.816 78.9686C139.527 83.2651 133.713 85.6824 127.648 85.6902V85.7004Z" fill="#333333"/>
<path d="M209.587 25.6484C202.261 25.6504 195.1 27.8292 189.01 31.9092C182.92 35.9893 178.174 41.7875 175.372 48.5703C172.57 55.3535 171.838 62.8164 173.269 70.0165C174.699 77.2163 178.227 83.8295 183.408 89.0198C188.589 94.2105 195.189 97.7446 202.374 99.1763C209.559 100.608 217.006 99.8719 223.774 97.0619C230.542 94.2523 236.326 89.4945 240.396 83.3904C244.466 77.2863 246.638 70.1098 246.638 62.7686C246.627 52.9253 242.72 43.4884 235.773 36.529C228.827 29.5696 219.409 25.6565 209.587 25.6484ZM209.587 85.7004C205.061 85.7004 200.637 84.3559 196.875 81.8362C193.112 79.3169 190.179 75.736 188.446 71.5464C186.714 67.3568 186.26 62.7464 187.143 58.2985C188.024 53.8503 190.203 49.7641 193.402 46.5569C196.601 43.3494 200.678 41.1647 205.116 40.2787C209.554 39.3927 214.155 39.8452 218.337 41.5795C222.518 43.3135 226.093 46.2512 228.608 50.021C231.124 53.7908 232.467 58.2232 232.47 62.7584C232.464 68.8389 230.052 74.6685 225.761 78.9679C221.471 83.2673 215.654 85.6849 209.587 85.6902V85.7004Z" fill="#333333"/>
<path d="M294.544 66.0268L313.741 27.5506H297.907L282.305 58.8112H268.652V2.37207H254.484V98.2688H268.652V72.9993H282.143L299.28 98.2688H316.407L294.544 66.0268Z" fill="#333333"/>
<path d="M10.6779 39.1613C15.1669 38.0994 17.9471 33.592 16.8876 29.0934C15.8281 24.5948 11.3301 21.8087 6.84115 22.8705C2.35213 23.9322 -0.428043 28.4398 0.631461 32.9384C1.69097 37.437 6.18892 40.2232 10.6779 39.1613Z" fill="#333333"/>
</g>
</svg>
