<svg width="120" height="116" viewBox="0 0 120 116" fill="none" xmlns="http://www.w3.org/2000/svg">
<path fill-rule="evenodd" clip-rule="evenodd" d="M72.5852 98.615V103.293H73.2714V101.212H75.4331V100.666H73.2714V99.1904H75.588V98.6445L72.5852 98.615ZM60.7066 99.1904V103.293H61.4001V99.1904H63.0011V98.615H59.1055V99.1904H60.7066ZM55.114 100.806H56.2871C56.5503 100.821 56.8105 100.745 57.0249 100.592C57.1129 100.518 57.182 100.423 57.2269 100.317C57.2717 100.21 57.291 100.095 57.2832 99.9799C57.291 99.8647 57.2717 99.7493 57.2269 99.643C57.182 99.5366 57.1129 99.4423 57.0249 99.3675C56.8081 99.22 56.549 99.1475 56.2871 99.1609H55.114V100.806ZM54.4205 103.293V98.615H56.3977C56.8164 98.5881 57.2306 98.7139 57.5635 98.9691C57.7015 99.0928 57.8102 99.2457 57.8817 99.4168C57.9532 99.5878 57.9856 99.7726 57.9766 99.9578C57.9859 100.216 57.922 100.472 57.7922 100.696C57.663 100.898 57.4787 101.059 57.261 101.16L57.0249 101.242C57.1009 101.265 57.1729 101.3 57.2388 101.345C57.4008 101.451 57.5249 101.606 57.5931 101.787L58.2866 103.293H57.5488L56.8847 101.758C56.8606 101.68 56.8197 101.607 56.7649 101.546C56.7102 101.485 56.6428 101.436 56.5675 101.404C56.4037 101.349 56.2311 101.324 56.0584 101.33H55.1509V103.293H54.4205ZM49.7723 101.603L50.7167 99.3896L51.6759 101.603H49.7723ZM50.4289 98.6518L48.3484 103.33H49.0418L49.5362 102.186H51.9341L52.4284 103.33H53.1662L51.0487 98.6518H50.4289ZM46.1865 100.828H45.0061V99.1609H46.2235C46.4878 99.134 46.7523 99.2107 46.9613 99.3749C47.0445 99.4495 47.1096 99.5421 47.1518 99.6457C47.1939 99.7492 47.2121 99.861 47.2047 99.9725C47.2132 100.085 47.1957 100.198 47.1535 100.303C47.1113 100.408 47.0455 100.502 46.9613 100.578C46.8532 100.663 46.7288 100.727 46.5957 100.764C46.4626 100.8 46.3234 100.81 46.1865 100.791V100.828ZM44.2757 98.6518V103.293H44.9692V101.337H46.2603C46.6759 101.367 47.0873 101.238 47.4113 100.976C47.5476 100.848 47.6543 100.692 47.7244 100.519C47.7944 100.346 47.8262 100.159 47.8172 99.9725C47.8266 99.7869 47.795 99.6015 47.7249 99.4294C47.6548 99.2573 47.5478 99.1026 47.4113 98.9765C47.0873 98.7146 46.6759 98.5854 46.2603 98.615L44.2757 98.6518ZM67.3099 100.983C67.283 101.455 67.4127 101.921 67.6788 102.311C67.8096 102.474 67.9779 102.603 68.1694 102.687C68.3608 102.77 68.5697 102.806 68.7781 102.791C68.9833 102.803 69.1885 102.767 69.377 102.685C69.5654 102.603 69.7318 102.477 69.8627 102.319C70.1179 101.921 70.2535 101.459 70.2535 100.987C70.2535 100.515 70.1179 100.053 69.8627 99.6553C69.7242 99.4982 69.5539 99.3725 69.3631 99.2864C69.1723 99.2002 68.9653 99.1557 68.756 99.1557C68.5466 99.1557 68.3397 99.2002 68.1488 99.2864C67.958 99.3725 67.7877 99.4982 67.6493 99.6553C67.4013 100.038 67.2824 100.491 67.3099 100.946V100.983ZM66.5721 100.983C66.5588 100.546 66.6471 100.112 66.8303 99.7143C66.9841 99.3667 67.2419 99.0755 67.5681 98.8805C67.9283 98.6787 68.3359 98.5769 68.7487 98.5854C69.1568 98.5766 69.5596 98.6786 69.9144 98.8805C70.2382 99.0784 70.4952 99.3688 70.6522 99.7143C70.8406 100.108 70.9341 100.54 70.9252 100.976C70.9337 101.419 70.8403 101.858 70.6522 102.26C70.4927 102.605 70.2364 102.898 69.9144 103.101C69.5619 103.301 69.1611 103.401 68.756 103.389C68.3439 103.399 67.9364 103.3 67.5755 103.101C67.254 102.897 66.9979 102.605 66.8377 102.26C66.6521 101.848 66.5662 101.398 66.5869 100.946L66.5721 100.983ZM113.718 112.006H115.68C116.093 112.038 116.502 111.917 116.831 111.667C116.966 111.543 117.072 111.39 117.141 111.221C117.209 111.051 117.24 110.868 117.23 110.685C117.241 110.505 117.212 110.324 117.143 110.156C117.074 109.988 116.967 109.839 116.831 109.719C116.503 109.466 116.094 109.343 115.68 109.372H113.718V112.006ZM112.751 115.872V108.59H115.769C116.414 108.544 117.052 108.745 117.554 109.151C117.764 109.346 117.928 109.584 118.035 109.849C118.142 110.114 118.189 110.4 118.174 110.685C118.189 110.973 118.141 111.261 118.034 111.528C117.927 111.796 117.764 112.037 117.554 112.235C117.052 112.641 116.414 112.841 115.769 112.796H113.718V115.835L112.751 115.872ZM105.233 115.208C105.866 115.701 106.645 115.969 107.446 115.969C108.248 115.969 109.027 115.701 109.66 115.208C110.186 114.595 110.451 113.801 110.398 112.995V108.612H109.446V112.884C109.488 113.473 109.309 114.057 108.944 114.522C108.525 114.875 107.995 115.069 107.446 115.069C106.898 115.069 106.368 114.875 105.949 114.522C105.611 114.046 105.454 113.465 105.506 112.884V108.538H104.539V112.921C104.471 113.735 104.726 114.543 105.248 115.171L105.233 115.208ZM96.6672 112.257C96.6223 113.012 96.8328 113.761 97.2647 114.382C97.4799 114.635 97.7517 114.834 98.0581 114.962C98.3645 115.09 98.6969 115.144 99.0281 115.12C99.3567 115.139 99.6854 115.083 99.9887 114.955C100.292 114.827 100.562 114.631 100.777 114.382C101.184 113.744 101.4 113.003 101.4 112.246C101.4 111.489 101.184 110.748 100.777 110.11C100.561 109.86 100.29 109.663 99.9854 109.535C99.6807 109.407 99.3505 109.351 99.0207 109.372C98.6895 109.348 98.3574 109.403 98.0511 109.531C97.7448 109.659 97.4728 109.857 97.2574 110.11C96.8328 110.718 96.6202 111.449 96.6524 112.191L96.6672 112.257ZM95.649 112.257C95.6345 111.573 95.7731 110.895 96.0547 110.272C96.3028 109.736 96.7064 109.286 97.2131 108.981C97.7652 108.666 98.3927 108.508 99.0281 108.524C99.6588 108.508 100.282 108.666 100.828 108.981C101.341 109.283 101.749 109.733 102.001 110.272C102.291 110.888 102.433 111.562 102.415 112.242C102.435 112.932 102.293 113.616 102.001 114.242C101.744 114.779 101.337 115.23 100.828 115.54C100.275 115.84 99.6544 115.998 99.0244 115.998C98.3944 115.998 97.7744 115.84 97.2205 115.54C96.7161 115.227 96.3116 114.777 96.0547 114.242C95.7705 113.596 95.6369 112.895 95.6638 112.191L95.649 112.257ZM91.0377 112.05H89.1268V109.402H91.0377C91.4692 109.372 91.8972 109.495 92.2477 109.748C92.3902 109.864 92.5028 110.012 92.576 110.18C92.6492 110.349 92.6808 110.532 92.6682 110.715C92.6802 110.902 92.6484 111.09 92.5754 111.263C92.5024 111.435 92.3903 111.589 92.2477 111.711C91.8907 111.932 91.4702 112.028 91.0525 111.984L91.0377 112.05ZM88.1676 108.62V115.835H89.1268V112.729H90.6467C90.9329 112.72 91.2182 112.765 91.4878 112.862C91.6091 112.917 91.7177 112.996 91.8066 113.095C91.8955 113.194 91.9628 113.311 92.0042 113.437L93.0003 115.835H94.0701L93.0297 113.415C92.9202 113.139 92.7299 112.903 92.4838 112.737C92.3705 112.661 92.246 112.604 92.1149 112.567C92.2537 112.531 92.3895 112.484 92.5207 112.427C92.8544 112.282 93.137 112.04 93.3323 111.733C93.5323 111.399 93.6322 111.015 93.62 110.626C93.6343 110.341 93.5848 110.055 93.475 109.791C93.3653 109.527 93.1981 109.291 92.9855 109.099C92.4706 108.707 91.8314 108.513 91.1852 108.553L88.1676 108.62ZM83.3498 115.998C82.651 116.021 81.9577 115.866 81.3356 115.548C80.8011 115.257 80.3723 114.805 80.1108 114.256C79.8228 113.633 79.6839 112.951 79.705 112.264C79.6887 111.575 79.8379 110.892 80.1403 110.272C80.4142 109.727 80.8462 109.277 81.3799 108.981C81.8933 108.725 82.4521 108.573 83.0244 108.534C83.5968 108.495 84.1712 108.569 84.7147 108.752C85.1047 108.906 85.4626 109.131 85.7698 109.416L85.4083 110.154C85.2098 109.979 84.9949 109.823 84.7664 109.689C84.5635 109.576 84.3446 109.494 84.1171 109.446C83.8585 109.385 83.5931 109.358 83.3276 109.365C82.97 109.34 82.6113 109.393 82.2762 109.52C81.9411 109.647 81.6378 109.846 81.3873 110.103C80.9042 110.707 80.6647 111.47 80.7158 112.242C80.6638 113.008 80.8949 113.767 81.3651 114.374C81.6294 114.637 81.9479 114.84 82.2983 114.967C82.6486 115.094 83.0226 115.144 83.3941 115.112C83.7138 115.114 84.0328 115.082 84.3458 115.016C84.5794 114.972 84.809 114.907 85.032 114.825V112.737H83.2096V111.999H85.8583V115.407C85.4964 115.587 85.1116 115.716 84.7147 115.791C84.273 115.883 83.8231 115.93 83.3719 115.931L83.3498 115.998ZM70.3423 108.62V115.835H74.9241V115.009H71.3014V108.553L70.3423 108.62ZM64.9784 109.697L63.4586 113.297H66.5795L65.0153 109.697H64.9784ZM61.3485 115.902L64.5727 108.62H65.4138L68.6822 115.902H67.6936L66.9042 114.087H63.1266L62.3445 115.835L61.3485 115.902ZM57.3274 111.829H55.4239V109.372H57.3274C57.758 109.341 58.1866 109.456 58.5448 109.697C58.6799 109.805 58.7872 109.943 58.8577 110.101C58.9283 110.259 58.9602 110.432 58.9506 110.604C58.9596 110.778 58.9275 110.951 58.857 111.11C58.7865 111.269 58.6795 111.409 58.5448 111.519C58.1797 111.725 57.7587 111.811 57.3421 111.763L57.3274 111.829ZM57.5488 115.097H55.4682V112.559H57.5488C57.9667 112.536 58.3823 112.636 58.744 112.847C58.8836 112.97 58.9954 113.121 59.072 113.29C59.1486 113.459 59.1882 113.643 59.1882 113.828C59.1882 114.014 59.1486 114.198 59.072 114.367C58.9954 114.536 58.8836 114.687 58.744 114.81C58.3823 115.021 57.9667 115.121 57.5488 115.097ZM54.5385 108.583V115.835H57.6373C58.2906 115.878 58.9389 115.695 59.4744 115.319C59.6903 115.14 59.862 114.914 59.9759 114.658C60.0898 114.402 60.143 114.123 60.1311 113.843C60.1406 113.618 60.105 113.393 60.0265 113.181C59.948 112.97 59.828 112.776 59.6736 112.611C59.4226 112.362 59.105 112.19 58.7588 112.117C59.0429 112.007 59.2961 111.83 59.4966 111.6C59.7775 111.29 59.9258 110.882 59.9097 110.464C59.9233 110.199 59.8736 109.934 59.7646 109.691C59.6555 109.449 59.4903 109.236 59.2826 109.07C58.7526 108.707 58.1159 108.533 57.475 108.575L54.5385 108.583ZM46.644 112.22C46.5991 112.975 46.8097 113.724 47.2416 114.345C47.4666 114.585 47.7386 114.777 48.0406 114.908C48.3427 115.039 48.6684 115.106 48.9976 115.106C49.3269 115.106 49.6525 115.039 49.9546 114.908C50.2566 114.777 50.5286 114.585 50.7536 114.345C51.1626 113.708 51.38 112.966 51.38 112.209C51.38 111.452 51.1626 110.71 50.7536 110.073C50.537 109.824 50.2661 109.627 49.9616 109.5C49.6571 109.372 49.3273 109.315 48.9976 109.335C48.6653 109.311 48.3318 109.365 48.0242 109.493C47.7166 109.621 47.4435 109.82 47.2269 110.073C46.7918 110.691 46.5762 111.436 46.6145 112.191L46.644 112.22ZM45.6332 112.22C45.6164 111.537 45.7525 110.859 46.0316 110.235C46.2816 109.7 46.6847 109.251 47.1899 108.944C47.7443 108.628 48.3746 108.47 49.0124 108.487C49.6408 108.471 50.2612 108.629 50.8052 108.944C51.3184 109.248 51.7294 109.697 51.9857 110.235C52.259 110.835 52.3952 111.488 52.3841 112.146C52.3993 112.835 52.258 113.519 51.9709 114.146C51.7108 114.683 51.3008 115.134 50.7904 115.444C50.2379 115.745 49.6191 115.902 48.9902 115.902C48.3614 115.902 47.7425 115.745 47.1899 115.444C46.6852 115.13 46.2788 114.68 46.0169 114.146C45.739 113.532 45.5981 112.865 45.6037 112.191L45.6332 112.22ZM39.9964 108.583V115.835H44.5782V115.009H40.9555V108.553L39.9964 108.583ZM35.1786 115.961C34.4798 115.984 33.7865 115.83 33.1643 115.511C32.6302 115.218 32.1998 114.767 31.9322 114.22C31.6515 113.594 31.5153 112.913 31.5338 112.227C31.5151 111.539 31.6618 110.856 31.9617 110.235C32.2399 109.693 32.6708 109.244 33.2012 108.944C33.7158 108.688 34.276 108.536 34.8496 108.497C35.4231 108.457 35.9987 108.532 36.5435 108.715C36.9312 108.869 37.2866 109.094 37.5911 109.38L37.2296 110.117C37.035 109.941 36.8223 109.785 36.5951 109.652C36.3896 109.539 36.1682 109.457 35.9384 109.409C35.6824 109.348 35.4195 109.321 35.1564 109.328C34.7988 109.302 34.4399 109.355 34.1047 109.482C33.7696 109.61 33.4663 109.809 33.216 110.066C32.7858 110.695 32.5557 111.439 32.5557 112.202C32.5557 112.964 32.7858 113.708 33.216 114.338C33.4789 114.6 33.796 114.802 34.1452 114.93C34.4943 115.057 34.8672 115.107 35.2376 115.075C35.5573 115.077 35.8764 115.045 36.1894 114.979C36.4256 114.936 36.6576 114.871 36.8828 114.788V112.737H35.0531V111.999H37.7092V115.407C37.3469 115.586 36.9623 115.715 36.5656 115.791C36.0998 115.888 35.6249 115.935 35.149 115.931L35.1786 115.961ZM16.8072 111.999H18.7697C19.182 112.03 19.5915 111.909 19.9207 111.659C20.0555 111.535 20.1611 111.383 20.23 111.213C20.2989 111.044 20.3294 110.861 20.3192 110.678C20.3309 110.497 20.301 110.316 20.232 110.149C20.1629 109.981 20.0564 109.832 19.9207 109.712C19.5925 109.459 19.1829 109.335 18.7697 109.365H16.8072V111.999ZM15.8406 115.865V108.583H18.8583C19.503 108.537 20.141 108.737 20.6438 109.143C20.853 109.338 21.017 109.577 21.1241 109.842C21.2311 110.107 21.2787 110.393 21.2635 110.678C21.2784 110.966 21.2307 111.253 21.1237 111.521C21.0167 111.788 20.853 112.029 20.6438 112.227C20.141 112.634 19.503 112.834 18.8583 112.788H16.8072V115.835L15.8406 115.865ZM10.3956 112.176L7.59942 115.865H8.73558L10.949 112.869L13.1624 115.865H14.3134L11.5171 112.176L14.188 108.612H13.037L10.9195 111.408L8.8315 108.553H7.69534L10.3956 112.176ZM1.7929 108.612V115.835H6.5001V115.053H2.72246V112.53H6.26395V111.748H2.72246V109.335H6.5001V108.553L1.7929 108.612ZM24.5025 114.374C24.1114 113.733 23.9045 112.997 23.9045 112.246C23.9045 111.495 24.1114 110.758 24.5025 110.117C24.7191 109.864 24.9923 109.665 25.2999 109.537C25.6075 109.409 25.9409 109.355 26.2732 109.38C26.6029 109.36 26.9327 109.416 27.2372 109.544C27.5416 109.672 27.8126 109.868 28.0292 110.117C28.4382 110.755 28.6557 111.496 28.6557 112.253C28.6557 113.011 28.4382 113.752 28.0292 114.389C27.8042 114.63 27.5323 114.821 27.2302 114.952C26.9282 115.083 26.6024 115.151 26.2732 115.151C25.944 115.151 25.6182 115.083 25.3162 114.952C25.0141 114.821 24.7422 114.63 24.5172 114.389L24.5025 114.374ZM23.2924 110.265C23.0133 110.888 22.8773 111.567 22.8941 112.25C22.8795 112.932 23.0155 113.61 23.2924 114.234C23.552 114.77 23.959 115.22 24.4656 115.533C25.0182 115.833 25.637 115.99 26.2658 115.99C26.8947 115.99 27.5136 115.833 28.0661 115.533C28.5749 115.221 28.9844 114.77 29.2466 114.234C29.5337 113.608 29.6749 112.924 29.6597 112.235C29.6751 111.555 29.5337 110.881 29.2466 110.265C28.9881 109.728 28.5776 109.279 28.0661 108.974C27.5221 108.659 26.9016 108.501 26.2732 108.516C25.6354 108.5 25.0052 108.658 24.4509 108.974C23.9432 109.26 23.5303 109.688 23.263 110.206L23.2924 110.265ZM108.324 84.5745L108.037 85.2533C108.664 85.6251 109.381 85.8189 110.11 85.814C111.77 85.814 112.855 84.877 112.855 83.49C112.855 82.2504 112.072 81.5864 110.752 81.0773C109.652 80.6199 109.07 80.251 109.07 79.4025C109.07 79.203 109.113 79.0059 109.195 78.8239C109.277 78.642 109.397 78.4793 109.545 78.3464C109.694 78.2136 109.869 78.1135 110.059 78.0527C110.249 77.9918 110.45 77.9716 110.649 77.9933C111.23 77.9808 111.8 78.1511 112.279 78.4803L112.582 77.8236C112.048 77.4783 111.424 77.3009 110.789 77.3145C110.476 77.283 110.16 77.3163 109.86 77.4123C109.561 77.5084 109.285 77.6652 109.048 77.873C108.812 78.0807 108.622 78.3349 108.488 78.6196C108.355 78.9044 108.281 79.2136 108.273 79.528C108.273 80.5092 109.011 81.2397 110.346 81.7414C111.519 82.2136 112.058 82.6931 112.058 83.5932C112.058 84.4934 111.445 85.1353 110.162 85.1353C109.494 85.1055 108.848 84.891 108.295 84.5155L108.324 84.5745ZM98.8658 85.5853V79.3878C98.8658 78.65 98.8658 78.0818 98.7994 77.4399H99.5372L99.5888 78.9156C99.8533 78.4053 100.256 77.9793 100.75 77.6859C101.244 77.3925 101.811 77.2434 102.385 77.2555C103.167 77.2555 105.24 77.6465 105.24 80.7011V85.5853H104.421V80.7675C104.421 79.2918 103.846 77.949 102.164 77.949C101.612 77.9631 101.079 78.1512 100.64 78.4865C100.201 78.8217 99.8801 79.2869 99.7217 79.8157C99.6579 80.0566 99.6232 80.3043 99.6184 80.5535V85.5853H98.8658ZM89.2743 81.5274C89.2743 79.7788 90.2113 77.9343 92.2993 77.9343C94.3873 77.9343 95.2875 79.9854 95.2875 81.4757C95.2875 83.5637 93.9447 85.091 92.2477 85.091C90.5508 85.091 89.2743 83.5637 89.2743 81.5274ZM96.099 81.4241C96.099 78.9524 94.5718 77.2555 92.3141 77.2555C90.2925 77.2555 88.4628 78.7975 88.4628 81.579C88.4628 84.1245 90.0933 85.7698 92.196 85.7698C94.0184 85.7698 96.1064 84.4638 96.1064 81.4241H96.099ZM85.3197 74.4002C85.4115 74.4038 85.5016 74.4261 85.5846 74.4656C85.6676 74.5051 85.7417 74.561 85.8024 74.63C85.8631 74.699 85.9092 74.7796 85.9378 74.8669C85.9665 74.9543 85.9771 75.0465 85.969 75.138C85.9731 75.2289 85.9584 75.3197 85.9259 75.4047C85.8935 75.4897 85.8439 75.5671 85.7802 75.6322C85.7166 75.6972 85.6402 75.7485 85.5559 75.7828C85.4716 75.817 85.3812 75.8337 85.2902 75.8315C85.2029 75.8288 85.1172 75.8084 85.038 75.7718C84.9588 75.7351 84.8878 75.6828 84.8292 75.6181C84.7707 75.5533 84.7258 75.4774 84.6972 75.395C84.6687 75.3125 84.6571 75.2251 84.6631 75.138C84.6571 75.0457 84.6697 74.9531 84.7 74.8658C84.7303 74.7784 84.7778 74.698 84.8397 74.6292C84.9016 74.5605 84.9765 74.5048 85.0602 74.4655C85.144 74.4261 85.2347 74.4039 85.3271 74.4002H85.3197ZM84.9213 85.5853V77.4695H85.7402V85.5853H84.9213ZM80.1256 75.6397L79.314 75.9496V77.4252H77.9417V78.0892H79.314V83.2539C79.2501 83.9427 79.4303 84.6321 79.823 85.2017C79.9935 85.3989 80.2077 85.5537 80.4485 85.6536C80.6893 85.7535 80.9501 85.7958 81.2101 85.7772C81.6009 85.7887 81.9899 85.7209 82.3537 85.5779L82.2504 84.9656C81.9459 85.0524 81.6299 85.0923 81.3134 85.0836C80.4502 85.0836 80.1256 84.4417 80.1256 83.4014V78.1114H82.4497V77.4695H80.1256V75.6397ZM75.5954 77.4399V83.6006C75.5954 84.3384 75.5955 84.9582 75.6619 85.5853H74.9241L74.8724 84.1097C74.6031 84.6117 74.2015 85.0304 73.7112 85.3204C73.2209 85.6104 72.6605 85.7608 72.0909 85.755C71.0505 85.755 69.302 85.2312 69.302 82.1619V77.4695H70.0914V82.0512C70.0914 83.8146 70.6301 85.091 72.2458 85.091C72.7632 85.076 73.2653 84.913 73.6929 84.6215C74.1205 84.3299 74.4555 83.9218 74.6584 83.4457C74.7516 83.1545 74.8014 82.8512 74.806 82.5456V77.4695L75.5954 77.4399ZM58.4858 77.9343C56.3978 77.9343 55.4608 79.7788 55.4608 81.5274C55.4608 83.5637 56.7741 85.091 58.412 85.091C60.0499 85.091 61.4518 83.5637 61.4518 81.4757C61.4739 79.9854 60.6402 77.9343 58.4858 77.9343ZM58.4858 77.2555C60.7435 77.2555 62.2707 78.9524 62.2707 81.4241C62.2707 84.4638 60.1827 85.7698 58.3677 85.7698C56.265 85.7698 54.6345 84.1245 54.6345 81.579C54.6492 78.7975 56.479 77.2555 58.5005 77.2555H58.4858ZM47.9573 84.5155L47.6695 85.1943C48.2968 85.5661 49.0136 85.7599 49.7428 85.755C51.4029 85.755 52.4874 84.818 52.4874 83.4309C52.4874 82.1914 51.7054 81.5274 50.3847 81.0183C49.278 80.5609 48.7025 80.192 48.7025 79.3435C48.7034 79.144 48.7462 78.9468 48.8281 78.7649C48.9101 78.583 49.0293 78.4203 49.1782 78.2874C49.3271 78.1546 49.5023 78.0545 49.6923 77.9936C49.8823 77.9328 50.083 77.9126 50.2814 77.9343C50.8625 77.9218 51.4328 78.0921 51.9119 78.4212L52.2144 77.7646C51.6813 77.4192 51.0566 77.2419 50.4215 77.2555C50.1086 77.2239 49.7926 77.2572 49.4932 77.3533C49.1937 77.4494 48.9173 77.6062 48.6812 77.8139C48.4451 78.0216 48.2544 78.2758 48.1209 78.5606C47.9875 78.8453 47.9142 79.1546 47.9057 79.4689C47.9057 80.4502 48.6434 81.1806 49.9789 81.6823C51.1446 82.1545 51.6906 82.6341 51.6906 83.5342C51.6906 84.4343 51.0782 85.0762 49.787 85.0762C49.1377 85.0578 48.5055 84.864 47.9573 84.5155ZM37.355 77.9343C35.2671 77.9343 34.3301 79.7788 34.3301 81.5274C34.3301 83.5637 35.636 85.091 37.2813 85.091C38.9266 85.091 40.3137 83.5637 40.3137 81.4757C40.3579 79.9854 39.5316 77.9343 37.3772 77.9343H37.355ZM37.355 77.2555C39.6127 77.2555 41.14 78.9524 41.14 81.4241C41.14 84.4638 39.052 85.7698 37.237 85.7698C35.1342 85.7698 33.5037 84.1245 33.5037 81.579C33.5406 78.7975 35.3704 77.2555 37.392 77.2555H37.355ZM24.9378 82.3759V80.7822C24.9487 80.5778 24.9809 80.375 25.0337 80.1772V80.0887C25.1822 79.4815 25.5277 78.9406 26.0163 78.5508C26.505 78.161 27.109 77.9442 27.734 77.9343C29.5786 77.9343 30.5967 79.5796 30.5967 81.4093C30.5967 83.6228 29.5269 85.0984 27.6455 85.0984C27.0325 85.1026 26.4357 84.9015 25.9503 84.527C25.4649 84.1526 25.1189 83.6265 24.9673 83.0325C24.9429 82.8142 24.9454 82.5936 24.9747 82.3759H24.9378ZM24.1188 80.037V88.9423H24.9378V84.2646C25.2255 84.735 25.6337 85.1198 26.1202 85.3793C26.6067 85.6387 27.1537 85.7634 27.7046 85.7402C29.6745 85.7402 31.3936 84.2647 31.3936 81.3503C31.3936 78.9525 29.9844 77.226 27.8817 77.226C27.269 77.2 26.6616 77.3485 26.13 77.6541C25.5984 77.9597 25.1645 78.41 24.8787 78.9525L24.8271 77.4105H24.045C24.1409 78.2073 24.1557 79.0189 24.1557 80.037H24.1188ZM15.2061 77.4695H16.121L17.5155 79.4542L17.5819 79.5574L17.663 79.6681C17.936 80.0592 18.1795 80.4059 18.4008 80.8339C18.6443 80.4281 18.9099 80.0961 19.1386 79.6903L19.3158 79.4394L20.7101 77.4547H21.6103L18.7624 81.4241L21.7136 85.6001H20.7766L19.301 83.5268C18.9911 83.1137 18.7329 82.7005 18.4599 82.2799L18.3787 82.1471L18.2902 82.007C17.9801 82.5349 17.6401 83.0449 17.272 83.5342L15.848 85.6075H14.9332L17.8844 81.4462L15.2061 77.4695ZM7.45919 80.8117H12.6238C12.6238 79.6755 12.1664 77.9638 10.1964 77.9638C8.39618 77.9343 7.61413 79.5279 7.45919 80.7822V80.8117ZM13.4354 81.4536H7.42965C7.42965 84.0507 8.83153 85.091 10.5285 85.091C11.307 85.1233 12.0816 84.9663 12.7861 84.6335L12.9927 85.2607C12.1956 85.6437 11.3161 85.8236 10.4326 85.7845C8.08635 85.7845 6.62547 84.0876 6.62547 81.6971C6.62547 78.982 8.18962 77.2703 10.3145 77.2703C12.978 77.2703 13.4871 79.7788 13.4871 80.9593C13.4856 81.1156 13.4682 81.2713 13.4354 81.4241V81.4536ZM65.0375 73.5665V85.5853H65.8564V73.537L65.0375 73.5665ZM38.8233 101.028H0.863264V63.3995H0.0369263V101.817H38.8233V101.028ZM118.698 101.028V63.4512H119.524V101.817H81.9553V100.998L118.698 101.028ZM32.2494 30.7517C34.5231 29.6661 37.012 29.1063 39.5315 29.1138C41.7287 29.0815 43.9093 29.4988 45.9393 30.34C47.9694 31.1812 49.806 32.4285 51.3364 34.0054C52.9185 35.5378 54.1735 37.375 55.0254 39.4061C56.6709 43.5019 56.6445 48.0796 54.9518 52.1561C53.2592 56.2326 50.0353 59.4827 45.9726 61.2083C43.4044 62.2388 40.623 62.6256 37.871 62.335C35.119 62.0443 32.4799 61.0851 30.1836 59.5408C27.4384 57.6795 25.3112 55.0411 24.0746 51.9636L26.8783 50.2519C27.797 52.9346 29.5238 55.2671 31.8215 56.929C34.4403 58.8266 37.6517 59.7246 40.8749 59.4607C44.0982 59.1968 47.1206 57.7885 49.396 55.4903C51.9529 52.913 53.3876 49.4297 53.3876 45.7992C53.3876 42.1688 51.9529 38.6854 49.396 36.1082C48.1435 34.8105 46.6364 33.7856 44.9692 33.0979C43.3046 32.4095 41.5171 32.068 39.716 32.0945C36.547 32.0632 33.468 33.147 31.0173 35.1564L28.5162 34.5661L32.943 17.6483H47.5958V20.2454H35.1195L32.2494 30.7517ZM94.6456 40.2841C94.6522 43.2009 94.0761 46.0896 92.951 48.7807C91.826 51.4718 90.1746 53.911 88.0939 55.9551C86.0066 58.0112 83.5346 59.6359 80.8191 60.7361C78.0931 61.8371 75.1785 62.3959 72.2385 62.3814H60.4336V22.717H63.2372V59.6072H72.3048C74.8858 59.6417 77.4478 59.1605 79.8403 58.1918C82.2329 57.2231 84.408 55.7864 86.238 53.966C88.068 52.1456 89.5161 49.9781 90.4974 47.5907C91.4787 45.2033 91.9734 42.6439 91.9526 40.0628C91.9784 37.4459 91.4755 34.8508 90.4739 32.4331C89.4723 30.0154 87.9927 27.8248 86.1239 25.9929C84.3413 24.1013 82.179 22.6078 79.7788 21.6103C77.3747 20.599 74.7872 20.0966 72.1794 20.1347H50.2002V17.545H72.0982C75.0772 17.5141 78.0307 18.0967 80.7748 19.2567C83.5112 20.4156 85.9762 22.1318 88.0127 24.2959C90.1352 26.3639 91.8176 28.8398 92.9588 31.5747C94.0999 34.3096 94.6762 37.247 94.653 40.2103L94.6456 40.2841ZM0.826337 0.959137V38.3658H0V0.110666H38.8602V0.929641L0.826337 0.959137ZM82.0734 0.848471H118.587V38.4765H119.414V0H82.0734V0.848471Z" fill="#1A1A1A"/>
</svg>
