<svg width="109" height="40" viewBox="0 0 109 40" fill="none" xmlns="http://www.w3.org/2000/svg">
<g clip-path="url(#clip0_568_10241)">
<path d="M39.9997 14.6379L39.963 26.1979L26.8936 32.9267L26.9303 21.3667L39.9997 14.6379Z" fill="#7F87BD"/>
<path d="M26.9305 21.3667L26.8938 32.9267L13.7368 26.1962L13.7735 14.6362L26.9305 21.3667Z" fill="#4C53A2"/>
<path d="M39.9989 14.6384C19.9665 24.9552 49.338 9.8208 26.9309 21.3688L13.772 14.6346C13.8767 14.5807 26.269 8.20411 26.8443 7.90808L39.9989 14.6384Z" fill="#A2A9D0"/>
<path d="M34.5826 17.4264L32.3459 18.5808L19.187 11.8504L21.4275 10.6968L34.5826 17.4264Z" fill="#7F87BD"/>
<path d="M34.5472 17.4548L34.5538 19.6953H33.9758L33.4533 20.2583L32.8489 20.2716L32.3537 20.8213L32.3462 18.5809L34.5472 17.4548Z" fill="#4C53A2"/>
<path d="M26.2629 21.7104L26.2262 33.2704L13.1567 40.0001L13.1944 28.4401L26.2629 21.7104Z" fill="#7F87BD"/>
<path d="M13.1946 28.4402L13.157 40.0002L0 33.2697L0.0367146 21.7097L13.1946 28.4402Z" fill="#4C53A2"/>
<path d="M26.2616 21.7118C8.35311 30.9351 14.5298 27.754 13.1936 28.4422L0.034668 21.708C0.139795 21.6539 13.2032 14.932 13.107 14.9815L26.2616 21.7118Z" fill="#A2A9D0"/>
<path d="M20.8463 24.4998L18.6096 25.6534L5.45068 18.9237L7.69121 17.7701L20.8463 24.4998Z" fill="#7F87BD"/>
<path d="M20.8104 24.5281L20.817 26.7685H20.2389L19.7174 27.3315L19.1121 27.3449L18.6169 27.8937L18.6094 25.6533L20.8104 24.5281Z" fill="#4C53A2"/>
<path d="M32.2409 6.69226L32.2042 18.2523L19.1348 24.9819L19.1715 13.4219L32.2409 6.69226Z" fill="#7F87BD"/>
<path d="M19.1712 13.4219L19.1345 24.9818L5.97754 18.2505L6.01425 6.69055L19.1712 13.4219Z" fill="#4C53A2"/>
<path d="M32.2396 6.693C14.3311 15.9163 20.5078 12.7352 19.1716 13.4234L6.0127 6.68919C6.11782 6.6351 19.1812 -0.0867862 19.0851 -0.037326L32.2396 6.693Z" fill="#A2A9D0"/>
<path d="M26.8239 9.48145L24.5871 10.635L11.4282 3.90456L13.6688 2.75098L26.8239 9.48145Z" fill="#7F87BD"/>
<path d="M26.7874 9.50903L26.795 11.7495L26.217 11.7503L25.6945 12.3125L25.0901 12.3258L24.5949 12.8755L24.5874 10.6351L26.7874 9.50903Z" fill="#4C53A2"/>
</g>
<defs>
<clipPath id="clip0_568_10241">
<rect width="108.333" height="40" fill="white"/>
</clipPath>
</defs>
</svg>
