<svg width="48" height="49" viewBox="0 0 48 49" fill="none" xmlns="http://www.w3.org/2000/svg">
<path d="M48 17.6109L47.9559 31.4829L32.2726 39.5575L32.3166 25.6855L48 17.6109Z" fill="#C4C4C4"/>
<path d="M32.3166 25.6853L32.2725 39.5573L16.4841 31.4807L16.5282 17.6087L32.3166 25.6853Z" fill="#7B7B7B"/>
<path d="M47.9985 17.6114C23.9596 29.9916 59.2054 11.8302 32.3168 25.6878L16.5261 17.6068C16.6517 17.5421 31.5226 9.89018 32.213 9.53494L47.9985 17.6114Z" fill="#D9D9D9"/>
<path d="M41.5 20.9567L38.8159 22.342L23.0252 14.2654L25.7138 12.8811L41.5 20.9567Z" fill="#C4C4C4"/>
<path d="M41.4571 20.9908L41.465 23.6793H40.7713L40.1444 24.3549L39.4191 24.3709L38.8249 25.0306L38.8159 22.342L41.4571 20.9908Z" fill="#7B7B7B"/>
<path d="M31.5159 26.0977L31.4718 39.9697L15.7885 48.0453L15.8336 34.1733L31.5159 26.0977Z" fill="#C4C4C4"/>
<path d="M15.8336 34.1733L15.7884 48.0454L0 39.9688L0.0440576 26.0967L15.8336 34.1733Z" fill="#7B7B7B"/>
<path d="M31.5144 26.0992C10.0242 37.1672 17.4362 33.3499 15.8327 34.1757L0.0419923 26.0947C0.168145 26.0298 15.8442 17.9635 15.7289 18.0228L31.5144 26.0992Z" fill="#D9D9D9"/>
<path d="M25.0157 29.445L22.3316 30.8293L6.54088 22.7537L9.22952 21.3694L25.0157 29.445Z" fill="#C4C4C4"/>
<path d="M24.9727 29.4791L24.9806 32.1676H24.287L23.6612 32.8432L22.9348 32.8593L22.3406 33.5179L22.3315 30.8293L24.9727 29.4791Z" fill="#7B7B7B"/>
<path d="M38.6895 8.0757L38.6455 21.9477L22.9621 30.0233L23.0062 16.1513L38.6895 8.0757Z" fill="#C4C4C4"/>
<path d="M23.0061 16.1513L22.9621 30.0234L7.17366 21.9458L7.21772 8.07375L23.0061 16.1513Z" fill="#7B7B7B"/>
<path d="M38.6878 8.07674C17.1976 19.1447 24.6096 15.3274 23.0062 16.1532L7.21544 8.07216C7.34159 8.00725 23.0177 -0.0590264 22.9023 0.000325937L38.6878 8.07674Z" fill="#D9D9D9"/>
<path d="M32.1892 11.4228L29.5051 12.8071L13.7144 4.7305L16.4031 3.3462L32.1892 11.4228Z" fill="#C4C4C4"/>
<path d="M32.1453 11.4558L32.1543 14.1444L31.4607 14.1454L30.8337 14.82L30.1085 14.836L29.5142 15.4956L29.5052 12.8071L32.1453 11.4558Z" fill="#7B7B7B"/>
</svg>
