<svg width="109" height="40" viewBox="0 0 109 40" fill="none" xmlns="http://www.w3.org/2000/svg">
<rect width="40" height="40" rx="20" fill="#284999"/>
<path d="M19.9997 2.5L19.2544 4.9845L20.4966 5.23295L19.9997 2.5Z" fill="#FFCC00"/>
<path d="M19.9998 2.5L20.7451 4.9845L19.5029 5.23295L19.9998 2.5Z" fill="#FFCC00"/>
<path d="M22.3622 4.21693L19.7689 4.27581L19.9165 5.53404L22.3622 4.21693Z" fill="#FFCC00"/>
<path d="M22.362 4.21691L20.2294 5.69354L19.6092 4.58886L22.362 4.21691Z" fill="#FFCC00"/>
<path d="M21.4595 6.99414L20.6021 4.54602L19.4511 5.0752L21.4595 6.99414Z" fill="#FFCC00"/>
<path d="M21.4594 6.99451L19.3961 5.42261L20.2551 4.49143L21.4594 6.99451Z" fill="#FFCC00"/>
<path d="M17.6369 4.21693L20.2301 4.27581L20.0825 5.53404L17.6369 4.21693Z" fill="#FFCC00"/>
<path d="M17.6371 4.21679L19.7696 5.69341L20.3898 4.58874L17.6371 4.21679Z" fill="#FFCC00"/>
<path d="M18.539 6.99438L19.3964 4.54627L20.5474 5.07545L18.539 6.99438Z" fill="#FFCC00"/>
<path d="M18.5391 6.99427L20.6024 5.42237L19.7435 4.49119L18.5391 6.99427Z" fill="#FFCC00"/>
<path d="M19.9997 32.3141L19.2544 34.7986L20.4966 35.047L19.9997 32.3141Z" fill="#FFCC00"/>
<path d="M19.9998 32.3141L20.7451 34.7986L19.5029 35.047L19.9998 32.3141Z" fill="#FFCC00"/>
<path d="M22.3622 34.0306L19.7689 34.0895L19.9165 35.3478L22.3622 34.0306Z" fill="#FFCC00"/>
<path d="M22.362 34.0305L20.2294 35.5071L19.6092 34.4025L22.362 34.0305Z" fill="#FFCC00"/>
<path d="M21.4595 36.8072L20.6021 34.3591L19.4511 34.8883L21.4595 36.8072Z" fill="#FFCC00"/>
<path d="M21.4594 36.8073L19.3961 35.2354L20.2551 34.3042L21.4594 36.8073Z" fill="#FFCC00"/>
<path d="M17.6369 34.0305L20.2301 34.0894L20.0825 35.3476L17.6369 34.0305Z" fill="#FFCC00"/>
<path d="M17.6371 34.0305L19.7696 35.5071L20.3898 34.4025L17.6371 34.0305Z" fill="#FFCC00"/>
<path d="M18.539 36.8085L19.3964 34.3604L20.5474 34.8895L18.539 36.8085Z" fill="#FFCC00"/>
<path d="M18.5391 36.8084L20.6024 35.2365L19.7435 34.3053L18.5391 36.8084Z" fill="#FFCC00"/>
<path d="M5.09252 17.407L4.34717 19.8915L5.58942 20.1399L5.09252 17.407Z" fill="#FFCC00"/>
<path d="M5.09303 17.407L5.83838 19.8915L4.59613 20.1399L5.09303 17.407Z" fill="#FFCC00"/>
<path d="M7.45591 19.1237L4.86268 19.1825L5.01027 20.4408L7.45591 19.1237Z" fill="#FFCC00"/>
<path d="M7.45571 19.1236L5.32313 20.6003L4.70296 19.4956L7.45571 19.1236Z" fill="#FFCC00"/>
<path d="M6.55325 21.9014L5.6959 19.4533L4.54486 19.9824L6.55325 21.9014Z" fill="#FFCC00"/>
<path d="M6.5532 21.9012L4.48984 20.3294L5.34881 19.3982L6.5532 21.9012Z" fill="#FFCC00"/>
<path d="M2.73012 19.1238L5.32335 19.1827L5.17577 20.4409L2.73012 19.1238Z" fill="#FFCC00"/>
<path d="M2.73033 19.1236L4.8629 20.6003L5.48307 19.4956L2.73033 19.1236Z" fill="#FFCC00"/>
<path d="M3.63279 21.9012L4.49014 19.4531L5.64118 19.9823L3.63279 21.9012Z" fill="#FFCC00"/>
<path d="M3.63235 21.9012L5.69571 20.3294L4.83674 19.3982L3.63235 21.9012Z" fill="#FFCC00"/>
<path d="M11.2696 9.10413L13.3329 7.53223L12.4739 6.60105L11.2696 9.10413Z" fill="#FFCC00"/>
<path d="M11.2695 9.10424L12.1269 6.65613L13.2779 7.18531L11.2695 9.10424Z" fill="#FFCC00"/>
<path d="M10.367 6.32677L12.4996 7.8034L13.1198 6.69872L10.367 6.32677Z" fill="#FFCC00"/>
<path d="M10.3668 6.32679L12.9601 6.38567L12.8125 7.6439L10.3668 6.32679Z" fill="#FFCC00"/>
<path d="M12.7292 4.61011L11.9839 7.09461L13.2261 7.34306L12.7292 4.61011Z" fill="#FFCC00"/>
<path d="M12.7293 4.61011L13.4746 7.09461L12.2324 7.34306L12.7293 4.61011Z" fill="#FFCC00"/>
<path d="M14.1899 9.10413L12.1266 7.53223L12.9855 6.60105L14.1899 9.10413Z" fill="#FFCC00"/>
<path d="M14.19 9.10424L13.3326 6.65613L12.1816 7.18531L14.19 9.10424Z" fill="#FFCC00"/>
<path d="M15.0919 6.32629L12.9594 7.80291L12.3392 6.69823L15.0919 6.32629Z" fill="#FFCC00"/>
<path d="M15.0921 6.32642L12.4989 6.38531L12.6465 7.64353L15.0921 6.32642Z" fill="#FFCC00"/>
<path d="M8.66165 14.631L7.80429 12.1829L6.65326 12.712L8.66165 14.631Z" fill="#FFCC00"/>
<path d="M8.6616 14.6309L6.59824 13.059L7.45721 12.1278L8.6616 14.6309Z" fill="#FFCC00"/>
<path d="M5.74075 14.6309L7.8041 13.059L6.94514 12.1278L5.74075 14.6309Z" fill="#FFCC00"/>
<path d="M5.74167 14.631L6.59903 12.1829L7.75006 12.712L5.74167 14.631Z" fill="#FFCC00"/>
<path d="M4.83872 11.853L6.9713 13.3296L7.59147 12.225L4.83872 11.853Z" fill="#FFCC00"/>
<path d="M4.83803 11.853L7.43126 11.9119L7.28368 13.1701L4.83803 11.853Z" fill="#FFCC00"/>
<path d="M9.56508 11.8531L7.43251 13.3298L6.81234 12.2251L9.56508 11.8531Z" fill="#FFCC00"/>
<path d="M9.56529 11.8532L6.97206 11.912L7.11964 13.1703L9.56529 11.8532Z" fill="#FFCC00"/>
<path d="M7.2024 10.1364L7.94775 12.6209L6.7055 12.8693L7.2024 10.1364Z" fill="#FFCC00"/>
<path d="M7.20287 10.1364L6.45752 12.6209L7.69977 12.8693L7.20287 10.1364Z" fill="#FFCC00"/>
<path d="M9.56871 26.7955L6.97548 26.8544L7.12306 28.1127L9.56871 26.7955Z" fill="#FFCC00"/>
<path d="M9.56899 26.7955L7.43641 28.2721L6.81625 27.1675L9.56899 26.7955Z" fill="#FFCC00"/>
<path d="M8.66555 29.5732L7.8082 27.1251L6.65716 27.6543L8.66555 29.5732Z" fill="#FFCC00"/>
<path d="M8.6655 29.5731L6.60215 28.0012L7.46111 27.07L8.6655 29.5731Z" fill="#FFCC00"/>
<path d="M5.74514 29.5731L7.8085 28.0012L6.94953 27.07L5.74514 29.5731Z" fill="#FFCC00"/>
<path d="M5.74607 29.5732L6.60342 27.1251L7.75446 27.6543L5.74607 29.5732Z" fill="#FFCC00"/>
<path d="M7.20631 25.0786L7.95166 27.5631L6.70941 27.8116L7.20631 25.0786Z" fill="#FFCC00"/>
<path d="M7.2058 25.0785L6.46045 27.563L7.7027 27.8114L7.2058 25.0785Z" fill="#FFCC00"/>
<path d="M4.84389 26.7957L7.43712 26.8545L7.28954 28.1128L4.84389 26.7957Z" fill="#FFCC00"/>
<path d="M4.84361 26.7956L6.97618 28.2723L7.59635 27.1676L4.84361 26.7956Z" fill="#FFCC00"/>
<path d="M14.9608 31.7959L12.3676 31.8548L12.5152 33.113L14.9608 31.7959Z" fill="#FFCC00"/>
<path d="M14.9606 31.7959L12.828 33.2725L12.2078 32.1678L14.9606 31.7959Z" fill="#FFCC00"/>
<path d="M14.0581 34.5736L13.2008 32.1255L12.0497 32.6547L14.0581 34.5736Z" fill="#FFCC00"/>
<path d="M14.0581 34.5735L11.9947 33.0016L12.8537 32.0704L14.0581 34.5735Z" fill="#FFCC00"/>
<path d="M11.1367 34.5737L13.2001 33.0018L12.3411 32.0707L11.1367 34.5737Z" fill="#FFCC00"/>
<path d="M11.1372 34.5735L11.9945 32.1254L13.1456 32.6545L11.1372 34.5735Z" fill="#FFCC00"/>
<path d="M12.5974 30.0791L13.3428 32.5636L12.1005 32.8121L12.5974 30.0791Z" fill="#FFCC00"/>
<path d="M12.5969 30.079L11.8516 32.5635L13.0938 32.8119L12.5969 30.079Z" fill="#FFCC00"/>
<path d="M10.235 31.7958L12.8282 31.8547L12.6806 33.1129L10.235 31.7958Z" fill="#FFCC00"/>
<path d="M10.2352 31.7958L12.3678 33.2724L12.988 32.1677L10.2352 31.7958Z" fill="#FFCC00"/>
<path d="M34.9065 17.4069L35.6519 19.8914L34.4096 20.1398L34.9065 17.4069Z" fill="#FFCC00"/>
<path d="M34.9065 17.4069L34.1611 19.8914L35.4034 20.1398L34.9065 17.4069Z" fill="#FFCC00"/>
<path d="M32.5446 19.1239L35.1378 19.1828L34.9902 20.441L32.5446 19.1239Z" fill="#FFCC00"/>
<path d="M32.5448 19.1235L34.6774 20.6002L35.2975 19.4955L32.5448 19.1235Z" fill="#FFCC00"/>
<path d="M33.4468 21.9014L34.3041 19.4533L35.4551 19.9824L33.4468 21.9014Z" fill="#FFCC00"/>
<path d="M33.4468 21.9012L35.5102 20.3294L34.6512 19.3982L33.4468 21.9012Z" fill="#FFCC00"/>
<path d="M37.2689 19.1238L34.6757 19.1827L34.8233 20.4409L37.2689 19.1238Z" fill="#FFCC00"/>
<path d="M37.2692 19.1236L35.1366 20.6003L34.5164 19.4956L37.2692 19.1236Z" fill="#FFCC00"/>
<path d="M36.3667 21.8999L35.5094 19.4518L34.3583 19.981L36.3667 21.8999Z" fill="#FFCC00"/>
<path d="M36.3667 21.8999L34.3033 20.328L35.1623 19.3968L36.3667 21.8999Z" fill="#FFCC00"/>
<path d="M28.73 9.10401L26.6666 7.53211L27.5256 6.60093L28.73 9.10401Z" fill="#FFCC00"/>
<path d="M28.7295 9.10412L27.8722 6.65601L26.7211 7.18519L28.7295 9.10412Z" fill="#FFCC00"/>
<path d="M29.632 6.32653L27.4994 7.80315L26.8792 6.69848L29.632 6.32653Z" fill="#FFCC00"/>
<path d="M29.6322 6.32655L27.039 6.38543L27.1865 7.64366L29.6322 6.32655Z" fill="#FFCC00"/>
<path d="M27.2698 4.60999L28.0151 7.09449L26.7729 7.34294L27.2698 4.60999Z" fill="#FFCC00"/>
<path d="M27.2698 4.60999L26.5244 7.09449L27.7667 7.34294L27.2698 4.60999Z" fill="#FFCC00"/>
<path d="M25.8091 9.10413L27.8725 7.53223L27.0135 6.60105L25.8091 9.10413Z" fill="#FFCC00"/>
<path d="M25.8091 9.10424L26.6664 6.65613L27.8174 7.18531L25.8091 9.10424Z" fill="#FFCC00"/>
<path d="M24.9061 6.32629L27.0387 7.80291L27.6589 6.69823L24.9061 6.32629Z" fill="#FFCC00"/>
<path d="M24.9064 6.32642L27.4996 6.38531L27.352 7.64353L24.9064 6.32642Z" fill="#FFCC00"/>
<path d="M31.3369 14.6309L32.1942 12.1827L33.3453 12.7119L31.3369 14.6309Z" fill="#FFCC00"/>
<path d="M31.3369 14.6307L33.4003 13.0588L32.5413 12.1277L31.3369 14.6307Z" fill="#FFCC00"/>
<path d="M34.2583 14.6309L32.1949 13.059L33.0539 12.1278L34.2583 14.6309Z" fill="#FFCC00"/>
<path d="M34.2578 14.631L33.4005 12.1829L32.2494 12.712L34.2578 14.631Z" fill="#FFCC00"/>
<path d="M35.1603 11.8533L33.0277 13.3299L32.4076 12.2252L35.1603 11.8533Z" fill="#FFCC00"/>
<path d="M35.1605 11.8533L32.5673 11.9122L32.7149 13.1704L35.1605 11.8533Z" fill="#FFCC00"/>
<path d="M30.4339 11.8531L32.5665 13.3298L33.1867 12.2251L30.4339 11.8531Z" fill="#FFCC00"/>
<path d="M30.4337 11.8532L33.027 11.912L32.8794 13.1703L30.4337 11.8532Z" fill="#FFCC00"/>
<path d="M32.7966 10.1362L32.0513 12.6207L33.2935 12.8692L32.7966 10.1362Z" fill="#FFCC00"/>
<path d="M32.7962 10.1361L33.5415 12.6206L32.2993 12.8691L32.7962 10.1361Z" fill="#FFCC00"/>
<path d="M30.4308 26.7963L33.024 26.8552L32.8764 28.1134L30.4308 26.7963Z" fill="#FFCC00"/>
<path d="M30.4305 26.7963L32.5631 28.2729L33.1833 27.1682L30.4305 26.7963Z" fill="#FFCC00"/>
<path d="M31.333 29.5734L32.1903 27.1252L33.3414 27.6544L31.333 29.5734Z" fill="#FFCC00"/>
<path d="M31.333 29.5732L33.3964 28.0013L32.5374 27.0702L31.333 29.5732Z" fill="#FFCC00"/>
<path d="M34.2544 29.5735L32.191 28.0016L33.05 27.0704L34.2544 29.5735Z" fill="#FFCC00"/>
<path d="M34.2534 29.5736L33.3961 27.1255L32.2451 27.6547L34.2534 29.5736Z" fill="#FFCC00"/>
<path d="M32.7937 25.0792L32.0483 27.5637L33.2906 27.8122L32.7937 25.0792Z" fill="#FFCC00"/>
<path d="M32.7942 25.0792L33.5396 27.5637L32.2973 27.8122L32.7942 25.0792Z" fill="#FFCC00"/>
<path d="M35.1566 26.7962L32.5634 26.855L32.711 28.1133L35.1566 26.7962Z" fill="#FFCC00"/>
<path d="M35.1564 26.7961L33.0238 28.2728L32.4036 27.1681L35.1564 26.7961Z" fill="#FFCC00"/>
<path d="M25.0382 31.7962L27.6315 31.855L27.4839 33.1133L25.0382 31.7962Z" fill="#FFCC00"/>
<path d="M25.0384 31.7961L27.171 33.2728L27.7912 32.1681L25.0384 31.7961Z" fill="#FFCC00"/>
<path d="M25.9409 34.5738L26.7982 32.1257L27.9493 32.6549L25.9409 34.5738Z" fill="#FFCC00"/>
<path d="M25.9409 34.5737L28.0043 33.0018L27.1453 32.0707L25.9409 34.5737Z" fill="#FFCC00"/>
<path d="M28.8623 34.5737L26.7989 33.0018L27.6579 32.0707L28.8623 34.5737Z" fill="#FFCC00"/>
<path d="M28.8614 34.5736L28.004 32.1255L26.853 32.6547L28.8614 34.5736Z" fill="#FFCC00"/>
<path d="M27.4011 30.0791L26.6558 32.5636L27.898 32.8121L27.4011 30.0791Z" fill="#FFCC00"/>
<path d="M27.4016 30.0791L28.147 32.5636L26.9047 32.8121L27.4016 30.0791Z" fill="#FFCC00"/>
<path d="M29.764 31.796L27.1708 31.8549L27.3184 33.1131L29.764 31.796Z" fill="#FFCC00"/>
<path d="M29.7638 31.796L27.6312 33.2726L27.0111 32.168L29.7638 31.796Z" fill="#FFCC00"/>
<path d="M18.772 22.3664V23.5H14.3685V22.3664H18.772ZM14.7729 15.2057V23.5H13.3431V15.2057H14.7729ZM18.1966 18.6693V19.7858H14.3685V18.6693H18.1966ZM18.7435 15.2057V16.3451H14.3685V15.2057H18.7435ZM24.8272 15.2057H26.2514V20.7485C26.2514 21.379 26.1147 21.9068 25.8412 22.3322C25.5678 22.7575 25.1956 23.0785 24.7247 23.2949C24.2576 23.5076 23.7354 23.6139 23.1581 23.6139C22.5619 23.6139 22.0302 23.5076 21.5631 23.2949C21.096 23.0785 20.7276 22.7575 20.4579 22.3322C20.1921 21.9068 20.0592 21.379 20.0592 20.7485V15.2057H21.4833V20.7485C21.4833 21.1473 21.5517 21.4758 21.6884 21.734C21.8251 21.9885 22.0188 22.1765 22.2695 22.298C22.5201 22.4195 22.8163 22.4803 23.1581 22.4803C23.4999 22.4803 23.7943 22.4195 24.0411 22.298C24.2918 22.1765 24.4854 21.9885 24.6222 21.734C24.7589 21.4758 24.8272 21.1473 24.8272 20.7485V15.2057Z" fill="white"/>
</svg>
