<svg width="109" height="40" viewBox="0 0 109 40" fill="none" xmlns="http://www.w3.org/2000/svg">
<path d="M4.65229 9.58972C1.64134 13.3126 0 17.9695 0 22.8854C0 22.9629 0.0125534 23.0375 0.0343858 23.1086C0.203677 21.5281 0.997464 20.1159 2.1825 19.0842C2.78317 15.9806 4.10439 13.1482 5.9544 10.7882C5.39577 10.5234 4.94757 10.1037 4.65229 9.58972ZM39.9656 23.1086C39.9874 23.0375 40 22.9628 40 22.8854C40 17.9696 38.3588 13.3128 35.3479 9.58989C35.0526 10.1039 34.6045 10.5236 34.046 10.7886C35.8959 13.1484 37.2169 15.9807 37.8176 19.0842C39.0025 20.1159 39.7963 21.5281 39.9656 23.1086Z" fill="#A2A9D0"/>
<path d="M35.3477 9.58984C35.6021 9.14701 35.7438 8.63512 35.7438 8.09239C35.7438 7.26798 35.4027 6.47474 34.8078 5.9161C30.7601 2.1147 25.5208 0.0136779 20.0552 8.28513e-05C20.0374 8.28513e-05 20.0204 0 20.0026 0C14.505 0 9.24573 2.10044 5.18919 5.91784C4.88845 6.20143 4.65439 6.53866 4.49383 6.91907C4.33591 7.29169 4.25586 7.68636 4.25586 8.09214C4.25586 8.63495 4.39759 9.14692 4.65212 9.58976C4.94749 10.1037 5.3956 10.5234 5.95414 10.7884C6.0361 10.8272 6.11961 10.8638 6.20621 10.8957C7.26963 11.2889 8.44457 11.0502 9.27275 10.273C12.2318 7.49545 16.0414 5.96584 19.9999 5.96584C23.9586 5.96584 27.7683 7.49554 30.7272 10.273C31.2915 10.8027 32.0168 11.0823 32.7582 11.0823C33.1048 11.0823 33.4548 11.0212 33.7934 10.896C33.8801 10.864 33.9638 10.8274 34.0458 10.7885C34.6043 10.5236 35.0524 10.1039 35.3477 9.58984Z" fill="#656CAF"/>
<path d="M35.1773 32.8112C35.1773 34.692 33.5011 36.2221 31.4407 36.2221H25.4414C25.5155 36.4665 25.5558 36.7236 25.5558 36.9893V37.1128C25.5558 37.3785 25.5155 37.6356 25.4414 37.88H31.4407C34.5043 37.88 36.9967 35.6061 36.9967 32.8112V29.0192C36.4428 29.3723 35.8312 29.6527 35.1773 29.8454V32.8112Z" fill="#A2A9D0"/>
<path d="M25.5561 36.9893C25.5561 36.7236 25.5158 36.4666 25.4417 36.2221C25.0719 35.0014 23.8434 34.1022 22.3879 34.1022H19.9353C18.1884 34.1022 16.7671 35.3974 16.7671 36.9893V37.1128C16.7671 38.7048 18.1884 40 19.9353 40H22.3879C23.8434 40 25.0719 39.1006 25.4417 37.88C25.5158 37.6356 25.5561 37.3785 25.5561 37.1128V36.9893Z" fill="#656CAF"/>
<path d="M0.0343858 23.1087C0.0120076 23.318 0 23.5302 0 23.7449C0 27.0023 2.64289 29.6971 6.04764 30.0938C6.02072 29.955 6.00589 29.8126 6.00589 29.6669V17.8228C6.00589 17.6772 6.02072 17.5347 6.04764 17.396C4.56168 17.5691 3.22163 18.1795 2.18241 19.0843C0.997464 20.1159 0.203677 21.5282 0.0343858 23.1087ZM37.8175 19.0843C36.7783 18.1795 35.4381 17.5691 33.9523 17.396C33.9792 17.5347 33.994 17.6772 33.994 17.8228V29.6669C33.994 29.8125 33.9792 29.955 33.9523 30.0938C34.3734 30.0447 34.7833 29.9617 35.1776 29.8455C35.8315 29.6529 36.4431 29.3724 36.997 29.0193C38.809 27.864 40 25.9311 40 23.745C40 23.5303 39.9881 23.3181 39.9656 23.1088C39.7963 21.5282 39.0025 20.1159 37.8175 19.0843Z" fill="#656CAF"/>
<path d="M4.18701 29.6668C4.18701 29.8125 4.20184 29.955 4.22877 30.0938C4.45109 31.2394 5.5508 32.1125 6.87084 32.1125H7.03713C8.517 32.1125 9.72096 31.0154 9.72096 29.6668V17.8228C9.72096 16.4742 8.517 15.3771 7.03713 15.3771H6.87084C5.5508 15.3771 4.45109 16.2502 4.22877 17.3959C4.20184 17.5346 4.18701 17.6771 4.18701 17.8228V29.6668ZM35.8139 17.8228C35.8139 17.6771 35.799 17.5346 35.7721 17.3959C35.5498 16.2503 34.4501 15.3771 33.13 15.3771H32.9637C31.4839 15.3771 30.2799 16.4742 30.2799 17.8228V29.6668C30.2799 31.0154 31.4839 32.1125 32.9637 32.1125H33.13C34.45 32.1125 35.5497 31.2394 35.7721 30.0938C35.799 29.955 35.8139 29.8126 35.8139 29.6668V17.8228Z" fill="#A2A9D0"/>
<path d="M18.983 29.8634C19.1768 30.2167 19.5665 30.4363 19.9998 30.4363C19.9998 30.4363 19.9999 30.4363 20.0001 30.4363C20.4335 30.4363 20.8232 30.217 21.0172 29.8635L21.9269 28.2057H25.2089C26.6681 28.2057 27.8552 27.1239 27.8552 25.7942V19.4649C27.8552 18.1353 26.6681 17.0535 25.2089 17.0535H14.7913C13.3321 17.0535 12.145 18.1353 12.145 19.4649V25.7942C12.145 27.1239 13.3322 28.2057 14.7913 28.2057H18.0734L18.983 29.8634ZM17.9095 22.6296C17.9095 23.0874 17.5022 23.4586 16.9998 23.4586C16.4974 23.4586 16.0897 23.0874 16.0897 22.6296C16.0897 22.1719 16.4965 21.8006 16.9989 21.8006H16.9998C17.5022 21.8006 17.9095 22.1718 17.9095 22.6296ZM23.004 23.4586C22.5016 23.4586 22.0938 23.0874 22.0938 22.6296C22.0938 22.1719 22.5007 21.8006 23.0031 21.8006H23.004C23.5064 21.8006 23.9136 22.1719 23.9136 22.6296C23.9136 23.0874 23.5065 23.4586 23.004 23.4586ZM20.0019 23.4586C19.4995 23.4586 19.0918 23.0874 19.0918 22.6296C19.0918 22.1719 19.4986 21.8006 20.001 21.8006H20.0019C20.5043 21.8006 20.9116 22.1719 20.9116 22.6296C20.9116 23.0874 20.5043 23.4586 20.0019 23.4586Z" fill="#A2A9D0"/>
<path d="M20.0017 21.8005H20.0008C19.4985 21.8005 19.0916 22.1717 19.0916 22.6295C19.0916 23.0873 19.4993 23.4585 20.0017 23.4585C20.5041 23.4585 20.9114 23.0873 20.9114 22.6295C20.9114 22.1717 20.5041 21.8005 20.0017 21.8005ZM23.0037 21.8005H23.0028C22.5005 21.8005 22.0936 22.1717 22.0936 22.6295C22.0936 23.0873 22.5013 23.4585 23.0037 23.4585C23.5062 23.4585 23.9134 23.0873 23.9134 22.6295C23.9134 22.1717 23.5063 21.8005 23.0037 21.8005ZM16.9986 21.8005C16.4963 21.8005 16.0894 22.1717 16.0894 22.6295C16.0894 23.0873 16.4971 23.4585 16.9995 23.4585C17.5019 23.4585 17.9092 23.0873 17.9092 22.6295C17.9092 22.1717 17.5019 21.8005 16.9995 21.8005H16.9986Z" fill="white"/>
</svg>
