<svg width="48" height="48" viewBox="0 0 48 48" fill="none" xmlns="http://www.w3.org/2000/svg">
<path d="M5.58274 11.5078C1.9696 15.9753 0 21.5636 0 27.4626C0 27.5556 0.0150641 27.6451 0.0412629 27.7305C0.244413 25.8339 1.19696 24.1392 2.61901 22.9012C3.3398 19.1768 4.92526 15.778 7.14528 12.946C6.47492 12.6282 5.93708 12.1246 5.58274 11.5078ZM47.9587 27.7305C47.9849 27.6451 48 27.5555 48 27.4626C48 21.5637 46.0305 15.9755 42.4175 11.508C42.0631 12.1249 41.5254 12.6285 40.8552 12.9464C43.0751 15.7782 44.6603 19.1769 45.3811 22.9012C46.803 24.1392 47.7556 25.8339 47.9587 27.7305Z" fill="#C4C4C4"/>
<path d="M42.4178 11.5078C42.7231 10.9764 42.8931 10.3621 42.8931 9.71087C42.8931 8.72158 42.4838 7.76969 41.77 7.09932C36.9127 2.53764 30.6255 0.0164135 24.0668 9.94216e-05C24.0454 9.94216e-05 24.0251 0 24.0037 0C17.4066 0 11.0954 2.52053 6.2276 7.10141C5.86671 7.44172 5.58583 7.84639 5.39316 8.30289C5.20366 8.75003 5.1076 9.22364 5.1076 9.71057C5.1076 10.3619 5.27767 10.9763 5.5831 11.5077C5.93755 12.1245 6.47528 12.6281 7.14554 12.946C7.24389 12.9927 7.3441 13.0366 7.44802 13.0749C8.72412 13.5467 10.1341 13.2602 11.1279 12.3276C14.6787 8.99454 19.2502 7.15901 24.0004 7.15901C28.7509 7.15901 33.3225 8.99464 36.8732 12.3276C37.5503 12.9632 38.4208 13.2988 39.3104 13.2988C39.7263 13.2988 40.1463 13.2255 40.5527 13.0753C40.6567 13.0369 40.7572 12.9929 40.8555 12.9462C41.5258 12.6283 42.0635 12.1247 42.4178 11.5078Z" fill="#7B7B7B"/>
<path d="M42.213 39.3734C42.213 41.6304 40.2015 43.4665 37.729 43.4665H30.5299C30.6188 43.7598 30.6672 44.0683 30.6672 44.3871V44.5354C30.6672 44.8542 30.6188 45.1627 30.5299 45.456H37.729C41.4053 45.456 44.3963 42.7273 44.3963 39.3734V34.823C43.7316 35.2468 42.9977 35.5833 42.213 35.8145V39.3734Z" fill="#C4C4C4"/>
<path d="M30.6675 44.3872C30.6675 44.0683 30.6191 43.7599 30.5302 43.4665C30.0865 42.0017 28.6122 40.9226 26.8657 40.9226H23.9225C21.8262 40.9226 20.1207 42.4768 20.1207 44.3872V44.5354C20.1207 46.4457 21.8262 47.9999 23.9225 47.9999H26.8657C28.6122 47.9999 30.0865 46.9207 30.5302 45.456C30.6191 45.1627 30.6675 44.8542 30.6675 44.5354V44.3872Z" fill="#7B7B7B"/>
<path d="M0.0412629 27.7305C0.0144092 27.9816 0 28.2363 0 28.4939C0 32.4028 3.17147 35.6366 7.25717 36.1126C7.22486 35.9461 7.20707 35.7752 7.20707 35.6003V21.3874C7.20707 21.2127 7.22486 21.0417 7.25717 20.8752C5.47402 21.083 3.86596 21.8155 2.6189 22.9012C1.19696 24.1392 0.244413 25.8338 0.0412629 27.7305ZM45.381 22.9012C44.1339 21.8155 42.5258 21.083 40.7427 20.8752C40.775 21.0417 40.7928 21.2127 40.7928 21.3874V35.6003C40.7928 35.7751 40.775 35.9461 40.7427 36.1126C41.2481 36.0537 41.7399 35.9541 42.2131 35.8147C42.9978 35.5835 43.7317 35.2469 44.3964 34.8232C46.5709 33.4368 48 31.1174 48 28.494C48 28.2364 47.9857 27.9818 47.9587 27.7306C47.7556 25.8338 46.803 24.1392 45.381 22.9012Z" fill="#7B7B7B"/>
<path d="M5.02459 35.6004C5.02459 35.7751 5.04238 35.9461 5.07469 36.1127C5.34149 37.4874 6.66114 38.5352 8.24518 38.5352H8.44473C10.2206 38.5352 11.6653 37.2186 11.6653 35.6004V21.3875C11.6653 19.7692 10.2206 18.4526 8.44473 18.4526H8.24518C6.66114 18.4526 5.34149 19.5004 5.07469 20.8753C5.04238 21.0417 5.02459 21.2127 5.02459 21.3875V35.6004ZM42.9768 21.3875C42.9768 21.2127 42.959 21.0417 42.9267 20.8753C42.6599 19.5005 41.3403 18.4526 39.7562 18.4526H39.5567C37.7808 18.4526 36.3361 19.7692 36.3361 21.3875V35.6004C36.3361 37.2186 37.7808 38.5352 39.5567 38.5352H39.7562C41.3401 38.5352 42.6598 37.4874 42.9267 36.1127C42.959 35.9461 42.9768 35.7752 42.9768 35.6004V21.3875Z" fill="#C4C4C4"/>
<path d="M22.7797 35.8361C23.0122 36.26 23.4799 36.5235 23.9999 36.5236C23.9999 36.5236 24.0001 36.5236 24.0003 36.5236C24.5203 36.5236 24.988 36.2603 25.2208 35.8362L26.3124 33.8468H30.2509C32.0018 33.8468 33.4264 32.5486 33.4264 30.953V23.3579C33.4264 21.7623 32.0018 20.4641 30.2509 20.4641H17.7497C15.9986 20.4641 14.5742 21.7623 14.5742 23.3579V30.953C14.5742 32.5486 15.9987 33.8468 17.7497 33.8468H21.6882L22.7797 35.8361ZM21.4915 27.1555C21.4915 27.7048 21.0028 28.1502 20.3999 28.1502C19.797 28.1502 19.3077 27.7048 19.3077 27.1555C19.3077 26.6062 19.7959 26.1607 20.3988 26.1607H20.3999C21.0028 26.1607 21.4915 26.6061 21.4915 27.1555ZM27.6049 28.1502C27.0021 28.1502 26.5127 27.7048 26.5127 27.1555C26.5127 26.6062 27.001 26.1607 27.6038 26.1607H27.6049C28.2078 26.1607 28.6965 26.6062 28.6965 27.1555C28.6965 27.7048 28.2079 28.1502 27.6049 28.1502ZM24.0025 28.1502C23.3996 28.1502 22.9103 27.7048 22.9103 27.1555C22.9103 26.6062 23.3985 26.1607 24.0014 26.1607H24.0025C24.6054 26.1607 25.0941 26.6062 25.0941 27.1555C25.0941 27.7048 24.6054 28.1502 24.0025 28.1502Z" fill="#C4C4C4"/>
<path d="M24.0025 26.1606H24.0014C23.3987 26.1606 22.9104 26.6061 22.9104 27.1554C22.9104 27.7047 23.3996 28.1502 24.0025 28.1502C24.6054 28.1502 25.0941 27.7047 25.0941 27.1554C25.0941 26.6061 24.6054 26.1606 24.0025 26.1606ZM27.605 26.1606H27.6039C27.0011 26.1606 26.5128 26.6061 26.5128 27.1554C26.5128 27.7047 27.0021 28.1502 27.605 28.1502C28.2079 28.1502 28.6966 27.7047 28.6966 27.1554C28.6966 26.6061 28.208 26.1606 27.605 26.1606ZM20.3988 26.1606C19.796 26.1606 19.3077 26.6061 19.3077 27.1554C19.3077 27.7047 19.797 28.1502 20.3999 28.1502C21.0028 28.1502 21.4915 27.7047 21.4915 27.1554C21.4915 26.6061 21.0028 26.1606 20.3999 26.1606H20.3988Z" fill="white"/>
</svg>
