<?xml version="1.0" encoding="UTF-8" standalone="no"?>
<!-- Created with Inkscape (http://www.inkscape.org/) -->

<svg
   version="1.1"
   id="svg1"
   width="309.88"
   height="78.480003"
   viewBox="0 0 309.88 78.480003"
   sodipodi:docname="EGG logo with slogan.eps"
   xmlns:inkscape="http://www.inkscape.org/namespaces/inkscape"
   xmlns:sodipodi="http://sodipodi.sourceforge.net/DTD/sodipodi-0.dtd"
   xmlns="http://www.w3.org/2000/svg"
   xmlns:svg="http://www.w3.org/2000/svg">
  <defs
     id="defs1" />
  <sodipodi:namedview
     id="namedview1"
     pagecolor="#ffffff"
     bordercolor="#000000"
     borderopacity="0.25"
     inkscape:showpageshadow="2"
     inkscape:pageopacity="0.0"
     inkscape:pagecheckerboard="0"
     inkscape:deskcolor="#d1d1d1">
    <inkscape:page
       x="0"
       y="0"
       inkscape:label="1"
       id="page1"
       width="309.88"
       height="78.480003"
       margin="0"
       bleed="0" />
  </sodipodi:namedview>
  <g
     id="g1"
     inkscape:groupmode="layer"
     inkscape:label="1">
    <g
       id="group-R5">
      <path
         id="path2"
         d="m 325.852,76.3086 c -361.5551,-207.1756 -446.79,104.2184 21.003,386.3284 106.211,64.054 236.993,106.476 307.461,125.078 20.235,5.332 25.938,-14.012 6.192,-20.692 C 474.141,503.789 285.625,394.609 188.379,217.793 137.344,125.012 172.461,65.0781 314.043,102.637 c 25.41,6.726 38.484,-11.0354 11.809,-26.3284"
         style="fill:#5e6465;fill-opacity:1;fill-rule:nonzero;stroke:none"
         transform="matrix(0.13333333,0,0,-0.13333333,0,78.48)" />
      <path
         id="path3"
         d="M 436.445,561.621 C 213.352,506.367 49.1016,401.875 1.36719,245.43 -5.51953,222.863 15.2539,215.203 27.2656,231.105 133.176,371.133 277.527,477.051 443.965,538.059 c 18.711,6.855 12.441,28.504 -7.52,23.562"
         style="fill:#f68722;fill-opacity:1;fill-rule:nonzero;stroke:none"
         transform="matrix(0.13333333,0,0,-0.13333333,0,78.48)" />
      <path
         id="path4"
         d="m 497.246,47.0898 v 9.3868 c 0,0.8281 -0.273,1.4922 -0.73,1.9023 -0.481,0.4102 -1.094,0.6524 -1.782,0.6524 -0.691,0 -1.296,-0.2618 -1.765,-0.6915 -0.469,-0.4296 -0.735,-1.1523 -0.735,-1.8632 v -9.3868 h -2.507 c -0.774,0 -1.504,-0.2656 -1.922,-0.7226 -0.403,-0.4492 -0.657,-1.1016 -0.657,-1.7774 0,-0.6718 0.274,-1.3085 0.711,-1.7773 0.434,-0.457 1.079,-0.7344 1.868,-0.7344 h 2.507 V 14.375 c 0,-0.7305 0.266,-1.4258 0.735,-1.8359 0.469,-0.4102 1.074,-0.6641 1.765,-0.6641 0.746,0 1.371,0.2344 1.809,0.625 0.43,0.3906 0.703,1.0547 0.703,1.875 v 27.7031 h 7.578 c 0.801,0 1.426,0.293 1.848,0.7735 0.406,0.4765 0.672,1.0937 0.672,1.7382 0,0.7305 -0.254,1.3672 -0.625,1.8086 -0.41,0.4493 -1.114,0.6914 -1.895,0.6914 z m 55.391,0 v 9.3868 c 0,0.8281 -0.293,1.4922 -0.782,1.9023 -0.488,0.4102 -1.085,0.6524 -1.718,0.6524 -0.742,0 -1.36,-0.2227 -1.844,-0.6915 -0.5,-0.4687 -0.742,-1.1523 -0.742,-1.8632 V 14.375 c 0,-0.7148 0.281,-1.4258 0.769,-1.8359 0.489,-0.4102 1.121,-0.6641 1.817,-0.6641 0.722,0 1.355,0.2344 1.797,0.625 0.437,0.3906 0.703,1.0547 0.703,1.875 v 27.7031 h 10.019 c 1.426,0 2.657,-0.5156 3.614,-1.4648 0.949,-0.9453 1.464,-2.2227 1.464,-3.5352 V 14.375 c 0,-0.7305 0.274,-1.4258 0.735,-1.8359 0.476,-0.4102 1.082,-0.6641 1.765,-0.6641 0.743,0 1.348,0.1953 1.817,0.625 0.469,0.4102 0.691,1.0547 0.691,1.875 v 22.7031 c 0,2.793 -0.984,5.1992 -2.937,7.1328 -1.907,1.9102 -4.356,2.8789 -7.149,2.8789 z m 65.41,-15.0976 v 5.0859 c 0,1.3672 0.508,2.5899 1.445,3.5352 0.918,0.9414 2.156,1.4648 3.567,1.4648 h 5.007 c 1.446,0 2.657,-0.5156 3.614,-1.4648 0.957,-0.9453 1.472,-2.2227 1.472,-3.5352 v -5.0859 z m 0,-5.0195 h 17.605 c 1.672,0 2.512,0.8398 2.512,2.5195 v 7.5859 c 0,2.793 -0.996,5.1992 -2.949,7.1328 -1.914,1.9102 -4.356,2.8789 -7.149,2.8789 h -5.007 c -2.746,0 -5.2,-1.0234 -7.141,-2.9492 -1.926,-1.8828 -2.949,-4.3242 -2.949,-7.0625 V 21.9727 c 0,-2.793 0.996,-5.3125 2.949,-7.2071 1.914,-1.9218 4.348,-2.8906 7.141,-2.8906 h 12.593 c 0.793,0 1.438,0.293 1.848,0.7813 0.41,0.4687 0.664,1.0742 0.664,1.7187 0,0.7422 -0.242,1.3789 -0.637,1.8086 -0.379,0.4297 -1.101,0.6914 -1.875,0.6914 h -12.593 c -1.371,0 -2.649,0.5352 -3.567,1.4844 -0.937,0.957 -1.445,2.1875 -1.445,3.6133 z M 748.848,11.875 c 0.793,0 1.484,0.3516 1.836,0.7813 0.371,0.4492 0.671,1.0742 0.671,1.7187 0,0.7422 -0.203,1.3398 -0.613,1.8086 -0.429,0.4687 -1.222,0.6914 -1.894,0.6914 h -7.586 c -1.274,0 -2.699,0.5977 -3.574,1.4844 -0.872,0.9101 -1.438,2.1875 -1.438,3.6133 v 15.1054 c 0,1.3672 0.566,2.6407 1.438,3.5352 0.875,0.8789 2.148,1.4648 3.574,1.4648 h 7.586 c 0.793,0 1.484,0.3438 1.836,0.7735 0.371,0.4492 0.671,1.0937 0.671,1.7382 0,0.7305 -0.292,1.418 -0.613,1.8086 -0.344,0.3985 -1.222,0.6914 -1.894,0.6914 h -7.586 c -2.641,0 -5.176,-0.9843 -7.129,-2.9492 -1.985,-1.9531 -2.961,-4.4726 -2.961,-7.0625 V 21.9727 c 0,-2.6758 1.055,-5.3594 2.961,-7.2071 1.851,-1.875 4.336,-2.8906 7.129,-2.8906 z m 67.922,11.0547 v 13.0976 c 0,3.0547 -1.086,5.6641 -3.247,7.8399 -2.168,2.1601 -4.918,3.2226 -7.808,3.2226 h -3.02 c -2.832,0 -5.722,-1.1328 -7.882,-3.2226 -2.11,-2.082 -3.25,-4.9297 -3.25,-7.8399 V 22.9297 c 0,-2.9414 1.152,-5.8203 3.25,-7.8906 2.074,-2.0313 4.796,-3.1641 7.882,-3.1641 h 3.02 c 3.094,0 5.703,1.0547 7.808,3.1641 2.161,2.1679 3.247,4.7851 3.247,7.8906 m -5.024,0 c 0,-1.5039 -0.652,-3.1641 -1.758,-4.2852 -1.093,-1.0859 -2.769,-1.7695 -4.273,-1.7695 h -3.02 c -1.504,0 -3.093,0.6133 -4.277,1.7695 -1.172,1.1797 -1.77,2.6172 -1.77,4.2852 v 13.0976 c 0,1.6758 0.598,3.1133 1.77,4.2852 1.191,1.1797 2.605,1.7656 4.277,1.7656 h 3.02 c 1.656,0 3.172,-0.6601 4.273,-1.7656 1.106,-1.1016 1.758,-2.7617 1.758,-4.2852 z M 872.09,42.0781 V 14.375 c 0,-0.625 0.332,-1.4844 0.769,-1.8359 0.442,-0.3516 1.125,-0.6641 1.809,-0.6641 0.742,0 1.418,0.293 1.809,0.625 0.378,0.3438 0.691,1.0547 0.691,1.875 v 27.7031 h 5.012 c 1.425,0 2.691,-0.5859 3.582,-1.4648 0.871,-0.8945 1.426,-2.332 1.426,-3.5352 V 14.375 c 0,-0.625 0.339,-1.4844 0.781,-1.8359 0.437,-0.3516 1.113,-0.6641 1.804,-0.6641 0.747,0 1.332,0.1953 1.809,0.625 0.461,0.4102 0.703,1.0547 0.703,1.875 v 22.7031 c 0,2.793 -0.996,5.1992 -2.961,7.1328 -1.902,1.9102 -4.453,2.8789 -7.144,2.8789 h -22.61 c -1.562,0 -2.578,-1.0039 -2.578,-2.5 V 14.375 c 0,-0.625 0.332,-1.4844 0.774,-1.8359 0.425,-0.3516 1.113,-0.6641 1.804,-0.6641 0.723,0 1.414,0.293 1.809,0.625 0.379,0.3438 0.691,1.0547 0.691,1.875 V 42.0781 Z M 937.578,16.875 v 25.2031 h 10.02 c 1.418,0 2.707,-0.5625 3.613,-1.4648 0.898,-0.8945 1.465,-2.332 1.465,-3.5352 V 21.9727 c 0,-1.2696 -0.567,-2.7032 -1.465,-3.6133 -0.906,-0.9102 -2.356,-1.4844 -3.613,-1.4844 z m 0,-5 h 10.02 c 2.851,0 5.312,1.0352 7.148,2.8906 1.887,1.8672 2.93,4.3672 2.93,7.2071 v 15.1054 c 0,2.793 -0.965,5.1992 -2.93,7.1328 -1.914,1.9102 -4.465,2.8789 -7.148,2.8789 h -12.52 c -1.562,0 -2.59,-1.0039 -2.59,-2.5 V 2.51953 c 0,-0.625 0.344,-1.47265 0.782,-1.867186 C 933.711,0.320313 934.375,0 935.078,0 c 0.742,0 1.34,0.214844 1.797,0.625 0.469,0.42188 0.703,1.05469 0.703,1.89453 z m 67.912,0 c 0.79,0 1.48,0.3516 1.85,0.7813 0.36,0.4296 0.66,1.0742 0.66,1.7187 0,0.7422 -0.29,1.4375 -0.63,1.8086 -0.32,0.3867 -1.04,0.6914 -1.88,0.6914 -0.69,0 -1.36,0.3516 -1.77,0.8008 -0.4,0.4297 -0.73,1.0937 -0.73,1.7969 v 37.0039 c 0,0.8281 -0.34,1.5507 -0.77,1.9023 -0.43,0.3516 -1.1,0.6524 -1.74,0.6524 -0.734,0 -1.347,-0.2227 -1.828,-0.6915 -0.5,-0.4687 -0.742,-1.2695 -0.742,-1.8632 V 19.4727 c 0,-0.8789 0.274,-2.1094 0.586,-2.9493 0.313,-0.8593 0.945,-1.7461 1.664,-2.4296 0.71,-0.6758 1.6,-1.3204 2.42,-1.6211 0.83,-0.3243 1.88,-0.5977 2.91,-0.5977 m 47.81,20.1172 v 5.0859 c 0,1.3672 0.56,2.6407 1.44,3.5352 0.88,0.8789 2.14,1.4648 3.58,1.4648 h 5 c 1.43,0 2.72,-0.5625 3.61,-1.4648 0.92,-0.8945 1.48,-2.332 1.48,-3.5352 v -5.0859 z m 0,-5.0195 h 17.61 c 1.67,0 2.5,0.8398 2.5,2.5195 v 7.5859 c 0,2.793 -0.97,5.1992 -2.94,7.1328 -1.91,1.9102 -4.46,2.8789 -7.15,2.8789 h -5 c -2.65,0 -5.25,-1.0625 -7.15,-2.9492 -1.87,-1.8437 -2.95,-4.4218 -2.95,-7.0625 V 21.9727 c 0,-2.6758 1.05,-5.3594 2.95,-7.2071 1.87,-1.875 4.34,-2.8906 7.15,-2.8906 h 12.59 c 0.79,0 1.48,0.3516 1.84,0.7813 0.37,0.4296 0.66,1.0742 0.66,1.7187 0,0.7422 -0.29,1.4375 -0.63,1.8086 -0.34,0.3867 -1.2,0.6914 -1.87,0.6914 h -12.59 c -1.27,0 -2.7,0.5977 -3.58,1.4844 -0.88,0.9101 -1.44,2.1875 -1.44,3.6133 z m 70.43,20.1171 v 9.3868 c 0,0.8281 -0.32,1.5507 -0.75,1.9023 -0.39,0.3516 -1.07,0.6524 -1.77,0.6524 -0.67,0 -1.34,-0.3204 -1.77,-0.6915 -0.39,-0.3906 -0.71,-1.2695 -0.71,-1.8632 v -9.3868 h -2.52 c -0.66,0 -1.55,-0.3125 -1.92,-0.7226 -0.35,-0.4102 -0.66,-1.1016 -0.66,-1.7774 0,-0.6718 0.33,-1.3554 0.71,-1.7773 0.38,-0.4102 1.09,-0.7344 1.87,-0.7344 h 2.52 V 14.375 c 0,-0.625 0.32,-1.4844 0.71,-1.8359 0.43,-0.3516 1.1,-0.6641 1.77,-0.6641 0.75,0 1.42,0.293 1.81,0.625 0.39,0.3438 0.71,1.0547 0.71,1.875 v 27.7031 h 7.58 c 0.78,0 1.49,0.3438 1.85,0.7735 0.37,0.4492 0.65,1.0937 0.65,1.7382 0,0.7305 -0.28,1.418 -0.61,1.8086 -0.35,0.3985 -1.21,0.6914 -1.89,0.6914 z m 55.38,-15.0976 v 5.0859 c 0,1.3672 0.57,2.6407 1.45,3.5352 0.88,0.8789 2.15,1.4648 3.57,1.4648 h 5 c 1.43,0 2.72,-0.5625 3.62,-1.4648 0.9,-0.8945 1.47,-2.332 1.47,-3.5352 v -5.0859 z m 0,-5.0195 h 17.61 c 1.68,0 2.51,0.8398 2.51,2.5195 v 7.5859 c 0,2.793 -0.99,5.1992 -2.95,7.1328 -1.9,1.9102 -4.45,2.8789 -7.15,2.8789 h -5 c -2.65,0 -5.25,-1.0625 -7.14,-2.9492 -1.88,-1.8437 -2.96,-4.4218 -2.96,-7.0625 V 21.9727 c 0,-2.6758 1.06,-5.3594 2.96,-7.2071 1.87,-1.875 4.34,-2.8906 7.14,-2.8906 h 12.59 c 0.79,0 1.48,0.3516 1.84,0.7813 0.38,0.4296 0.67,1.0742 0.67,1.7187 0,0.7422 -0.29,1.4375 -0.63,1.8086 -0.33,0.3867 -1.2,0.6914 -1.88,0.6914 h -12.59 c -1.27,0 -2.69,0.5977 -3.57,1.4844 -0.88,0.9101 -1.45,2.1875 -1.45,3.6133 z m 117.3,5.0195 v 5.0859 c 0,1.3672 0.61,2.6992 1.42,3.5352 0.82,0.832 2.16,1.4648 3.6,1.4648 h 5 c 1.4,0 2.76,-0.625 3.6,-1.4648 0.84,-0.836 1.46,-2.4375 1.46,-3.5352 v -5.0859 z m 0,-5.0195 h 17.58 c 1.68,0 2.52,0.8398 2.52,2.5195 v 7.5859 c 0,2.793 -0.97,5.1992 -2.94,7.1328 -1.91,1.9102 -4.58,2.8789 -7.14,2.8789 h -5 c -2.54,0 -5.33,-1.121 -7.17,-2.9492 -1.8,-1.7851 -2.95,-4.539 -2.95,-7.0625 V 21.9727 c 0,-2.5782 1.11,-5.418 2.95,-7.2071 1.82,-1.8164 4.35,-2.8906 7.17,-2.8906 h 12.56 c 0.8,0 1.57,0.4023 1.87,0.7813 0.31,0.371 0.65,1.0742 0.65,1.7187 0,0.7422 -0.34,1.4844 -0.63,1.8086 -0.27,0.3203 -1.31,0.6914 -1.89,0.6914 h -12.56 c -1.17,0 -2.78,0.6445 -3.6,1.4844 -0.81,0.8398 -1.42,2.1875 -1.42,3.6133 z m 76.03,2.5195 9.12,13.7031 c 0.32,0.457 0.45,0.9453 0.45,1.3945 0,0.7305 -0.29,1.3672 -0.82,1.8477 -0.55,0.4648 -1.15,0.7305 -1.84,0.7305 -0.88,0 -1.74,-0.6914 -2.06,-1.1797 l -7.96,-11.9453 -7.95,11.9453 c -0.51,0.7695 -1.2,1.1015 -2,1.1015 -0.69,0 -1.44,-0.3789 -1.83,-0.6914 -0.41,-0.332 -0.82,-1.0468 -0.82,-1.7304 0,-0.2032 0.04,-0.4375 0.07,-0.7149 0.06,-0.2617 0.34,-0.7109 0.38,-0.7578 l 9.14,-13.7031 -9.14,-13.7188 c -0.11,-0.1601 -0.45,-0.9023 -0.45,-1.3984 0,-0.6758 0.41,-1.4258 0.82,-1.7852 0.39,-0.3828 1.12,-0.7734 1.77,-0.7734 0.88,0 1.54,0.3906 2.06,1.1797 l 7.95,11.9258 7.96,-11.9258 c 0.36,-0.5469 1.18,-1.1211 2.06,-1.1211 0.69,0 1.44,0.3906 1.84,0.7148 0.41,0.3008 0.82,1.0313 0.82,1.7266 0,0.5781 -0.18,1.0664 -0.45,1.457 l -9.12,13.7188"
         style="fill:#85888e;fill-opacity:1;fill-rule:nonzero;stroke:none"
         transform="matrix(0.13333333,0,0,-0.13333333,0,78.48)" />
      <path
         id="path5"
         d="m 1427.24,47.0898 v 9.3868 c 0,0.8281 -0.41,1.6093 -0.78,1.9023 -0.39,0.3047 -1.1,0.6524 -1.74,0.6524 -0.74,0 -1.34,-0.2227 -1.82,-0.6915 -0.5,-0.4687 -0.75,-1.375 -0.75,-1.8632 V 14.375 c 0,-0.4883 0.41,-1.5312 0.76,-1.8359 0.39,-0.293 1.13,-0.6641 1.81,-0.6641 0.75,0 1.49,0.3516 1.82,0.625 0.33,0.2813 0.7,1.0547 0.7,1.875 v 27.7031 h 10 c 1.44,0 2.77,-0.625 3.63,-1.4648 0.84,-0.836 1.46,-2.4375 1.46,-3.5352 V 14.375 c 0,-0.4883 0.39,-1.5312 0.74,-1.8359 0.35,-0.293 1.08,-0.6641 1.76,-0.6641 0.76,0 1.35,0.1953 1.82,0.625 0.45,0.4102 0.68,1.0547 0.68,1.875 v 22.7031 c 0,2.793 -0.98,5.1992 -2.93,7.1328 -1.91,1.9102 -4.57,2.8789 -7.16,2.8789 z m 65.42,-32.7148 v 30.2148 c 0,0.8321 -0.4,1.6016 -0.79,1.875 -0.38,0.293 -1.08,0.625 -1.73,0.625 -0.74,0 -1.34,-0.2148 -1.84,-0.6523 -0.49,-0.4492 -0.74,-1.3398 -0.74,-1.8477 V 14.375 c 0,-0.4883 0.4,-1.5312 0.77,-1.8359 0.39,-0.293 1.12,-0.6641 1.81,-0.6641 0.75,0 1.49,0.3516 1.79,0.625 0.35,0.2813 0.73,1.0547 0.73,1.875 m -5.1,42.1016 c 0,-0.6953 0.4,-1.4375 0.74,-1.7696 0.35,-0.3593 1.1,-0.7304 1.84,-0.7304 0.69,0 1.28,0.2226 1.76,0.7304 0.5,0.4805 0.76,1.0743 0.76,1.7696 0,0.7304 -0.26,1.3437 -0.76,1.8242 -0.48,0.4883 -1.07,0.7305 -1.76,0.7305 -0.74,0 -1.49,-0.3711 -1.84,-0.7305 -0.34,-0.3516 -0.74,-1.0938 -0.74,-1.8242 m 50.4,-14.3985 h 10 c 1.42,0 2.78,-0.625 3.63,-1.4648 0.84,-0.836 1.46,-2.4375 1.46,-3.5352 V 21.9727 c 0,-1.1446 -0.62,-2.7735 -1.46,-3.6133 -0.85,-0.8399 -2.46,-1.4844 -3.63,-1.4844 h -10 z m 0,5.0117 v 9.3868 c 0,0.8281 -0.41,1.6093 -0.79,1.9023 -0.37,0.3047 -1.09,0.6524 -1.71,0.6524 -0.75,0 -1.35,-0.2227 -1.85,-0.6915 -0.49,-0.4687 -0.74,-1.375 -0.74,-1.8632 V 14.375 c 0,-1.3672 0.85,-2.5 2.59,-2.5 h 12.5 c 2.86,0 5.39,1.0938 7.17,2.8906 1.81,1.8047 2.93,4.3672 2.93,7.2071 v 15.1054 c 0,2.793 -0.99,5.1992 -2.93,7.1328 -1.92,1.9102 -4.58,2.8789 -7.17,2.8789 z m 65.41,-32.7148 v 30.2148 c 0,0.8321 -0.39,1.6016 -0.78,1.875 -0.38,0.293 -1.1,0.625 -1.72,0.625 -0.75,0 -1.35,-0.2148 -1.86,-0.6523 -0.47,-0.4492 -0.72,-1.3398 -0.72,-1.8477 V 14.375 c 0,-0.4883 0.39,-1.5312 0.76,-1.8359 0.39,-0.293 1.13,-0.6641 1.82,-0.6641 0.74,0 1.46,0.3516 1.81,0.625 0.32,0.2813 0.69,1.0547 0.69,1.875 m -5.08,42.1016 c 0,-0.6953 0.39,-1.4375 0.72,-1.7696 0.37,-0.3593 1.11,-0.7304 1.86,-0.7304 0.68,0 1.27,0.2226 1.75,0.7304 0.51,0.4805 0.75,1.0743 0.75,1.7696 0,0.7304 -0.24,1.3437 -0.75,1.8242 -0.48,0.4883 -1.07,0.7305 -1.75,0.7305 -0.75,0 -1.49,-0.3711 -1.86,-0.7305 -0.33,-0.3516 -0.72,-1.0938 -0.72,-1.8242 m 55.39,-9.3868 v 9.3868 c 0,0.8281 -0.37,1.6093 -0.74,1.9023 -0.35,0.3047 -1.06,0.6524 -1.76,0.6524 -0.68,0 -1.41,-0.3711 -1.78,-0.6915 -0.35,-0.3125 -0.72,-1.375 -0.72,-1.8632 v -9.3868 h -2.5 c -0.56,0 -1.62,-0.3789 -1.93,-0.7226 -0.3,-0.3399 -0.67,-1.1016 -0.67,-1.7774 0,-0.6718 0.39,-1.414 0.7,-1.7773 0.34,-0.3516 1.1,-0.7344 1.9,-0.7344 h 2.5 V 14.375 c 0,-0.4883 0.37,-1.5312 0.72,-1.8359 0.37,-0.293 1.1,-0.6641 1.78,-0.6641 0.74,0 1.48,0.3711 1.8,0.625 0.33,0.2813 0.7,1.0547 0.7,1.875 v 27.7031 h 7.59 c 0.79,0 1.53,0.4024 1.84,0.7735 0.3,0.3828 0.66,1.0937 0.66,1.7382 0,0.7305 -0.34,1.4766 -0.63,1.8086 -0.27,0.3125 -1.31,0.6914 -1.87,0.6914 z m 55.4,-32.7148 v 30.2148 c 0,0.8321 -0.39,1.6016 -0.77,1.875 -0.38,0.293 -1.09,0.625 -1.73,0.625 -0.74,0 -1.37,-0.2148 -1.85,-0.6523 -0.48,-0.4492 -0.75,-1.3398 -0.75,-1.8477 V 14.375 c 0,-0.4883 0.41,-1.5312 0.79,-1.8359 0.37,-0.293 1.11,-0.6641 1.81,-0.6641 0.72,0 1.48,0.3516 1.8,0.625 0.32,0.2813 0.7,1.0547 0.7,1.875 m -5.1,42.1016 c 0,-0.6953 0.4,-1.4375 0.75,-1.7696 0.34,-0.3593 1.11,-0.7304 1.85,-0.7304 0.69,0 1.27,0.2226 1.76,0.7304 0.48,0.4805 0.74,1.0743 0.74,1.7696 0,0.7304 -0.26,1.3437 -0.74,1.8242 -0.49,0.4883 -1.07,0.7305 -1.76,0.7305 -0.74,0 -1.51,-0.3711 -1.85,-0.7305 -0.35,-0.3516 -0.75,-1.0938 -0.75,-1.8242 m 70.51,-33.5469 v 13.0976 c 0,3.0547 -1.09,5.6641 -3.24,7.8399 -2.15,2.1601 -5.03,3.2226 -7.8,3.2226 h -3.02 c -2.73,0 -5.79,-1.1992 -7.89,-3.2226 -2.04,-2.0039 -3.25,-5.0664 -3.25,-7.8399 V 22.9297 c 0,-2.8125 1.21,-5.8672 3.25,-7.8906 2.02,-1.9727 4.78,-3.1641 7.89,-3.1641 h 3.02 c 3.09,0 5.7,1.0547 7.8,3.1641 2.15,2.1679 3.24,4.7851 3.24,7.8906 m -5,0 c 0,-1.3867 -0.74,-3.2344 -1.78,-4.2852 -1.05,-1.0273 -2.89,-1.7695 -4.26,-1.7695 h -3.02 c -1.4,0 -3.11,0.6133 -4.28,1.7695 -1.18,1.1797 -1.77,2.6172 -1.77,4.2852 v 13.0976 c 0,1.6758 0.59,3.1133 1.77,4.2852 1.17,1.1797 2.6,1.7656 4.28,1.7656 h 3.02 c 1.66,0 3.21,-0.7187 4.26,-1.7656 1.04,-1.0273 1.78,-2.8711 1.78,-4.2852 z m 70.41,-8.5547 v 22.7031 c 0,2.793 -0.97,5.1992 -2.95,7.1328 -1.9,1.9102 -4.57,2.8789 -7.14,2.8789 h -12.52 c -1.45,0 -2.59,-1.1015 -2.59,-2.5 V 14.375 c 0,-0.4883 0.41,-1.5312 0.79,-1.8359 0.37,-0.293 1.11,-0.6641 1.8,-0.6641 0.73,0 1.48,0.3516 1.81,0.625 0.33,0.2813 0.69,1.0547 0.69,1.875 v 27.7031 h 10.02 c 1.43,0 2.77,-0.625 3.61,-1.4648 0.86,-0.836 1.46,-2.4375 1.46,-3.5352 V 14.375 c 0,-0.4883 0.39,-1.5312 0.75,-1.8359 0.37,-0.293 1.08,-0.6641 1.77,-0.6641 0.73,0 1.34,0.1953 1.81,0.625 0.46,0.4102 0.69,1.0547 0.69,1.875 m 115.31,30 c 0.67,-0.3125 1.41,-1.2383 1.41,-2.207 0,-0.7149 -0.47,-1.5547 -0.71,-1.8555 -0.23,-0.3008 -1.04,-0.8008 -1.73,-0.8008 -0.39,0 -1.09,0.2656 -1.18,0.2852 -2.74,1.1914 -5.75,2.2148 -8.54,2.2148 -2.8,0 -5.27,-0.8008 -7.08,-2 -0.34,-0.2344 -0.73,-0.8398 -0.73,-1.4648 0,-0.6446 0.25,-1.1055 0.73,-1.4063 l 16.07,-10.5273 c 1.08,-0.6836 2.09,-1.7969 2.36,-2.6602 0.24,-0.8398 0.72,-2.1679 0.72,-3.3086 0,-1.1718 -0.24,-2.2851 -0.75,-3.3203 -0.53,-1.0351 -1.55,-2.0508 -2.26,-2.5 -2.7,-1.6406 -6.19,-2.8789 -9.87,-2.8789 -3.64,0 -7.28,1.1992 -10.38,2.7422 -0.65,0.3125 -1.42,1.1914 -1.42,2.1289 0,0.6836 0.48,1.5234 0.75,1.8281 0.26,0.3203 1.08,0.8282 1.77,0.8282 0.4,0 1.13,-0.293 1.32,-0.3789 2.43,-1.125 5.25,-2.1211 7.96,-2.1211 2.65,0 5.17,0.957 6.99,2.0507 0.31,0.1758 0.89,0.9102 0.89,1.6993 0,0.7304 -0.65,1.5429 -0.89,1.6875 l -16.06,10.5312 c -0.57,0.3867 -1.86,1.6992 -2.05,2.4805 -0.22,0.7695 -0.68,2.0664 -0.68,3.1992 0,1.0742 0.25,2.1406 0.75,3.1641 0.49,1.0273 1.43,1.9921 1.98,2.3554 2.52,1.6211 5.99,2.8711 9.88,2.8711 3.63,0 7.42,-1.1601 10.75,-2.6367 m 46.85,-12.3828 v 5.0859 c 0,1.3672 0.7,2.7774 1.44,3.5352 0.72,0.7461 2.14,1.4648 3.57,1.4648 h 5.02 c 1.42,0 2.85,-0.7187 3.61,-1.4648 0.76,-0.7578 1.47,-2.6328 1.47,-3.5352 v -5.0859 z m 0,-5.0195 h 17.61 c 1.68,0 2.5,0.8398 2.5,2.5195 v 7.5859 c 0,2.793 -0.96,5.1992 -2.95,7.1328 -1.9,1.9102 -4.75,2.8789 -7.13,2.8789 h -5.02 c -2.33,0 -5.39,-1.2226 -7.13,-2.9492 -1.73,-1.6992 -2.95,-4.7383 -2.95,-7.0625 V 21.9727 c 0,-2.3829 1.2,-5.5079 2.95,-7.2071 1.71,-1.6992 4.33,-2.8906 7.13,-2.8906 h 12.6 c 0.78,0 1.64,0.4883 1.85,0.7813 0.2,0.2734 0.65,1.0742 0.65,1.7187 0,0.7422 -0.43,1.582 -0.63,1.8086 -0.17,0.2422 -1.5,0.6914 -1.87,0.6914 h -12.6 c -0.96,0 -2.85,0.7422 -3.57,1.4844 -0.74,0.7539 -1.44,2.1875 -1.44,3.6133 z m 80.52,12.5898 c 0,1.0508 -0.2,2 -0.59,2.918 -0.38,0.9101 -0.95,1.7109 -1.61,2.3906 -0.69,0.7031 -1.75,1.4961 -2.44,1.6211 -0.69,0.168 -2.37,0.5976 -2.95,0.5976 h -10.02 c -1.25,0 -2.57,-1.3085 -2.57,-2.5 V 14.375 c 0,-0.3203 0.49,-1.6211 0.76,-1.8359 0.29,-0.2149 1.13,-0.6641 1.81,-0.6641 0.73,0 1.57,0.4492 1.82,0.625 0.22,0.1953 0.68,1.0547 0.68,1.875 v 27.7031 h 7.52 c 0.73,0 1.57,-0.4765 1.81,-0.7304 0.24,-0.2618 0.69,-1.0821 0.69,-1.7852 0,-0.7617 0.5,-1.6211 0.8,-1.8203 0.25,-0.2149 1.09,-0.6641 1.79,-0.6641 0.74,0 1.57,0.4336 1.79,0.6172 0.25,0.1953 0.71,1.043 0.71,1.8672 m 65.29,4.2148 c 0.04,0.1758 0.1,0.3829 0.1,0.5313 0,0.1172 0.01,0.2812 0.01,0.4297 0,0.6836 -0.25,1.25 -0.76,1.6992 -0.5,0.4375 -1.12,0.6523 -1.81,0.6523 -0.47,0 -1.18,-0.3593 -1.36,-0.4101 -0.17,-0.0391 -0.88,-1.1445 -0.92,-1.2891 l -7.73,-23.1133 -7.68,23.1133 c -0.23,0.7305 -0.64,1.4063 -1.25,1.5547 -0.39,0.1055 -0.85,0.1445 -1.08,0.1445 -0.64,0 -1.47,-0.4492 -1.78,-0.6523 -0.31,-0.207 -0.82,-1.0156 -0.82,-1.6992 0,-0.1485 0.02,-0.293 0.05,-0.4297 0.03,-0.168 0.1,-0.5313 0.1,-0.5313 l 10.11,-30.2031 c 0.32,-0.9765 1.33,-2.1367 2.35,-2.1367 0.49,0 1.19,0.4258 1.4,0.5469 0.19,0.1445 0.73,0.9062 0.94,1.5898 z m 45.42,-29.4023 v 30.2148 c 0,0.8321 -0.49,1.6875 -0.77,1.875 -0.29,0.1758 -1.09,0.625 -1.71,0.625 -0.76,0 -1.37,-0.2148 -1.85,-0.6523 -0.5,-0.4492 -0.75,-1.5352 -0.75,-1.8477 V 14.375 c 0,-0.3203 0.51,-1.6211 0.76,-1.8359 0.3,-0.2149 1.14,-0.6641 1.84,-0.6641 0.72,0 1.54,0.4492 1.8,0.625 0.24,0.1953 0.68,1.0547 0.68,1.875 m -5.08,42.1016 c 0,-0.6953 0.49,-1.5352 0.75,-1.7696 0.25,-0.2617 1.09,-0.7304 1.85,-0.7304 0.67,0 1.26,0.2226 1.76,0.7304 0.49,0.4805 0.72,1.0743 0.72,1.7696 0,0.7304 -0.23,1.3437 -0.72,1.8242 -0.5,0.4883 -1.09,0.7305 -1.76,0.7305 -0.76,0 -1.6,-0.4766 -1.85,-0.7305 -0.26,-0.2344 -0.75,-1.0938 -0.75,-1.8242 m 63,-44.6016 c 0.78,0 1.64,0.4883 1.83,0.7813 0.22,0.2734 0.67,1.0742 0.67,1.7187 0,0.7422 -0.2,1.3398 -0.63,1.8086 -0.41,0.4687 -1.5,0.6914 -1.87,0.6914 h -7.61 c -0.94,0 -2.83,0.7422 -3.57,1.4844 -0.71,0.7539 -1.43,2.1875 -1.43,3.6133 v 15.1054 c 0,1.3672 0.72,2.7774 1.43,3.5352 0.74,0.7461 2.17,1.4648 3.57,1.4648 h 7.61 c 0.78,0 1.64,0.4922 1.83,0.7735 0.22,0.2851 0.67,1.0937 0.67,1.7382 0,0.7305 -0.43,1.5625 -0.63,1.8086 -0.18,0.2227 -1.5,0.6914 -1.87,0.6914 h -7.61 c -2.31,0 -5.17,-0.9843 -7.14,-2.9492 -1.94,-1.9531 -2.94,-4.7773 -2.94,-7.0625 V 21.9727 c 0,-2.3829 1.21,-5.5079 2.94,-7.2071 1.73,-1.6992 4.36,-2.8906 7.14,-2.8906 z M 2299,31.9922 v 5.0859 c 0,1.3672 0.72,2.7774 1.45,3.5352 0.72,0.7461 2.14,1.4648 3.57,1.4648 h 5 c 1.43,0 2.86,-0.7187 3.61,-1.4648 0.75,-0.7578 1.47,-2.6328 1.47,-3.5352 v -5.0859 z m 0,-5.0195 h 17.62 c 1.67,0 2.51,0.8398 2.51,2.5195 v 7.5859 c 0,2.793 -1,5.1992 -2.95,7.1328 -1.92,1.9102 -4.78,2.8789 -7.16,2.8789 h -5 c -2.34,0 -5.41,-1.2226 -7.14,-2.9492 -1.72,-1.6992 -2.97,-4.7383 -2.97,-7.0625 V 21.9727 c 0,-2.3829 1.22,-5.5079 2.97,-7.2071 1.71,-1.6992 4.34,-2.8906 7.14,-2.8906 h 12.6 c 0.78,0 1.62,0.4883 1.84,0.7813 0.22,0.2734 0.67,1.0742 0.67,1.7187 0,0.7422 -0.45,1.582 -0.64,1.8086 -0.17,0.2422 -1.5,0.6914 -1.87,0.6914 h -12.6 c -0.96,0 -2.85,0.7422 -3.57,1.4844 -0.73,0.7539 -1.45,2.1875 -1.45,3.6133 v 5"
         style="fill:#85888e;fill-opacity:1;fill-rule:nonzero;stroke:none"
         transform="matrix(0.13333333,0,0,-0.13333333,0,78.48)" />
      <path
         id="path6"
         d="m 714.785,204.504 33.848,50.769 c 1.18,1.77 1.633,3.567 1.633,5.188 0,2.723 -1.036,5.035 -3,6.816 -1.973,1.786 -4.278,2.743 -6.828,2.743 -3.27,0 -5.79,-1.59 -7.645,-4.375 l -29.473,-44.227 -29.472,44.227 c -1.868,2.824 -4.461,4.093 -7.364,4.093 -2.558,0 -4.836,-0.859 -6.828,-2.597 -2,-1.739 -3.008,-3.868 -3.008,-6.426 0,-0.703 0.098,-1.582 0.278,-2.59 0.183,-0.984 0.75,-1.941 1.355,-2.852 l 33.86,-50.769 -33.86,-50.742 c -1.035,-1.574 -1.633,-3.391 -1.633,-5.207 0,-2.559 1.008,-4.766 3.008,-6.68 2.004,-1.914 4.184,-2.883 6.555,-2.883 3.269,0 5.73,1.535 7.637,4.387 l 29.472,44.219 29.473,-44.219 c 1.797,-2.684 4.375,-4.094 7.645,-4.094 2.55,0 4.828,0.863 6.828,2.59 1.992,1.711 3,3.859 3,6.406 0,2.188 -0.637,3.957 -1.633,5.481 z m 77.168,-46.66 v 93.34 h 37.117 c 5.278,0 9.739,-1.829 13.371,-5.469 3.645,-3.637 5.457,-8.067 5.457,-13.086 V 176.68 c 0,-5.227 -1.812,-9.746 -5.457,-13.387 -3.632,-3.637 -8.164,-5.449 -13.371,-5.449 z m 0,-18.559 h 37.117 c 10.559,0 19.414,3.567 26.477,10.625 7.246,7.258 10.918,16.203 10.918,26.77 v 55.949 c 0,10.359 -3.672,19.207 -10.918,26.465 -7.063,7.058 -15.977,10.644 -26.477,10.644 h -46.394 c -6.289,0 -9.551,-3.175 -9.551,-9.277 V 102.527 c 0,-2.8395 0.957,-5.2106 2.859,-6.8317 1.914,-1.6406 4.145,-2.4609 6.692,-2.4609 2.722,0 4.961,0.7578 6.679,2.3242 1.739,1.5508 2.598,3.8672 2.598,6.9684 z m 190.985,40.918 v 48.606 c 0,11.269 -4.012,20.918 -12.008,28.906 -8.008,8.008 -17.727,12.023 -28.938,12.023 h -11.179 c -11.04,0 -20.958,-3.965 -29.211,-12.023 -8.055,-7.879 -12.012,-17.703 -12.012,-28.906 v -48.606 c 0,-11.383 3.996,-21.277 12.012,-29.187 7.929,-7.84 17.734,-11.731 29.211,-11.731 h 11.179 c 11.465,0 21.113,3.91 28.938,11.731 7.996,8.007 12.008,17.754 12.008,29.187 m -18.563,0 c 0,-6.109 -2.187,-11.433 -6.555,-15.828 -4.363,-4.348 -9.707,-6.531 -15.828,-6.531 h -11.179 c -6.125,0 -11.477,2.183 -15.833,6.531 -4.375,4.395 -6.562,9.648 -6.562,15.828 v 48.606 c 0,6.171 2.187,11.457 6.562,15.82 4.356,4.355 9.637,6.555 15.833,6.555 h 11.179 c 6.184,0 11.465,-2.2 15.828,-6.555 4.368,-4.363 6.555,-9.727 6.555,-15.82 z M 1218,139.285 c 2.91,0 5.18,0.942 6.82,2.863 1.63,1.907 2.45,4.043 2.45,6.407 0,2.746 -0.77,4.941 -2.29,6.679 -1.57,1.731 -3.89,2.61 -6.98,2.61 -2.55,0 -5,1.211 -6.55,2.859 -1.56,1.641 -2.74,4.121 -2.74,6.68 v 132.551 c 0,3.093 -0.95,5.449 -2.85,7.089 -1.91,1.637 -4.06,2.442 -6.42,2.442 -2.73,0 -5.27,-1.113 -6.82,-2.59 -1.56,-1.453 -2.74,-4.551 -2.74,-6.941 V 167.383 c 0,-3.289 1,-7.715 2.19,-10.918 1.19,-3.192 3.51,-6.453 6.13,-9.004 2.66,-2.551 5.9,-4.785 9.03,-6.008 3.1,-1.211 6.96,-2.168 10.77,-2.168 m 113.65,40.918 v 48.606 c 0,11.269 -4.02,20.918 -12.02,28.906 -8.01,8.008 -18.24,12.023 -28.93,12.023 h -11.2 c -10.5,0 -21.19,-4.203 -29.19,-12.023 -7.8,-7.598 -12.01,-18.231 -12.01,-28.906 v -48.606 c 0,-10.855 4.24,-21.519 12.01,-29.187 7.65,-7.578 17.73,-11.731 29.19,-11.731 h 11.2 c 11.46,0 21.12,3.91 28.93,11.731 8,8.007 12.02,17.754 12.02,29.187 m -18.58,0 c 0,-5.574 -2.18,-11.433 -6.54,-15.828 -4.37,-4.348 -10.23,-6.531 -15.83,-6.531 h -11.2 c -5.58,0 -11.46,2.183 -15.83,6.531 -4.35,4.395 -6.55,9.648 -6.55,15.828 v 48.606 c 0,6.171 2.2,11.457 6.55,15.82 4.37,4.355 9.65,6.555 15.83,6.555 h 11.2 c 6.18,0 11.46,-2.2 15.83,-6.555 4.36,-4.363 6.54,-10.242 6.54,-15.82 z m 60.52,70.981 h 37.12 c 5.28,0 9.74,-1.829 13.38,-5.469 3.62,-3.637 5.46,-8.586 5.46,-13.086 V 176.68 c 0,-4.688 -1.84,-9.746 -5.46,-13.387 -3.64,-3.637 -8.69,-5.449 -13.38,-5.449 h -37.12 z m 0,18.554 v 30.196 c 0,3.093 -0.94,5.449 -2.86,7.089 -1.91,1.637 -4.04,2.442 -6.41,2.442 -2.73,0 -5.33,-1.152 -6.82,-2.59 -1.52,-1.395 -2.73,-4.648 -2.73,-6.941 V 148.555 c 0,-5.547 3.17,-9.27 9.55,-9.27 h 46.39 c 10.56,0 19.69,3.82 26.48,10.625 6.98,6.985 10.92,16.203 10.92,26.77 v 55.949 c 0,10.359 -3.94,19.488 -10.92,26.465 -6.79,6.812 -16.51,10.644 -26.48,10.644 z m 172.1,-93.058 c 0,-4.688 -1.82,-9.746 -5.47,-13.387 -3.64,-3.637 -8.7,-5.449 -13.35,-5.449 h -18.56 c -4.69,0 -9.99,2.105 -13.24,5.449 -3.25,3.34 -5.32,8.105 -5.32,13.387 v 55.949 c 0,5.074 2.07,9.742 5.32,13.086 3.25,3.34 7.95,5.469 13.24,5.469 h 37.38 z m 9.01,-25.125 c 3.82,-4.914 9.2,-8.977 15.28,-11.446 0.95,-0.39 2.54,-1.117 3.83,-1.117 2.71,0 4.95,1.028 6.68,3 1.72,2 2.59,4.297 2.59,6.836 0,3.82 -2.34,6.746 -6,8.195 -3.57,1.415 -6.91,4.5 -9.29,8.047 -2.35,3.543 -3.54,7.43 -3.54,11.61 v 83.781 c 0,6.191 -3.69,9.277 -9.29,9.277 h -46.65 c -9.79,0 -19.5,-3.945 -26.48,-10.898 -6.99,-7.004 -10.91,-16.621 -10.91,-26.211 V 176.68 c 0,-9.969 3.87,-19.844 10.91,-26.77 6.93,-6.844 16.09,-10.625 26.48,-10.625 h 18.56 c 5.44,0 10.92,1.43 15.53,3.41 4.63,1.973 9.03,5.246 12.3,8.86 m 67,-12.27 c 2.91,0 5.18,0.942 6.83,2.863 1.62,1.907 2.45,4.043 2.45,6.407 0,2.746 -0.77,4.941 -2.33,6.679 -1.54,1.731 -3.86,2.61 -6.95,2.61 -2.55,0 -5.05,1.269 -6.55,2.859 -1.51,1.582 -2.74,4.121 -2.74,6.68 v 132.551 c 0,3.093 -0.95,5.449 -2.85,7.089 -1.92,1.637 -4.06,2.442 -6.42,2.442 -2.72,0 -5.33,-1.176 -6.82,-2.59 -1.51,-1.395 -2.74,-4.668 -2.74,-6.941 V 167.383 c 0,-3.172 1.06,-7.766 2.18,-10.918 1.14,-3.113 3.51,-6.453 6.14,-9.004 2.63,-2.551 5.94,-4.844 9.01,-6.008 3.07,-1.148 6.98,-2.168 10.79,-2.168 m 360.22,102.602 c 0,3.828 -0.82,7.527 -2.17,10.789 -1.36,3.262 -3.45,6.328 -6,8.879 -2.57,2.539 -5.67,4.629 -9.03,5.996 -3.34,1.347 -7.29,2.187 -10.91,2.187 h -37.11 c -6.16,0 -9.55,-3.3 -9.55,-9.277 V 148.555 c 0,-2.696 0.94,-5.176 2.85,-6.817 1.91,-1.629 4.15,-2.453 6.7,-2.453 2.71,0 4.95,0.774 6.68,2.297 1.74,1.555 2.6,3.887 2.6,6.973 v 102.629 h 27.83 c 2.72,0 5.05,-1.028 6.7,-2.727 1.6,-1.719 2.59,-4.012 2.59,-6.57 0,-2.91 0.94,-5.168 2.85,-6.809 1.92,-1.64 4.15,-2.449 6.7,-2.449 2.72,0 4.95,0.769 6.69,2.312 1.72,1.536 2.58,3.868 2.58,6.946 m 109.22,-61.684 v 48.606 c 0,11.269 -4,20.918 -11.99,28.906 -8.02,8.008 -17.9,12.023 -28.94,12.023 h -11.2 c -10.88,0 -21.02,-4.035 -29.21,-12.023 -7.98,-7.805 -12,-17.86 -12,-28.906 v -48.606 c 0,-11.226 4.08,-21.336 12,-29.187 7.87,-7.774 17.75,-11.731 29.21,-11.731 h 11.2 c 11.46,0 21.1,3.91 28.94,11.731 7.99,8.007 11.99,17.754 11.99,29.187 m -18.56,0 c 0,-5.957 -2.18,-11.433 -6.55,-15.828 -4.36,-4.348 -9.87,-6.531 -15.82,-6.531 h -11.2 c -5.96,0 -11.46,2.183 -15.83,6.531 -4.37,4.395 -6.54,9.648 -6.54,15.828 v 48.606 c 0,6.171 2.17,11.457 6.54,15.82 4.37,4.355 9.65,6.555 15.83,6.555 h 11.2 c 6.19,0 11.46,-2.2 15.82,-6.555 4.37,-4.363 6.55,-9.863 6.55,-15.82 z m 135.03,-31.648 v 111.906 c 0,3.086 -1.02,5.516 -2.73,6.949 -1.72,1.449 -4,2.328 -6.54,2.328 -2.56,0 -4.84,-0.937 -6.55,-2.461 -1.72,-1.543 -2.74,-4.132 -2.74,-6.816 V 157.844 h -37.38 c -5.07,0 -9.79,1.922 -13.24,5.449 -3.45,3.531 -5.32,8.105 -5.32,13.387 v 83.781 c 0,3.086 -0.97,5.406 -2.87,6.949 -1.91,1.543 -4.05,2.328 -6.41,2.328 -2.74,0 -5.1,-0.937 -6.83,-2.461 -1.71,-1.543 -2.72,-4.132 -2.72,-6.816 V 176.68 c 0,-10.34 3.69,-19.637 10.91,-26.77 7.12,-7.039 16.09,-10.625 26.48,-10.625 h 46.67 c 6.19,0 9.27,3.086 9.27,9.27 m 41.96,9.289 v 93.34 h 37.12 c 5.27,0 9.74,-1.829 13.37,-5.469 3.65,-3.637 5.46,-8.215 5.46,-13.086 V 176.68 c 0,-5.067 -1.81,-9.746 -5.46,-13.387 -3.63,-3.637 -8.31,-5.449 -13.37,-5.449 z m 0,-18.559 h 37.12 c 10.55,0 19.49,3.645 26.47,10.625 7.17,7.192 10.92,16.203 10.92,26.77 v 55.949 c 0,10.359 -3.75,19.285 -10.92,26.465 -6.98,6.98 -16.13,10.644 -26.47,10.644 h -46.41 c -6.11,0 -9.54,-3.34 -9.54,-9.277 V 102.527 c 0,-2.6911 0.97,-5.2106 2.86,-6.8317 1.92,-1.6406 4.14,-2.4609 6.68,-2.4609 2.74,0 4.97,0.7578 6.7,2.3242 1.74,1.5508 2.59,3.8672 2.59,6.9684 v 36.758"
         style="fill:#5e6465;fill-opacity:1;fill-rule:nonzero;stroke:none"
         transform="matrix(0.13333333,0,0,-0.13333333,0,78.48)" />
      <path
         id="path7"
         d="m 622.859,138.887 c 3.411,0 6.133,1.203 7.981,3.359 1.836,2.149 2.851,4.727 2.851,7.481 0,3.183 -0.937,5.847 -2.683,7.812 -1.77,1.984 -4.621,3.035 -8.149,3.035 h -75.476 c -6.074,0 -11.309,2.121 -15.449,6.391 -4.153,4.234 -6.219,9.433 -6.219,15.605 v 65.391 h 75.105 c 3.614,0 6.328,1.082 8.125,3.191 1.797,2.102 2.703,4.668 2.703,7.637 0,3.203 -0.886,5.801 -2.703,7.824 -1.797,2.032 -4.55,3.016 -8.125,3.016 h -75.105 v 43.644 c 0,6.172 2.066,11.305 6.219,15.45 4.14,4.148 9.296,6.218 15.449,6.218 h 75.476 c 3.411,0 6.118,1.172 7.981,3.36 1.855,2.179 2.851,4.719 2.851,7.48 0,3.211 -0.964,5.918 -2.683,7.969 -1.75,2.063 -4.668,3.215 -8.149,3.215 h -93.921 c -11.965,0 -22.434,-4.262 -30.93,-12.766 -8.496,-8.496 -12.754,-18.926 -12.754,-30.926 V 182.57 c 0,-12.207 4.277,-22.875 12.754,-31.25 8.387,-8.254 18.816,-12.433 30.93,-12.433 z m 540.871,10.879 v 109.023 c 0,7.238 -3.95,10.84 -10.84,10.84 h -21.67 c -3.06,0 -6.24,-1.25 -7.97,-3.164 -1.74,-1.961 -2.88,-4.695 -2.88,-7.676 0,-2.969 1,-5.535 2.88,-7.637 1.91,-2.109 4.55,-3.191 7.97,-3.191 h 10.84 v -87.356 h -65.36 c -5.8,0 -11.49,2.305 -15.46,6.387 -3.96,4.082 -6.22,9.446 -6.22,15.606 v 130.73 c 0,6.156 2.08,11.313 6.22,15.449 4.14,4.145 9.31,6.211 15.46,6.211 h 76.19 c 3.6,0 6.32,1.145 8.15,3.352 1.79,2.226 2.69,4.726 2.69,7.5 0,3.183 -1.08,6.047 -2.69,7.969 -1.66,1.933 -4.92,3.183 -8.15,3.183 h -94.35 c -11.73,0 -22.43,-4.226 -30.92,-12.746 -8.52,-8.492 -12.77,-19.195 -12.77,-30.918 v -130.73 c 0,-11.946 4.39,-22.989 12.77,-31.239 8.24,-8.156 18.81,-12.433 30.92,-12.433 h 94.35 c 7.23,0 10.84,3.601 10.84,10.84 m 714.65,0 v 109.023 c 0,7.238 -3.75,10.84 -10.84,10.84 h -21.69 c -3.26,0 -6.09,-1.121 -7.95,-3.164 -1.86,-2.063 -2.87,-4.695 -2.87,-7.676 0,-2.969 1.01,-5.586 2.87,-7.637 1.86,-2.082 4.56,-3.191 7.95,-3.191 h 10.85 v -87.356 h -65.35 c -6.04,0 -11.4,2.2 -15.47,6.387 -4.08,4.18 -6.21,9.446 -6.21,15.606 v 130.73 c 0,6.156 2.09,11.313 6.21,15.449 4.15,4.145 9.32,6.211 15.47,6.211 h 76.19 c 3.61,0 6.33,1.145 8.12,3.352 1.81,2.226 2.72,4.726 2.72,7.5 0,3.183 -0.96,5.89 -2.72,7.969 -1.73,2.07 -4.64,3.183 -8.12,3.183 h -94.36 c -11.97,0 -22.42,-4.226 -30.9,-12.746 -8.52,-8.492 -12.77,-18.965 -12.77,-30.918 v -130.73 c 0,-12.176 4.27,-22.86 12.77,-31.239 8.36,-8.273 18.79,-12.433 30.9,-12.433 h 94.36 c 7.24,0 10.84,3.601 10.84,10.84"
         style="fill:#f68722;fill-opacity:1;fill-rule:nonzero;stroke:none"
         transform="matrix(0.13333333,0,0,-0.13333333,0,78.48)" />
    </g>
  </g>
</svg>
