<svg width="314" height="138" viewBox="0 0 314 138" fill="none" xmlns="http://www.w3.org/2000/svg">
<g clip-path="url(#clip0_766_11306)">
<mask id="mask0_766_11306" style="mask-type:luminance" maskUnits="userSpaceOnUse" x="-543" y="-287" width="927" height="663">
<path d="M383.534 -286.593H-542.712V375.288H383.534V-286.593Z" fill="white"/>
</mask>
<g mask="url(#mask0_766_11306)">
<path d="M138.402 96.6738V96.3554C138.402 92.6405 135.315 89.5625 131.589 89.5625H121.371V112.701H123.074H124.777V103.573H131.589C131.696 103.573 131.802 103.573 131.909 103.573L135.847 112.701H139.572L135.102 102.511C137.124 101.344 138.402 99.115 138.402 96.6738ZM134.996 96.6738C134.996 98.5843 133.505 100.07 131.589 100.07H124.777V92.9589H131.589C133.505 92.9589 134.996 94.4449 134.996 96.3554V96.6738Z" fill="#444444"/>
</g>
<mask id="mask1_766_11306" style="mask-type:luminance" maskUnits="userSpaceOnUse" x="-543" y="-287" width="927" height="663">
<path d="M383.534 -286.593H-542.712V375.288H383.534V-286.593Z" fill="white"/>
</mask>
<g mask="url(#mask1_766_11306)">
<path d="M152.452 89.5625C146.065 89.5625 140.85 94.7633 140.85 101.132C140.85 107.5 146.065 112.701 152.452 112.701C158.838 112.701 164.054 107.5 164.054 101.132C164.054 94.7633 158.838 89.5625 152.452 89.5625ZM152.452 109.198C147.981 109.198 144.362 105.589 144.362 101.132C144.362 96.6738 147.981 93.0651 152.452 93.0651C156.922 93.0651 160.541 96.6738 160.541 101.132C160.541 105.589 156.922 109.198 152.452 109.198Z" fill="#444444"/>
</g>
<mask id="mask2_766_11306" style="mask-type:luminance" maskUnits="userSpaceOnUse" x="-543" y="-287" width="927" height="663">
<path d="M383.534 -286.593H-542.712V375.288H383.534V-286.593Z" fill="white"/>
</mask>
<g mask="url(#mask2_766_11306)">
<path d="M181.936 103.573C181.936 106.757 179.275 109.41 176.082 109.41C172.888 109.41 170.227 106.757 170.227 103.573V89.6685H166.821V103.573C166.821 108.667 170.972 112.807 176.082 112.807C181.191 112.807 185.342 108.667 185.342 103.573V89.6685H181.936V103.573Z" fill="#444444"/>
</g>
<mask id="mask3_766_11306" style="mask-type:luminance" maskUnits="userSpaceOnUse" x="-543" y="-287" width="927" height="663">
<path d="M383.534 -286.593H-542.712V375.288H383.534V-286.593Z" fill="white"/>
</mask>
<g mask="url(#mask3_766_11306)">
<path d="M107.96 99.7519H118.71C118.71 99.7519 118.923 102.405 118.497 103.997C117.114 109.411 112.004 113.338 106.044 112.701C100.722 112.17 96.3576 107.818 95.8254 102.618C95.0803 95.6125 100.509 89.7749 107.321 89.7749C111.366 89.7749 114.878 91.8977 117.007 94.9757L114.346 96.7801C114.24 96.8862 114.133 96.7801 114.027 96.6739C112.324 94.1266 109.13 92.7468 105.831 93.3836C102.638 94.0204 99.9766 96.5678 99.4443 99.7519C98.4864 104.847 102.425 109.411 107.427 109.411C111.153 109.411 114.346 106.863 115.304 103.361H108.172V99.7519H107.96Z" fill="#444444"/>
</g>
<mask id="mask4_766_11306" style="mask-type:luminance" maskUnits="userSpaceOnUse" x="-543" y="-287" width="927" height="663">
<path d="M383.534 -286.593H-542.712V375.288H383.534V-286.593Z" fill="white"/>
</mask>
<g mask="url(#mask4_766_11306)">
<path d="M198.328 89.6685H189.067V93.5956V112.701H192.473V107.712H198.008C203.437 107.712 207.801 103.254 207.375 97.9473C206.949 93.3833 203.118 89.6685 198.328 89.6685ZM198.328 104.316H192.473V94.9754V93.0649H198.115C201.095 93.0649 203.65 95.1877 203.863 98.1596C204.182 101.556 201.627 104.316 198.328 104.316Z" fill="#444444"/>
</g>
<mask id="mask5_766_11306" style="mask-type:luminance" maskUnits="userSpaceOnUse" x="-543" y="-287" width="927" height="663">
<path d="M383.534 -286.593H-542.712V375.288H383.534V-286.593Z" fill="white"/>
</mask>
<g mask="url(#mask5_766_11306)">
<path d="M302.427 81.496V61.8604H298.914V84.8925H313.496V81.496H302.427Z" fill="#444444"/>
</g>
<mask id="mask6_766_11306" style="mask-type:luminance" maskUnits="userSpaceOnUse" x="-543" y="-287" width="927" height="663">
<path d="M383.534 -286.593H-542.712V375.288H383.534V-286.593Z" fill="white"/>
</mask>
<g mask="url(#mask6_766_11306)">
<path d="M118.923 84.9986H123.18V84.8925L129.993 75.9768H130.099L137.018 84.8925V84.9986H141.275V84.8925L132.334 73.2172L141.275 61.9665L141.169 61.8604H136.911L130.099 70.4576H129.993L123.287 61.8604H123.18H118.923V61.9665L127.864 73.2172L118.923 84.8925V84.9986Z" fill="#444444"/>
</g>
<mask id="mask7_766_11306" style="mask-type:luminance" maskUnits="userSpaceOnUse" x="-543" y="-287" width="927" height="663">
<path d="M383.534 -286.593H-542.712V375.288H383.534V-286.593Z" fill="white"/>
</mask>
<g mask="url(#mask7_766_11306)">
<path d="M272.73 78.3117V77.9933C272.73 75.4459 271.24 73.3231 269.111 72.1556C269.962 71.0942 270.495 69.7144 270.495 68.3346C270.495 64.8321 267.514 61.9663 263.789 61.9663H256.87V84.8923H265.811C269.643 84.8923 272.73 81.9204 272.73 78.3117ZM260.276 65.2566H263.789C265.598 65.2566 266.982 66.6364 266.982 68.3346C266.982 69.9267 265.598 71.3065 263.895 71.4127H260.276V65.2566ZM269.324 78.3117C269.324 80.116 267.727 81.602 265.811 81.602H260.276V74.8091H263.789H264.002H265.918C267.834 74.8091 269.43 76.295 269.43 78.0994V78.3117H269.324Z" fill="#444444"/>
</g>
<mask id="mask8_766_11306" style="mask-type:luminance" maskUnits="userSpaceOnUse" x="-543" y="-287" width="927" height="663">
<path d="M383.534 -286.593H-542.712V375.288H383.534V-286.593Z" fill="white"/>
</mask>
<g mask="url(#mask8_766_11306)">
<path d="M277.626 84.9984L280.287 79.0546H290.186L292.847 84.9984H296.572L286.354 61.9663H284.012L273.794 84.9984H277.626ZM285.183 67.8039L288.696 75.6582H281.777L285.183 67.8039Z" fill="#444444"/>
</g>
<mask id="mask9_766_11306" style="mask-type:luminance" maskUnits="userSpaceOnUse" x="-543" y="-287" width="927" height="663">
<path d="M383.534 -286.593H-542.712V375.288H383.534V-286.593Z" fill="white"/>
</mask>
<g mask="url(#mask9_766_11306)">
<path d="M242.82 61.8604C236.433 61.8604 231.324 67.0612 231.324 73.3233C231.324 79.6917 236.54 84.7863 242.82 84.7863C249.206 84.7863 254.315 79.5855 254.315 73.3233C254.422 66.955 249.206 61.8604 242.82 61.8604ZM242.82 81.3899C238.349 81.3899 234.73 77.7812 234.73 73.3233C234.73 68.8655 238.349 65.2568 242.82 65.2568C247.29 65.2568 250.909 68.8655 250.909 73.3233C250.909 77.7812 247.29 81.3899 242.82 81.3899Z" fill="#444444"/>
</g>
<mask id="mask10_766_11306" style="mask-type:luminance" maskUnits="userSpaceOnUse" x="-543" y="-287" width="927" height="663">
<path d="M383.534 -286.593H-542.712V375.288H383.534V-286.593Z" fill="white"/>
</mask>
<g mask="url(#mask10_766_11306)">
<path d="M154.155 61.8604H144.895V65.7875V84.8925H148.301V79.9039H153.836C159.264 79.9039 163.628 75.4461 163.202 70.1392C162.777 65.4691 158.838 61.8604 154.155 61.8604ZM154.155 76.5075H148.301V67.1673V65.2568H153.942C156.922 65.2568 159.477 67.3796 159.69 70.3514C160.009 73.7479 157.348 76.5075 154.155 76.5075Z" fill="#444444"/>
</g>
<mask id="mask11_766_11306" style="mask-type:luminance" maskUnits="userSpaceOnUse" x="-543" y="-287" width="927" height="663">
<path d="M383.534 -286.593H-542.712V375.288H383.534V-286.593Z" fill="white"/>
</mask>
<g mask="url(#mask11_766_11306)">
<path d="M177.252 61.8604C170.866 61.8604 165.757 67.0612 165.757 73.3233C165.757 79.6917 170.972 84.7863 177.252 84.7863C183.639 84.7863 188.748 79.5855 188.748 73.3233C188.748 66.955 183.532 61.8604 177.252 61.8604ZM177.252 81.3899C172.782 81.3899 169.163 77.7812 169.163 73.3233C169.163 68.8655 172.782 65.2568 177.252 65.2568C181.723 65.2568 185.342 68.8655 185.342 73.3233C185.342 77.7812 181.723 81.3899 177.252 81.3899Z" fill="#444444"/>
</g>
<mask id="mask12_766_11306" style="mask-type:luminance" maskUnits="userSpaceOnUse" x="-543" y="-287" width="927" height="663">
<path d="M383.534 -286.593H-542.712V375.288H383.534V-286.593Z" fill="white"/>
</mask>
<g mask="url(#mask12_766_11306)">
<path d="M152.452 89.5625C146.065 89.5625 140.85 94.7633 140.85 101.132C140.85 107.5 146.065 112.701 152.452 112.701C158.838 112.701 164.054 107.5 164.054 101.132C164.054 94.7633 158.838 89.5625 152.452 89.5625ZM152.452 109.198C147.981 109.198 144.362 105.589 144.362 101.132C144.362 96.6738 147.981 93.0651 152.452 93.0651C156.922 93.0651 160.541 96.6738 160.541 101.132C160.541 105.589 156.922 109.198 152.452 109.198Z" fill="#444444"/>
</g>
<mask id="mask13_766_11306" style="mask-type:luminance" maskUnits="userSpaceOnUse" x="-543" y="-287" width="927" height="663">
<path d="M383.534 -286.593H-542.712V375.288H383.534V-286.593Z" fill="white"/>
</mask>
<g mask="url(#mask13_766_11306)">
<path d="M177.252 61.8604C170.866 61.8604 165.757 67.0612 165.757 73.3233C165.757 79.6917 170.972 84.7863 177.252 84.7863C183.639 84.7863 188.748 79.5855 188.748 73.3233C188.748 66.955 183.532 61.8604 177.252 61.8604ZM177.252 81.3899C172.782 81.3899 169.163 77.7812 169.163 73.3233C169.163 68.8655 172.782 65.2568 177.252 65.2568C181.723 65.2568 185.342 68.8655 185.342 73.3233C185.342 77.7812 181.723 81.3899 177.252 81.3899Z" fill="#444444"/>
</g>
<mask id="mask14_766_11306" style="mask-type:luminance" maskUnits="userSpaceOnUse" x="-543" y="-287" width="927" height="663">
<path d="M383.534 -286.593H-542.712V375.288H383.534V-286.593Z" fill="white"/>
</mask>
<g mask="url(#mask14_766_11306)">
<path d="M118.71 70.5632C117.22 64.8317 111.685 60.7985 105.298 61.966C100.721 62.8151 96.9959 66.3177 96.0379 70.8816C94.4413 78.4175 100.189 85.1042 107.427 85.1042C111.365 85.1042 114.878 83.0876 117.007 80.1157L114.133 78.2052C112.43 80.7526 109.237 82.2385 105.83 81.6017C102.531 80.9648 99.8698 78.3114 99.3376 75.0211H118.071H119.029C119.029 74.8088 119.136 72.1553 118.71 70.5632ZM99.444 71.3062C100.402 67.8036 103.595 65.2563 107.321 65.2563C111.152 65.2563 114.346 67.8036 115.197 71.3062H99.444Z" fill="#444444"/>
</g>
<mask id="mask15_766_11306" style="mask-type:luminance" maskUnits="userSpaceOnUse" x="-543" y="-287" width="927" height="663">
<path d="M383.534 -286.593H-542.712V375.288H383.534V-286.593Z" fill="white"/>
</mask>
<g mask="url(#mask15_766_11306)">
<path d="M203.437 71.9432H214.187C214.187 71.9432 214.4 74.5967 213.974 76.1888C212.591 81.6018 207.375 85.529 201.414 84.8921C196.092 84.3615 191.728 80.0098 191.09 74.7028C190.238 67.6977 195.773 61.7539 202.692 61.7539C206.736 61.7539 210.355 63.8767 212.484 66.9547L209.61 68.8652C207.907 66.2117 204.714 64.6196 201.201 65.2565C198.008 65.8933 195.347 68.4406 194.709 71.7309C193.751 76.9317 197.689 81.3896 202.692 81.3896C206.524 81.3896 209.717 78.8422 210.568 75.3397H203.33V71.9432H203.437Z" fill="#444444"/>
</g>
<mask id="mask16_766_11306" style="mask-type:luminance" maskUnits="userSpaceOnUse" x="-543" y="-287" width="927" height="663">
<path d="M383.534 -286.593H-542.712V375.288H383.534V-286.593Z" fill="white"/>
</mask>
<g mask="url(#mask16_766_11306)">
<path d="M220.148 81.6022V61.8604H216.742V84.9986H231.218V81.6022H220.148Z" fill="#444444"/>
</g>
<mask id="mask17_766_11306" style="mask-type:luminance" maskUnits="userSpaceOnUse" x="147" y="96" width="12" height="13">
<path d="M147.449 107.5C147.769 107.818 148.194 108.03 148.62 108.243C152.133 104.846 155.432 101.344 158.519 97.9473C158.306 97.5228 157.987 97.2043 157.774 96.7798C154.368 100.495 150.962 104.103 147.449 107.5Z" fill="white"/>
</mask>
<g mask="url(#mask17_766_11306)">
<path d="M141.808 102.087L153.41 91.3667L164.16 102.936L152.558 113.762L141.808 102.087Z" fill="url(#paint0_linear_766_11306)"/>
</g>
<mask id="mask18_766_11306" style="mask-type:luminance" maskUnits="userSpaceOnUse" x="63" y="110" width="83" height="28">
<path d="M110.408 133.398C99.87 137.219 88.9066 137.006 80.1785 132.761C72.7276 129.152 67.4056 122.89 64.6381 114.505C64.4252 114.611 64.2124 114.717 63.9995 114.823C63.7866 114.93 63.6802 115.036 63.4673 115.036C66.3412 123.633 71.8761 130.107 79.5398 133.822C84.3297 136.157 89.6517 137.219 95.293 137.219C100.296 137.219 105.618 136.264 110.727 134.459C122.542 130.214 134.463 121.298 145.001 111.533C144.575 111.321 144.256 111.002 143.936 110.684C133.079 121.086 121.477 129.364 110.408 133.398Z" fill="white"/>
</mask>
<g mask="url(#mask18_766_11306)">
<path d="M50.2686 123.103L107.427 70.3516L158.306 125.119L101.254 177.87L50.2686 123.103Z" fill="url(#paint1_linear_766_11306)"/>
</g>
<mask id="mask19_766_11306" style="mask-type:luminance" maskUnits="userSpaceOnUse" x="160" y="83" width="11" height="12">
<path d="M160.86 93.1712C161.18 93.4896 161.499 93.808 161.712 94.2326C162.776 92.9589 163.841 91.6853 164.905 90.5177C166.715 88.395 168.524 86.166 170.227 84.0433C169.801 83.831 169.482 83.5126 169.163 83.3003C166.502 86.5906 163.734 89.8809 160.86 93.1712Z" fill="white"/>
</mask>
<g mask="url(#mask19_766_11306)">
<path d="M155.432 88.289L165.969 78.6304L175.762 89.1381L165.224 98.9029L155.432 88.289Z" fill="url(#paint2_linear_766_11306)"/>
</g>
<mask id="mask20_766_11306" style="mask-type:luminance" maskUnits="userSpaceOnUse" x="172" y="67" width="10" height="14">
<path d="M172.036 79.5855C172.355 79.9039 172.781 80.1162 173.101 80.3284C176.187 76.2952 179.168 72.368 181.829 68.4409C181.509 68.1225 181.19 67.9102 180.871 67.5918C178.103 71.5189 175.229 75.4461 172.036 79.5855Z" fill="white"/>
</mask>
<g mask="url(#mask20_766_11306)">
<path d="M165.756 73.4295L177.358 62.7095L188.215 74.3847L176.613 85.1047L165.756 73.4295Z" fill="url(#paint3_linear_766_11306)"/>
</g>
<mask id="mask21_766_11306" style="mask-type:luminance" maskUnits="userSpaceOnUse" x="0" y="1" width="202" height="116">
<path d="M34.1958 110.79C20.7843 105.058 8.01141 90.0929 3.75379 75.1273C1.73141 68.016 0.773447 57.6144 7.26633 48.4865C11.4175 42.6489 16.9524 39.4647 23.8711 35.856C31.8541 31.6104 40.2629 28.7447 48.6718 27.3649C52.1843 26.8342 56.1226 26.4096 60.0609 26.4096C67.086 26.4096 74.324 27.6833 80.4975 31.3982C71.6629 37.9788 64.8507 45.9392 61.0189 54.5364C58.7836 59.5249 57.3999 64.4073 56.6548 69.2897C48.6718 68.1222 41.7531 63.3459 36.7504 55.5978C32.4928 48.911 30.8962 41.0568 32.1734 33.3086C31.7477 33.5209 31.3219 33.6271 30.7897 33.8393C29.6189 41.6936 31.3219 49.5479 35.686 56.2346C40.7951 64.195 48.1396 69.1835 56.4419 70.4572C57.9321 70.6695 59.4223 70.7756 60.9124 70.7756C62.0833 70.7756 63.3606 70.6695 64.5314 70.5633C74.4304 69.3958 83.9036 65.3625 92.5253 60.374C91.248 69.2897 87.5226 77.8869 83.6907 85.9535L83.3714 86.4841C79.3267 94.763 75.1755 103.254 68.2568 109.092C66.8731 110.259 65.3829 111.214 63.8928 112.064C59.5287 98.584 56.1226 85.3166 57.6128 71.7309C57.187 71.7309 56.7612 71.6247 56.3355 71.6247C54.8453 85.5289 58.3579 99.0085 62.8284 112.7C59.3158 114.399 55.6968 115.142 52.1843 115.142C45.7979 115.142 39.5179 113.019 34.1958 110.79ZM46.4365 11.7625C53.4616 7.30466 62.2962 4.54506 73.366 3.48367C79.646 2.84684 85.7131 2.52842 91.8867 2.52842C98.6989 2.52842 105.511 2.95298 112.323 3.69595C116.687 4.22664 122.861 5.18189 127.544 7.9415C129.141 8.89675 130.525 10.1704 131.483 11.6564C132.441 13.1423 133.079 14.7344 133.186 16.5387C134.25 26.728 120.093 38.5094 114.133 43.498C95.3992 59.1004 79.1138 67.5915 64.6379 69.2897C62.4026 69.6081 60.1674 69.6081 58.0385 69.3958C58.7836 64.6196 60.1674 59.8433 62.2962 55.0671C66.128 46.576 72.9402 38.6156 81.7748 32.035C83.7972 33.4148 85.6067 35.0069 87.3097 36.9174C91.1416 41.4813 93.2704 47.2128 93.2704 53.1566C93.2704 54.5364 93.2704 55.9162 93.0575 57.1899C93.4833 56.9776 93.909 56.6592 94.3348 56.3408C94.4412 55.2794 94.4412 54.1118 94.4412 53.0504C94.4412 46.7883 92.206 40.7384 88.1612 35.9621C78.0494 23.9684 61.1253 23.8623 48.5653 25.8789C43.2433 26.728 38.0277 28.214 32.8121 30.1245C34.8345 22.5886 39.6243 16.008 46.4365 11.7625ZM73.1531 2.10387C61.8704 3.27139 52.8229 6.031 45.6914 10.595C38.4534 15.2651 33.3443 22.3764 31.3219 30.7613C28.5545 31.8227 25.8934 33.0964 23.2324 34.4762C16.2073 38.191 10.566 41.4813 6.20192 47.5312C0.773447 55.0671 -0.503841 64.7257 2.4765 75.2334C6.84057 90.5174 19.9328 105.908 33.6636 111.745C39.0921 114.08 45.4785 116.309 52.0779 116.309C56.0162 116.309 60.0609 115.46 63.8928 113.443C65.7023 112.488 67.4053 111.321 69.0019 109.941C76.2399 103.997 80.3911 95.2937 84.4358 86.9087L84.7551 86.378C88.7999 77.993 92.6317 68.9713 93.909 59.4188C101.892 54.6425 109.024 49.0172 114.771 44.2409C124.99 35.7498 135.314 25.7728 134.356 16.2203C134.25 14.6282 133.718 13.1423 132.973 11.8686C140.849 10.595 149.258 9.74585 157.454 9.74585C167.46 9.74585 177.359 10.9134 185.874 13.8853C193.112 16.3265 197.582 19.7229 199.392 24.0746C201.201 28.3201 200.456 33.6271 197.263 40.3138C194.602 45.9392 189.706 54.218 183.319 63.5582C183.639 63.7705 184.064 64.0889 184.384 64.3012C190.77 54.8548 195.666 46.4699 198.434 40.8445C201.84 33.8393 202.479 28.214 200.563 23.5439C198.54 18.7676 193.857 15.2651 186.3 12.6116C174.591 8.68447 155.325 6.56169 132.121 10.595C131.057 9.10902 129.673 7.72922 127.864 6.66783C123.074 3.80209 116.581 2.7407 112.217 2.21C105.298 1.46703 98.486 1.04248 91.6738 1.04248C85.6067 1.14862 79.4331 1.46704 73.1531 2.10387Z" fill="white"/>
</mask>
<g mask="url(#mask21_766_11306)">
<path d="M-57.9819 54.4305L108.917 -99.7891L260.276 63.24L93.3767 217.353L-57.9819 54.4305Z" fill="url(#paint4_linear_766_11306)"/>
</g>
<mask id="mask22_766_11306" style="mask-type:luminance" maskUnits="userSpaceOnUse" x="82" y="11" width="49" height="20">
<path d="M111.578 15.6898C100.721 18.9801 90.9288 23.8624 82.7329 29.7001C83.0522 29.9124 83.478 30.2308 83.7973 30.443C91.7804 24.8177 101.36 20.1476 112.004 16.9634C117.433 15.2652 123.713 13.7793 130.525 12.5056C130.312 12.081 129.993 11.6565 129.673 11.2319C123.713 12.2933 117.752 13.7793 111.578 15.6898Z" fill="white"/>
</mask>
<g mask="url(#mask22_766_11306)">
<path d="M73.0464 20.0416L108.385 -12.543L139.998 21.5276L104.659 54.1121L73.0464 20.0416Z" fill="url(#paint5_linear_766_11306)"/>
</g>
</g>
<defs>
<linearGradient id="paint0_linear_766_11306" x1="145.863" y1="109.105" x2="157.325" y2="98.4618" gradientUnits="userSpaceOnUse">
<stop stop-color="#F08019"/>
<stop offset="0.9981" stop-color="#F7B433"/>
<stop offset="1" stop-color="#F7B433"/>
</linearGradient>
<linearGradient id="paint1_linear_766_11306" x1="77.1493" y1="149.159" x2="127.709" y2="102.212" gradientUnits="userSpaceOnUse">
<stop stop-color="#F08019"/>
<stop offset="0.9981" stop-color="#F7B433"/>
<stop offset="1" stop-color="#F7B433"/>
</linearGradient>
<linearGradient id="paint2_linear_766_11306" x1="159.245" y1="94.5829" x2="169.456" y2="85.1005" gradientUnits="userSpaceOnUse">
<stop stop-color="#F08019"/>
<stop offset="0.9981" stop-color="#F7B433"/>
<stop offset="1" stop-color="#F7B433"/>
</linearGradient>
<linearGradient id="paint3_linear_766_11306" x1="169.822" y1="80.5088" x2="181.251" y2="69.896" gradientUnits="userSpaceOnUse">
<stop stop-color="#F08019"/>
<stop offset="0.9981" stop-color="#F7B433"/>
<stop offset="1" stop-color="#F7B433"/>
</linearGradient>
<linearGradient id="paint4_linear_766_11306" x1="13.9041" y1="139.378" x2="159.179" y2="4.48066" gradientUnits="userSpaceOnUse">
<stop stop-color="#F08019"/>
<stop offset="0.9981" stop-color="#F7B433"/>
<stop offset="1" stop-color="#F7B433"/>
</linearGradient>
<linearGradient id="paint5_linear_766_11306" x1="83.9582" y1="41.6711" x2="120.289" y2="7.93536" gradientUnits="userSpaceOnUse">
<stop stop-color="#F08019"/>
<stop offset="0.9981" stop-color="#F7B433"/>
<stop offset="1" stop-color="#F7B433"/>
</linearGradient>
<clipPath id="clip0_766_11306">
<rect width="314" height="138" fill="white"/>
</clipPath>
</defs>
</svg>
