<svg width="72" height="72" viewBox="0 0 72 72" fill="none" xmlns="http://www.w3.org/2000/svg">
<g clip-path="url(#clip0_745_21859)">
<path d="M53.8308 43.5266C53.9178 43.5256 54.0049 43.5246 54.0947 43.5235C54.7642 43.5176 55.4338 43.5201 56.1033 43.528C56.1917 43.5287 56.2802 43.5294 56.3713 43.5301C57.2919 43.5461 58.1558 43.6819 59.041 43.9336C59.3056 44.0088 59.5711 44.0779 59.8379 44.1449C59.9699 44.178 59.9699 44.178 60.1046 44.2118C60.195 44.2345 60.2854 44.2571 60.3786 44.2804C61.4336 44.5454 62.4871 44.8163 63.5399 45.09C63.3668 45.7894 63.1403 46.4465 62.8592 47.1094C62.8196 47.2033 62.7799 47.2971 62.7391 47.3938C59.9056 54.0171 59.9056 54.0171 57.7799 55.08C57.6104 55.0164 57.6104 55.0164 57.4086 54.9169C55.8002 54.1241 53.9959 54.5654 52.3686 55.0463C52.1839 55.0988 51.9991 55.1511 51.8142 55.2032C51.4253 55.313 51.0367 55.424 50.6484 55.5359C49.7061 55.8067 48.7603 56.0646 47.8147 56.3235C47.513 56.4063 47.2116 56.4897 46.9102 56.5733C46.7251 56.6245 46.5399 56.6756 46.3548 56.7267C46.2709 56.7501 46.187 56.7735 46.1005 56.7976C45.3542 57.003 44.6648 57.0808 43.8917 57.0882C43.804 57.0908 43.7162 57.0934 43.6258 57.0961C42.2729 57.1074 41.0754 56.6858 39.8699 56.1094C39.7443 56.0507 39.6186 55.9922 39.4929 55.9338C39.2228 55.808 38.953 55.6814 38.6836 55.5542C37.9808 55.2228 37.2751 54.8978 36.5699 54.5716C36.3396 54.4649 36.1095 54.358 35.8795 54.2508C35.7324 54.1825 35.5854 54.1141 35.4384 54.0457C35.3316 53.996 35.3316 53.996 35.2226 53.9452C34.834 53.7648 34.444 53.588 34.0521 53.4149C33.9689 53.3781 33.8858 53.3413 33.8001 53.3033C33.6395 53.2324 33.4787 53.1619 33.3176 53.0921C33.2099 53.0445 33.2099 53.0445 33.1001 52.9959C33.0364 52.9682 32.9728 52.9404 32.9072 52.9118C32.7599 52.83 32.7599 52.83 32.6699 52.65C32.7728 52.6493 32.8757 52.6486 32.9818 52.6478C33.9512 52.6409 34.9206 52.633 35.8899 52.6241C36.3883 52.6197 36.8867 52.6155 37.3851 52.6121C37.866 52.6087 38.3468 52.6046 38.8276 52.5998C39.0112 52.5981 39.1948 52.5968 39.3784 52.5957C39.6352 52.5942 39.8921 52.5916 40.1489 52.5887C40.2631 52.5884 40.2631 52.5884 40.3796 52.5881C40.7415 52.583 40.9949 52.5567 41.3099 52.38C39.7674 52.3125 38.2276 52.2772 36.6837 52.2748C36.1611 52.2738 35.6385 52.2711 35.116 52.2686C34.3212 52.2648 33.5264 52.2618 32.7316 52.2607C32.1307 52.2599 31.5297 52.2571 30.9288 52.2534C30.7017 52.2523 30.4746 52.2518 30.2475 52.252C29.9311 52.2522 29.6148 52.2502 29.2984 52.2477C29.16 52.2486 29.16 52.2486 29.0188 52.2495C28.16 52.2385 27.4333 52.0035 26.8199 51.39C26.5038 51.0056 26.3323 50.6332 26.3699 50.13C26.488 49.8634 26.6596 49.6585 26.8497 49.4392C26.9027 49.3768 26.9557 49.3145 27.0103 49.2503C28.042 48.076 29.0343 47.0862 30.6502 46.9473C31.4325 46.9087 32.2109 46.9318 32.9927 46.9699C33.4655 46.9896 33.9384 46.992 34.4115 46.9964C35.304 47.0071 36.1954 47.0321 37.0873 47.063C38.397 47.1075 39.707 47.1285 41.0172 47.1514C41.2116 47.1548 41.4059 47.1582 41.6003 47.1617C41.6952 47.1634 41.7902 47.165 41.888 47.1668C42.448 47.1771 43.0077 47.1911 43.5674 47.2086C43.9155 47.2194 44.2635 47.2288 44.6116 47.2381C44.7718 47.2427 44.932 47.2481 45.0921 47.2542C47.1785 47.3334 48.3873 46.5463 49.9431 45.2456C51.1382 44.2497 52.2381 43.5364 53.8308 43.5266Z" fill="#262626"/>
<path d="M15.7782 16.8075C15.8713 16.8088 15.9645 16.8101 16.0604 16.8115C16.6543 16.8212 17.2472 16.8378 17.8405 16.8628C18.8842 16.9061 19.9262 16.9272 20.9707 16.9317C21.1872 16.9326 21.4038 16.9339 21.6203 16.9352C21.7664 16.9361 21.9125 16.937 22.0587 16.9379C22.1678 16.9386 22.1678 16.9386 22.2791 16.9392C22.6501 16.9413 23.021 16.9427 23.392 16.9425C26.6031 16.9427 26.6031 16.9427 28.1701 17.46C28.2637 17.4887 28.3574 17.5174 28.4539 17.5469C28.6707 17.6175 28.8811 17.6955 29.0926 17.7806C29.1676 17.8099 29.2426 17.8393 29.3199 17.8695C30.6237 18.3923 31.9007 19.0128 33.1201 19.71C33.1201 19.7694 33.1201 19.8288 33.1201 19.89C33.0512 19.928 32.9823 19.9661 32.9113 20.0053C32.6512 20.1491 32.3912 20.2931 32.1313 20.4371C32.0196 20.4989 31.9079 20.5607 31.7962 20.6225C31.6339 20.7121 31.4717 20.802 31.3095 20.8919C31.2566 20.9213 31.2036 20.9507 31.1491 20.9809C30.746 21.2058 30.3512 21.4422 29.9598 21.6868C29.7901 21.78 29.7901 21.78 29.6101 21.78C29.5507 21.8988 29.4913 22.0176 29.4301 22.14C29.341 22.1103 29.2519 22.0806 29.1601 22.05C29.1747 22.1005 29.1894 22.1511 29.2045 22.2032C29.2527 22.4222 29.2603 22.6148 29.2588 22.8389C29.2586 22.9189 29.2583 22.999 29.258 23.0815C29.2572 23.1643 29.2565 23.2471 29.2557 23.3325C29.2553 23.4167 29.2549 23.5009 29.2545 23.5877C29.2534 23.7951 29.2519 24.0026 29.2501 24.21C28.8016 24.1437 28.3974 23.9776 27.9788 23.8106C27.9007 23.7795 27.8226 23.7484 27.7421 23.7164C26.8936 23.3697 26.0917 22.9425 25.2901 22.5C26.9531 24.6424 29.476 25.367 32.0397 25.7458C32.3091 25.7857 32.5782 25.8265 32.8473 25.8677C33.4252 25.956 34.0033 26.0434 34.5814 26.1302C34.942 26.1844 35.3024 26.2401 35.6626 26.2969C35.7431 26.3086 35.8236 26.3203 35.9065 26.3324C36.7077 26.4604 37.4243 26.7522 37.9801 27.36C38.3561 27.8869 38.5276 28.4209 38.4301 29.07C38.2844 29.2945 38.1635 29.4501 37.979 29.6356C37.9083 29.7093 37.9083 29.7093 37.8361 29.7845C37.736 29.8875 37.635 29.9895 37.533 30.0905C37.379 30.2448 37.231 30.4035 37.0827 30.5632C36.9843 30.6631 36.8856 30.7627 36.7865 30.8619C36.7433 30.9093 36.7001 30.9567 36.6557 31.0056C36.4235 31.2262 36.2597 31.3143 35.9366 31.3373C35.6235 31.3182 35.32 31.2784 35.0101 31.23C34.9519 31.2211 34.8937 31.2122 34.8337 31.203C34.4417 31.1421 34.0511 31.0742 33.6607 31.0038C33.4402 30.9641 33.2195 30.9254 32.9988 30.8869C32.372 30.7776 31.7454 30.6674 31.1192 30.5549C28.9846 30.1724 27.0132 29.8752 24.8532 30.2421C24.5244 30.2976 24.1947 30.3473 23.8652 30.3978C23.8008 30.4078 23.7364 30.4178 23.6701 30.4281C20.0954 30.98 16.351 31.0188 13.2923 28.8369C12.3562 28.134 11.6204 27.281 11.2726 26.1506C11.1907 25.3113 11.3119 24.5166 11.4578 23.6904C11.4742 23.5968 11.4742 23.5968 11.4909 23.5014C11.5487 23.1714 11.6074 22.8417 11.667 22.512C11.7276 22.1752 11.7848 21.8379 11.8411 21.5003C11.8857 21.2374 11.9329 20.975 11.9808 20.7127C12.003 20.5886 12.0243 20.4644 12.0444 20.3401C12.202 19.3754 12.5162 18.816 13.1401 18.09C13.2171 17.9866 13.2933 17.8826 13.3679 17.7774C13.4263 17.7005 13.4848 17.6236 13.5451 17.5444C13.6035 17.4653 13.662 17.3863 13.7222 17.3049C14.3064 16.7794 15.031 16.7957 15.7782 16.8075Z" fill="#262626"/>
<path d="M49.0633 27.6496C49.3796 27.783 49.5937 28.036 49.8321 28.2769C49.8878 28.3332 49.9436 28.3895 50.0011 28.4475C51.0919 29.5804 51.8788 30.9722 51.8592 32.574C51.8103 33.2848 51.5523 33.8086 51.0302 34.29C50.7017 34.5115 50.3564 34.6956 50.0064 34.8806C49.8031 34.9912 49.5999 35.1019 49.3968 35.2129C49.2423 35.2968 49.2423 35.2968 49.0847 35.3824C48.6179 35.6393 48.1591 35.9093 47.7002 36.18C46.8779 36.6631 46.0486 37.132 45.2153 37.5957C44.4495 38.023 43.691 38.4622 42.9349 38.9066C42.5427 39.137 42.1501 39.3666 41.7546 39.5912C41.6583 39.646 41.6583 39.646 41.5601 39.702C41.4002 39.78 41.4002 39.78 41.2202 39.78C41.2221 39.7303 41.2239 39.6806 41.2259 39.6294C41.2628 38.5008 41.1959 37.5307 40.8602 36.45C40.7999 36.2401 40.7399 36.0301 40.6802 35.82C41.7404 34.7493 42.802 33.6798 43.8651 32.6118C44.3586 32.1159 44.8517 31.6197 45.3439 31.1224C45.7727 30.6891 46.2023 30.2565 46.6329 29.8249C46.861 29.5963 47.0886 29.3672 47.3154 29.1373C47.5682 28.8808 47.8227 28.6262 48.0775 28.3716C48.1528 28.2947 48.2281 28.2178 48.3056 28.1386C48.375 28.0698 48.4445 28.001 48.516 27.9301C48.576 27.8696 48.6361 27.8092 48.698 27.7469C48.8702 27.63 48.8702 27.63 49.0633 27.6496Z" fill="#262626"/>
<path d="M41.6702 17.8201C41.6671 17.9169 41.6639 18.0138 41.6607 18.1136C41.6157 20.0685 42.2465 21.538 43.4702 23.0401C43.5902 23.1901 43.7102 23.3401 43.8302 23.4901C43.5727 24.0984 43.0637 24.7025 42.4802 25.0201C42.0019 25.1201 41.5232 25.0647 41.0395 25.0331C40.3368 24.9925 39.7659 25.264 39.2065 25.6726C38.898 25.9958 38.6636 26.3503 38.4302 26.7301C38.0838 26.5651 37.771 26.3592 37.4511 26.1482C36.7294 25.7932 35.9103 25.6812 35.122 25.5594C35.0257 25.544 34.9295 25.5286 34.8303 25.5127C34.5266 25.4643 34.2228 25.4165 33.919 25.3688C33.6119 25.3205 33.3049 25.2719 32.998 25.223C32.8079 25.1926 32.6177 25.1627 32.4274 25.1331C32.3423 25.1196 32.2572 25.106 32.1695 25.0921C32.0944 25.0803 32.0192 25.0685 31.9418 25.0564C31.7702 25.0201 31.7702 25.0201 31.6802 24.9301C31.6059 24.3354 31.6426 23.8287 31.9768 23.3215C32.4789 22.695 33.3746 22.3383 34.0652 21.9601C34.2276 21.8706 34.3899 21.781 34.5522 21.6914C34.6627 21.6304 34.7733 21.5695 34.8838 21.5086C35.4225 21.2118 35.959 20.9112 36.4952 20.6101C37.3936 20.1062 38.2936 19.6052 39.1945 19.1059C39.6364 18.8608 40.078 18.6151 40.5171 18.365C40.5848 18.3265 40.6526 18.2879 40.7224 18.2482C40.8438 18.1789 40.9651 18.1093 41.0861 18.0393C41.4705 17.8201 41.4705 17.8201 41.6702 17.8201Z" fill="#262626"/>
<path d="M49.6957 26.9978C50.0736 27.1347 50.3116 27.3864 50.5968 27.6637C50.6861 27.7493 50.6861 27.7493 50.7773 27.8366C50.9529 28.0063 51.1268 28.1776 51.2999 28.3499C51.3457 28.3953 51.3914 28.4407 51.4386 28.4875C52.6341 29.6902 53.5198 31.2441 53.5836 32.9624C53.5729 33.6165 53.4807 34.4124 53.031 34.9189C52.8229 35.1062 52.624 35.2325 52.3785 35.3664C52.2893 35.4156 52.2 35.4648 52.1081 35.5155C52.0122 35.5677 51.9162 35.6199 51.8174 35.6737C51.6125 35.7867 51.4076 35.8999 51.2029 36.0133C51.1507 36.0421 51.0986 36.0709 51.0449 36.1006C50.525 36.3887 50.0122 36.6885 49.4999 36.9899C48.6765 37.4735 47.8462 37.9431 47.0119 38.4074C46.2774 38.8172 45.5507 39.2393 44.8254 39.6652C44.0525 40.1179 43.2723 40.5568 42.4896 40.9923C42.4006 41.0418 42.3117 41.0912 42.2201 41.1422C42.1419 41.1856 42.0638 41.2289 41.9832 41.2736C41.8259 41.3626 41.6708 41.4554 41.5174 41.551C41.3099 41.6699 41.3099 41.6699 41.1299 41.6699C41.002 41.1063 40.9405 40.5769 41.2199 40.0499C41.8296 39.4868 42.6453 39.1487 43.3857 38.787C43.9388 38.5144 44.4673 38.2002 44.9999 37.8899C45.2094 37.7696 45.4193 37.6499 45.6292 37.5303C45.7342 37.4703 45.8391 37.4103 45.9441 37.3503C46.3145 37.1387 46.685 36.9273 47.0555 36.7159C47.3182 36.566 47.5808 36.4158 47.8432 36.2654C48.3192 35.9925 48.7954 35.7205 49.2747 35.4534C49.4374 35.3626 49.5998 35.2713 49.7621 35.1797C49.9637 35.0662 50.1659 34.9535 50.3686 34.842C51.1349 34.408 51.6522 33.9811 51.9299 33.1199C51.9664 32.8728 51.9729 32.6326 51.9693 32.383C51.9686 32.3161 51.9679 32.2491 51.9672 32.1801C51.9232 30.689 51.0689 29.3502 50.0206 28.3362C49.9708 28.288 49.921 28.2398 49.8698 28.1901C49.7708 28.0955 49.6707 28.002 49.5695 27.9098C49.432 27.7797 49.432 27.7797 49.2299 27.5399C49.2348 27.2277 49.3589 27.0014 49.6957 26.9978Z" fill="#262626"/>
<path d="M35.9598 40.8499C37.3901 41.312 38.4775 42.2624 39.5612 43.2675C39.7437 43.4366 39.9287 43.6006 40.1174 43.7625C40.9774 44.5122 41.8011 45.3033 42.6093 46.1082C42.6979 46.1962 42.6979 46.1962 42.7884 46.2861C43.1999 46.6989 43.1999 46.6989 43.1999 46.8C42.712 46.8294 42.2246 46.8504 41.736 46.8643C41.5705 46.8701 41.4051 46.8781 41.2398 46.8883C40.3929 46.9394 39.7007 46.9612 39.0193 46.4029C38.8028 46.2041 38.5978 45.9976 38.3973 45.7825C38.1533 45.5301 37.8836 45.309 37.6143 45.0844C37.5101 44.9955 37.406 44.9064 37.3021 44.8172C37.225 44.7513 37.225 44.7513 37.1463 44.684C36.9881 44.5485 36.8301 44.4129 36.6721 44.2772C36.6195 44.2321 36.5669 44.187 36.5127 44.1405C36.4079 44.0505 36.3031 43.9604 36.1984 43.8703C35.9333 43.6425 35.6667 43.417 35.397 43.1948C35.3165 43.128 35.3165 43.128 35.2344 43.06C35.1325 42.9757 35.0303 42.8919 34.9276 42.8087C34.6719 42.5965 34.5165 42.4208 34.3799 42.12C34.5737 41.9052 34.7716 41.6946 34.9705 41.4844C35.0253 41.4236 35.0801 41.3627 35.1366 41.3C35.5562 40.8627 35.5562 40.8627 35.9598 40.8499Z" fill="#262626"/>
<path d="M41.5799 15.9299C41.8817 17.1238 41.8817 17.1238 41.5799 17.6399C41.0439 18.1029 40.3538 18.3721 39.717 18.6678C39.2691 18.8821 38.8423 19.1291 38.413 19.3781C37.6829 19.7942 36.9488 20.2027 36.2125 20.6077C35.3337 21.0911 34.4557 21.5758 33.5811 22.0668C33.4977 22.1133 33.4144 22.1597 33.3285 22.2076C32.2393 22.8169 32.2393 22.8169 31.5899 23.8499C31.5066 24.2107 31.4564 24.5616 31.4099 24.9299C30.6971 24.8408 30.6971 24.8408 29.9699 24.7499C29.965 24.463 29.9614 24.1762 29.9586 23.8893C29.9563 23.7684 29.9563 23.7684 29.954 23.6451C29.9474 22.7366 29.9474 22.7366 30.1499 22.3199C30.3966 22.1136 30.6695 21.9723 30.9542 21.8249C31.0377 21.7795 31.1211 21.7342 31.2071 21.6874C31.3886 21.5888 31.5705 21.4909 31.7528 21.3938C32.1439 21.1842 32.5309 20.9675 32.9181 20.7511C33.2259 20.5791 33.5342 20.4081 33.8427 20.2373C34.4607 19.895 35.0785 19.5523 35.6961 19.2093C35.7968 19.1534 35.8974 19.0975 36.0011 19.0399C36.7676 18.614 37.5329 18.1858 38.2977 17.7569C39.39 17.1447 40.4849 16.5373 41.5799 15.9299Z" fill="#262626"/>
<path d="M33.9299 42.5701C34.2239 42.6761 34.4404 42.777 34.6646 42.9951C34.7402 43.0672 34.7402 43.0672 34.8172 43.1408C34.8959 43.2175 34.8959 43.2175 34.9761 43.2957C35.3646 43.6662 35.7551 44.0232 36.1743 44.3588C36.5074 44.6257 36.8125 44.902 37.1091 45.2085C37.4408 45.5418 37.8031 45.8441 38.1655 46.1433C38.2231 46.1911 38.2806 46.2389 38.3399 46.2882C38.3919 46.3305 38.4438 46.3729 38.4974 46.4165C38.6099 46.5301 38.6099 46.5301 38.6099 46.7101C38.1538 46.7123 37.6977 46.7139 37.2415 46.715C37.0868 46.7155 36.932 46.7161 36.7773 46.7169C36.3404 46.719 35.9038 46.7181 35.467 46.7119C35.3042 46.7103 35.1415 46.7119 34.9787 46.714C34.3958 46.7001 34.1031 46.5351 33.6898 46.1267C33.6279 46.0612 33.5661 45.9957 33.5024 45.9282C33.3755 45.8002 33.2484 45.6724 33.1213 45.5446C33.0613 45.4831 33.0012 45.4216 32.9394 45.3582C32.682 45.1027 32.4087 44.8718 32.1299 44.6401C32.1788 44.2815 32.349 44.1195 32.6027 43.8708C32.6796 43.7949 32.7565 43.7189 32.8356 43.6406C32.9164 43.562 32.9973 43.4835 33.0805 43.4026C33.1617 43.3226 33.2428 43.2427 33.3264 43.1603C33.527 42.963 33.7281 42.7662 33.9299 42.5701Z" fill="#262626"/>
<path d="M11.3402 20.6099C11.3996 20.6099 11.459 20.6099 11.5202 20.6099C11.5026 20.7081 11.5026 20.7081 11.4846 20.8083C11.4681 20.9007 11.4515 20.9931 11.4344 21.0883C11.4159 21.1915 11.3975 21.2946 11.3784 21.4009C11.3376 21.629 11.2971 21.8572 11.2567 22.0854C11.1601 22.631 11.0621 23.1761 10.957 23.7201C10.7177 24.9766 10.5608 26.0816 11.1602 27.2699C11.3157 27.4917 11.4781 27.6983 11.6563 27.9023C11.7944 28.0855 11.8426 28.2158 11.8802 28.4399C10.9429 29.1678 10.1088 29.473 8.91021 29.3399C8.56487 29.2511 8.23673 29.1454 7.92021 28.9799C7.83021 28.7999 7.83021 28.7999 7.88049 28.6051C7.90659 28.532 7.9327 28.4589 7.95959 28.3836C7.98546 28.3101 8.01133 28.2365 8.03799 28.1607C8.05852 28.1043 8.07906 28.048 8.10021 27.9899C8.17818 28.0493 8.25614 28.1087 8.33646 28.1699C8.66698 28.3657 8.80519 28.4137 9.18021 28.3499C9.51752 28.1625 9.61175 28.0533 9.72021 27.6805C9.72021 27.3222 9.67681 27.1833 9.45021 26.9099C9.16027 26.6999 8.90035 26.7139 8.55021 26.7299C8.67288 26.0825 8.87778 25.5072 9.13521 24.9017C9.17494 24.8076 9.21467 24.7135 9.2556 24.6165C9.76178 23.4326 10.3262 22.2818 10.9802 21.1724C11.0139 21.1149 11.0475 21.0574 11.0822 20.9981C11.1629 20.8653 11.2508 20.737 11.3402 20.6099Z" fill="#262626"/>
<path d="M26.6738 40.2412C26.7221 40.2672 26.7704 40.2932 26.8201 40.3199C26.8201 40.6799 26.8201 40.6799 26.7222 40.8223C26.6764 40.8679 26.6306 40.9134 26.5834 40.9604C26.5317 41.0126 26.48 41.0648 26.4268 41.1187C26.342 41.2015 26.342 41.2015 26.2555 41.286C26.198 41.3434 26.1405 41.4009 26.0812 41.46C25.9595 41.5812 25.8374 41.7019 25.7149 41.8222C25.5268 42.007 25.3401 42.1932 25.1537 42.3797C25.0354 42.4971 24.9171 42.6144 24.7986 42.7316C24.7424 42.7876 24.6863 42.8436 24.6284 42.9012C24.231 43.2899 24.231 43.2899 24.0301 43.2899C23.8914 43.1373 23.7593 42.9787 23.6307 42.8174C23.5603 42.7297 23.4899 42.642 23.4173 42.5516C23.3522 42.4686 23.2871 42.3855 23.2201 42.2999C23.1681 42.2388 23.1161 42.1776 23.0626 42.1147C22.8477 41.7808 22.8793 41.4195 22.9501 41.0399C23.617 39.7477 25.5124 39.691 26.6738 40.2412Z" fill="#262626"/>
<path d="M31.5001 45C31.8129 45.1487 32.0411 45.3236 32.2988 45.5569C32.4098 45.6562 32.4098 45.6562 32.5231 45.7576C32.7994 46.0285 33.0483 46.3262 33.3001 46.62C32.2309 46.62 31.1617 46.62 30.0601 46.62C30.2118 46.3164 30.3023 46.176 30.5333 45.9492C30.5895 45.8935 30.6458 45.8378 30.7038 45.7805C30.7624 45.7234 30.8209 45.6663 30.8813 45.6075C30.9406 45.549 30.9999 45.4906 31.061 45.4303C31.2069 45.2865 31.3533 45.143 31.5001 45Z" fill="#262626"/>
<path d="M41.8499 19.0801C42.0922 19.3224 42.2054 19.6125 42.3505 19.9182C42.8958 21.0327 43.6026 21.967 44.4599 22.8601C44.3655 23.096 44.3114 23.2015 44.0886 23.3326C44.0329 23.3549 43.9773 23.3771 43.9199 23.4001C42.9087 22.164 41.7786 20.7671 41.8499 19.0801Z" fill="#262626"/>
<path d="M42.1199 25.2C41.9109 25.7044 41.4753 26.0545 41.0952 26.4331C40.9555 26.5725 40.817 26.713 40.6786 26.8537C40.5902 26.9424 40.5016 27.031 40.413 27.1195C40.2924 27.2405 40.2924 27.2405 40.1694 27.3639C39.9599 27.54 39.9599 27.54 39.6899 27.54C39.6269 27.4262 39.5653 27.3117 39.5042 27.1968C39.4525 27.1013 39.4525 27.1013 39.3998 27.0038C39.3299 26.82 39.3299 26.82 39.4199 26.55C39.6585 26.3954 39.6585 26.3954 39.9736 26.2283C40.0289 26.1987 40.0843 26.1691 40.1414 26.1386C40.2585 26.0763 40.3759 26.0143 40.4934 25.9528C40.6737 25.8584 40.8532 25.7626 41.0326 25.6667C41.9124 25.2 41.9124 25.2 42.1199 25.2Z" fill="#262626"/>
<path d="M40.5901 36.0901C40.8817 36.8629 41.0379 37.61 41.1301 38.4301C41.0707 38.4301 41.0113 38.4301 40.9501 38.4301C40.9143 38.3334 40.8784 38.2368 40.8415 38.1372C40.7933 38.008 40.7452 37.8787 40.697 37.7495C40.6618 37.6544 40.6618 37.6544 40.6258 37.5573C40.4749 37.1529 40.3132 36.7556 40.1401 36.3601C40.3876 36.0901 40.3876 36.0901 40.5901 36.0901Z" fill="#262626"/>
<circle cx="36" cy="36" r="33.5" stroke="#656CAF" stroke-width="5"/>
<rect x="56.9648" y="11.78" width="5" height="64" transform="rotate(45 56.9648 11.78)" fill="#656CAF"/>
</g>
<defs>
<clipPath id="clip0_745_21859">
<rect width="72" height="72" fill="white"/>
</clipPath>
</defs>
</svg>
