<svg width="1051" height="106" viewBox="0 0 1051 106" fill="none" xmlns="http://www.w3.org/2000/svg">
<path d="M1047.5 61C1047.5 60.7239 1047.28 60.5 1047 60.5C1046.72 60.5 1046.5 60.7239 1046.5 61H1047.5ZM1046.65 105.354C1046.84 105.549 1047.16 105.549 1047.35 105.354L1050.54 102.172C1050.73 101.976 1050.73 101.66 1050.54 101.464C1050.34 101.269 1050.02 101.269 1049.83 101.464L1047 104.293L1044.17 101.464C1043.98 101.269 1043.66 101.269 1043.46 101.464C1043.27 101.66 1043.27 101.976 1043.46 102.172L1046.65 105.354ZM1047 61H1046.5V105H1047H1047.5V61H1047Z" fill="#7B7B7B"/>
<path d="M699.5 61C699.5 60.7239 699.276 60.5 699 60.5C698.724 60.5 698.5 60.7239 698.5 61H699.5ZM698.646 105.354C698.842 105.549 699.158 105.549 699.354 105.354L702.536 102.172C702.731 101.976 702.731 101.66 702.536 101.464C702.34 101.269 702.024 101.269 701.828 101.464L699 104.293L696.172 101.464C695.976 101.269 695.66 101.269 695.464 101.464C695.269 101.66 695.269 101.976 695.464 102.172L698.646 105.354ZM699 61H698.5V105H699H699.5V61H699Z" fill="#7B7B7B"/>
<path d="M351.5 61C351.5 60.7239 351.276 60.5 351 60.5C350.724 60.5 350.5 60.7239 350.5 61H351.5ZM351 105L353.887 100H348.113L351 105ZM351 61H350.5V100.5H351H351.5V61H351Z" fill="#7B7B7B"/>
<path d="M3.5 61C3.5 60.7239 3.27614 60.5 3 60.5C2.72386 60.5 2.5 60.7239 2.5 61H3.5ZM3 105L5.88675 100H0.113249L3 105ZM3 61H2.5L2.5 100.5H3H3.5L3.5 61H3Z" fill="#7B7B7B"/>
<path d="M3 61L1047 60.9999" stroke="#7B7B7B" stroke-linecap="round"/>
<path d="M989 1V61" stroke="#7B7B7B" stroke-linecap="round"/>
</svg>
