<svg width="9" height="494" viewBox="0 0 9 494" fill="none" xmlns="http://www.w3.org/2000/svg">
<path d="M1 490.5C0.723858 490.5 0.5 490.724 0.5 491C0.5 491.276 0.723858 491.5 1 491.5L1 490.5ZM9 491L4 488.113L4 493.887L9 491ZM1 491L1 491.5L4.5 491.5L4.5 491L4.5 490.5L1 490.5L1 491Z" fill="#7B7B7B"/>
<path d="M1 368.5C0.723858 368.5 0.5 368.724 0.5 369C0.5 369.276 0.723858 369.5 1 369.5L1 368.5ZM9 369L4 366.113L4 371.887L9 369ZM1 369L1 369.5L4.5 369.5L4.5 369L4.5 368.5L1 368.5L1 369Z" fill="#7B7B7B"/>
<path d="M1 246.5C0.723858 246.5 0.5 246.724 0.5 247C0.5 247.276 0.723858 247.5 1 247.5L1 246.5ZM9 247L4 244.113L4 249.887L9 247ZM1 247L1 247.5L4.5 247.5L4.5 247L4.5 246.5L1 246.5L1 247Z" fill="#7B7B7B"/>
<path d="M1 124.5C0.723858 124.5 0.5 124.724 0.5 125C0.5 125.276 0.723858 125.5 1 125.5L1 124.5ZM9 125L4 122.113L4 127.887L9 125ZM1 125L1 125.5L4.5 125.5L4.5 125L4.5 124.5L1 124.5L1 125Z" fill="#7B7B7B"/>
<path d="M1.5 1C1.5 0.723858 1.27614 0.5 1 0.5C0.723858 0.5 0.5 0.723858 0.5 1H1.5ZM1 1H0.5L0.5 491H1H1.5L1.5 1H1Z" fill="#7B7B7B"/>
</svg>
